{"glyphs":{"0":{"ha":1167,"x_min":0,"x_max":1111,"o":"m 556 1022 q 788 963 676 1022 q 960 803 900 904 q 1022 556 1022 696 q 781 144 1022 265 q 556 89 669 89 q 325 146 433 89 q 150 310 211 206 q 89 556 89 415 q 331 967 89 846 q 556 1022 442 1022 m 557 393 q 651 418 607 393 q 718 554 718 456 q 557 717 718 708 q 394 554 394 708 q 461 418 394 456 q 557 393 506 393 m 115 821 q 57 683 69 743 q 49 556 49 644 q 313 108 49 240 q 556 49 432 49 q 810 113 690 49 q 996 290 929 176 q 1063 556 1063 404 q 997 819 1063 704 q 799 1003 928 939 q 556 1063 679 1063 q 301 999 421 1063 q 115 821 182 935 m 185 332 q 136 447 146 397 q 129 556 129 481 q 349 931 129 821 q 556 982 451 982 q 769 928 667 982 q 926 781 871 875 q 981 556 981 686 q 763 181 981 289 q 556 129 660 129 q 342 183 443 129 q 185 332 240 238 m 554 757 q 442 726 496 757 q 354 554 354 676 q 442 383 354 432 q 554 353 496 353 l 558 353 q 671 383 617 353 q 758 554 758 432 q 671 726 758 676 q 558 757 618 757 l 554 757 m 435 554 q 557 676 435 668 q 678 554 678 668 q 557 433 678 442 q 435 554 435 442 m 40 556 q 107 288 40 404 q 308 100 176 165 q 556 40 428 40 q 813 106 692 40 q 1003 288 935 172 q 1071 556 1071 403 q 1003 824 1071 707 q 801 1011 933 946 q 556 1071 682 1071 q 299 1006 421 1071 q 106 820 172 938 q 40 556 40 703 m 350 189 q 247 257 281 224 q 193 335 225 279 q 138 556 138 429 q 353 924 138 817 q 556 974 453 974 q 758 924 658 974 q 974 556 974 817 q 761 189 974 294 q 556 138 658 138 q 350 189 451 138 m 73 843 q 36 780 73 843 q 0 556 0 717 q 74 267 0 394 q 290 64 150 133 q 556 0 418 0 q 833 71 701 0 q 1036 264 964 142 q 1111 556 1111 392 q 1038 844 1111 717 q 821 1047 961 978 q 556 1111 693 1111 q 279 1042 408 1111 q 73 843 146 969 m 556 1031 q 790 972 679 1031 q 967 807 907 911 q 1029 556 1029 699 q 783 136 1029 258 q 556 81 672 81 q 321 140 433 81 q 81 556 81 268 q 143 805 81 694 q 326 975 206 915 q 556 1031 438 1031 m 158 799 q 97 556 97 693 q 156 317 97 424 q 333 151 218 203 q 556 97 454 97 q 784 155 675 97 q 953 315 893 213 q 1014 556 1014 418 q 776 960 1014 842 q 556 1014 668 1014 q 329 957 436 1014 q 158 799 217 897 m 178 556 q 371 888 178 792 q 556 933 463 933 q 742 888 654 933 q 882 757 835 839 q 932 556 932 671 q 740 224 932 319 q 556 178 649 178 q 369 224 461 178 q 178 556 178 319 m 554 765 q 438 733 494 765 q 346 554 346 682 q 438 376 346 428 q 554 344 494 344 l 558 344 q 675 376 618 344 q 767 554 767 428 q 675 733 767 682 q 558 765 618 765 l 554 765 m 443 554 q 557 668 443 661 q 669 554 669 660 q 557 442 669 442 q 443 554 443 442 m 553 806 q 418 768 486 806 q 306 554 306 706 q 418 340 306 403 q 553 304 482 304 l 561 304 q 694 340 631 304 q 807 554 807 404 q 696 768 807 706 q 561 806 629 806 l 553 806 m 557 725 q 726 554 726 717 q 656 411 726 451 q 556 385 611 386 q 457 411 507 383 q 386 554 386 450 q 556 725 386 717 l 556 725 l 557 725 m 554 708 q 403 554 403 708 q 465 425 403 461 q 554 401 507 401 l 558 401 q 710 554 710 401 q 558 708 710 708 l 554 708 m 483 554 l 483 554 q 500 610 483 594 q 557 626 517 625 q 613 610 597 625 q 629 554 629 594 q 613 501 629 515 q 557 482 597 486 q 500 501 517 486 q 483 554 483 515 z "},"1":{"ha":672,"x_min":0,"x_max":640,"o":"m 399 1022 q 525 954 481 1022 q 550 869 550 915 l 550 242 q 506 133 550 178 q 399 89 463 89 q 290 133 335 89 q 246 242 246 178 l 246 560 q 135 603 181 558 q 89 713 89 647 q 133 821 89 776 l 290 978 q 399 1022 335 1022 m 263 1007 l 104 849 q 49 713 49 793 q 93 589 49 643 q 206 522 138 535 l 206 242 q 262 105 206 161 q 399 49 318 49 q 535 105 479 49 q 592 242 592 161 l 592 869 q 535 1006 592 950 q 399 1063 479 1063 q 263 1007 318 1063 m 129 713 q 163 792 129 758 l 319 949 q 399 982 353 982 q 492 932 458 982 q 510 869 510 904 l 510 242 q 478 162 510 194 q 399 129 446 129 q 319 162 351 129 q 288 242 288 194 l 288 603 l 244 600 q 163 631 197 597 q 129 713 129 665 m 257 1013 l 99 854 q 40 713 40 796 q 84 586 40 642 q 197 515 128 531 l 197 242 q 256 99 197 157 q 399 40 314 40 q 540 99 482 40 q 599 242 599 158 l 599 869 q 540 1012 599 953 q 399 1071 482 1071 q 257 1013 315 1071 m 138 713 q 168 786 138 756 l 325 943 q 399 974 356 974 q 485 928 454 974 q 503 869 503 901 l 503 242 q 472 168 503 199 q 399 138 442 138 q 324 167 354 138 q 294 242 294 197 l 294 611 l 244 608 q 169 637 200 606 q 138 713 138 668 m 228 1040 l 71 883 q 0 713 0 813 l 0 713 q 72 540 0 613 q 157 485 110 503 l 157 242 q 227 70 157 140 q 399 0 297 0 q 570 70 500 0 q 640 242 640 140 l 640 869 q 569 1040 640 969 q 399 1111 499 1111 q 228 1040 299 1111 m 399 1031 q 532 958 485 1031 q 558 869 558 918 l 558 242 q 512 128 558 175 q 399 81 465 81 q 285 127 331 81 q 239 242 239 174 l 239 549 l 206 556 q 116 612 151 567 q 81 713 81 657 q 128 826 81 779 l 285 983 q 399 1031 332 1031 m 296 972 l 139 815 q 97 713 97 774 q 140 608 97 649 q 246 568 182 568 l 254 568 l 254 242 q 296 139 254 181 q 399 97 338 97 q 501 139 460 97 q 543 242 543 181 l 543 869 q 501 972 543 929 q 399 1014 458 1014 q 296 972 338 1014 m 178 713 q 196 757 178 739 l 354 915 q 399 933 372 933 q 443 915 425 933 q 461 869 461 896 l 461 242 q 443 197 461 215 q 399 178 425 178 q 353 196 371 178 q 336 242 336 214 l 336 653 l 243 649 q 197 666 215 647 q 178 713 178 685 m 140 610 z "},"2":{"ha":1167,"x_min":0,"x_max":1111,"o":"m 713 1022 q 858 986 786 1022 q 1022 713 1022 904 q 858 439 1022 521 q 713 403 786 403 l 401 403 q 394 401 399 403 l 394 394 l 869 394 q 978 350 933 394 q 1022 242 1022 306 q 977 134 1022 179 q 869 89 932 89 l 242 89 q 133 133 178 89 q 89 242 89 178 l 89 399 q 253 672 89 590 q 399 708 325 708 l 710 708 q 717 710 713 708 l 717 717 q 710 718 713 718 l 242 718 q 133 763 178 718 q 89 871 89 807 q 134 978 89 933 q 242 1022 179 1022 l 713 1022 m 242 1063 q 105 1007 161 1063 q 49 871 49 951 q 89 752 49 804 q 193 685 129 700 q 49 399 49 589 l 49 242 q 105 105 49 161 q 242 49 161 49 l 869 49 q 1006 105 950 49 q 1063 242 1063 161 q 1023 360 1063 308 q 919 428 983 411 q 1063 713 1063 522 q 876 1022 1063 929 q 713 1063 796 1063 l 242 1063 m 129 871 q 163 949 129 917 q 242 982 196 982 l 713 982 q 840 950 776 982 q 981 713 981 879 q 840 475 981 546 q 713 443 776 443 l 401 443 l 347 435 l 354 401 l 354 354 l 869 354 q 949 322 917 354 q 981 242 981 289 q 948 163 981 196 q 869 129 915 129 l 242 129 q 163 163 196 129 q 129 242 129 196 l 129 399 q 271 636 129 565 q 399 668 335 668 l 710 668 l 764 679 l 757 710 l 757 750 l 732 754 l 710 758 l 242 758 q 162 791 194 758 q 129 871 129 824 m 242 1071 q 99 1013 158 1071 q 40 871 40 954 q 100 729 40 789 q 175 682 133 696 q 40 399 40 583 l 40 242 q 99 99 40 158 q 242 40 158 40 l 869 40 q 1012 99 953 40 q 1071 242 1071 158 q 1011 385 1071 326 q 938 431 981 415 q 1071 713 1071 529 q 881 1029 1071 935 q 713 1071 797 1071 l 242 1071 m 138 871 q 168 944 138 914 q 242 974 199 974 l 713 974 q 836 943 775 974 q 974 713 974 875 q 836 482 974 551 q 713 451 775 451 l 401 451 l 339 442 l 346 401 l 346 346 l 869 346 q 943 315 913 346 q 974 242 974 285 q 943 168 974 199 q 869 138 913 138 l 242 138 q 168 168 199 138 q 138 242 138 199 l 138 399 q 274 629 138 561 q 399 660 335 660 l 710 660 l 774 674 l 765 710 l 765 757 l 735 761 l 710 767 l 242 767 q 168 797 199 767 q 138 871 138 828 m 242 1111 q 70 1041 140 1111 q 0 871 0 971 q 104 674 0 746 q 0 399 0 568 l 0 242 q 71 71 0 142 q 242 0 142 0 l 869 0 q 1040 71 969 0 q 1111 242 1111 142 q 1007 439 1111 365 q 1111 713 1111 544 q 897 1065 1111 958 q 713 1111 806 1111 l 242 1111 m 81 242 l 81 399 q 199 649 81 564 l 263 694 l 189 719 q 110 777 139 736 q 81 871 81 818 q 128 984 81 938 q 242 1031 175 1031 l 713 1031 q 861 993 786 1031 q 1029 713 1029 910 q 914 464 1029 550 l 853 418 l 924 393 q 1001 335 972 376 q 1029 242 1029 293 q 983 128 1029 175 q 869 81 936 81 l 242 81 q 128 128 175 81 q 81 242 81 175 m 242 1014 q 140 972 182 1014 q 97 871 97 931 q 139 768 97 810 q 242 726 181 726 l 725 722 l 725 704 l 706 700 l 399 700 q 256 664 328 700 q 97 399 97 585 l 97 242 q 140 140 97 182 q 242 97 182 97 l 869 97 q 972 140 929 97 q 1014 242 1014 182 q 972 344 1014 301 q 869 386 929 386 l 386 386 l 386 408 l 404 411 l 713 411 q 856 446 786 411 q 1014 713 1014 525 q 854 979 1014 900 q 713 1014 783 1014 l 242 1014 m 178 871 q 197 915 178 897 q 242 933 215 933 l 713 933 q 818 907 765 933 q 932 713 932 850 q 818 518 932 576 q 713 492 767 492 l 399 492 l 292 475 l 306 397 l 306 306 l 869 306 q 914 287 896 306 q 932 242 932 268 q 914 197 932 215 q 869 178 896 178 l 242 178 q 197 197 215 178 q 178 242 178 215 l 178 399 q 292 592 178 535 q 399 619 347 619 l 714 619 l 824 642 l 806 715 l 806 790 l 742 801 l 714 807 l 242 807 q 197 826 215 807 q 178 871 178 844 z "},"3":{"ha":1167,"x_min":0,"x_max":1111,"o":"m 983 556 q 1022 399 1022 486 q 858 125 1022 207 q 713 89 786 89 l 242 89 q 133 133 178 89 q 89 242 89 178 q 133 350 89 306 q 242 394 178 394 l 710 394 q 717 396 713 394 l 717 401 q 710 403 713 403 l 360 403 q 251 447 296 403 q 207 556 207 492 q 251 664 207 619 q 360 708 296 708 l 710 708 q 717 710 713 708 l 717 717 q 710 718 713 718 l 242 718 q 133 763 178 718 q 89 871 89 807 q 134 978 89 933 q 242 1022 179 1022 l 713 1022 q 858 986 786 1022 q 1022 713 1022 904 q 983 556 1022 625 m 242 1063 q 105 1007 161 1063 q 49 871 49 951 q 95 744 49 799 q 214 681 142 690 q 167 556 167 626 q 213 432 167 486 q 95 368 142 422 q 49 242 49 314 q 105 105 49 161 q 242 49 161 49 l 713 49 q 876 89 796 49 q 1063 399 1063 182 q 1028 556 1063 482 q 1063 713 1063 629 q 876 1022 1063 929 q 713 1063 796 1063 l 242 1063 m 129 871 q 163 949 129 917 q 242 982 196 982 l 713 982 q 840 950 776 982 q 981 713 981 879 q 947 575 981 642 l 938 556 l 947 536 q 981 399 981 469 q 840 161 981 232 q 713 129 776 129 l 242 129 q 163 163 196 129 q 129 242 129 196 q 162 322 129 289 q 242 354 194 354 l 710 354 l 763 363 l 757 396 l 757 436 l 710 443 l 360 443 q 280 476 313 443 q 247 556 247 508 q 280 635 247 603 q 360 668 313 668 l 710 668 l 764 679 l 757 710 l 757 750 l 732 754 l 710 758 l 242 758 q 162 791 194 758 q 129 871 129 824 m 242 1071 q 99 1013 158 1071 q 40 871 40 954 q 85 744 40 800 q 199 675 129 689 q 158 556 158 622 q 197 438 158 490 q 84 367 128 422 q 40 242 40 313 q 99 99 40 158 q 242 40 158 40 l 713 40 q 881 82 797 40 q 1071 399 1071 176 q 1036 556 1071 482 q 1071 713 1071 629 q 881 1029 1071 935 q 713 1071 797 1071 l 242 1071 m 138 871 q 168 944 138 914 q 242 974 199 974 l 713 974 q 836 943 775 974 q 974 713 974 875 q 940 579 974 642 l 928 556 l 940 532 q 974 399 974 469 q 838 169 974 238 q 713 138 774 138 l 242 138 q 168 168 199 138 q 138 242 138 199 q 168 315 138 285 q 242 346 199 346 l 710 346 l 772 356 l 765 396 l 765 443 l 731 447 l 710 451 l 360 451 q 286 482 317 451 q 256 556 256 513 q 286 629 256 599 q 360 660 317 660 l 710 660 l 774 674 l 765 710 l 765 757 l 735 761 l 710 767 l 242 767 q 168 797 199 767 q 138 871 138 828 m 242 1111 q 70 1041 140 1111 q 0 871 0 971 q 38 742 0 800 q 139 653 75 683 q 118 556 118 606 q 138 460 118 506 q 71 413 100 442 q 0 242 0 342 q 71 71 0 142 q 242 0 142 0 l 713 0 q 899 46 807 0 q 1111 399 1111 151 q 1081 556 1111 479 q 1111 713 1111 632 q 897 1065 1111 958 q 713 1111 806 1111 l 242 1111 m 81 242 q 115 342 81 299 q 206 399 150 386 l 267 413 l 229 463 q 199 556 199 503 q 231 650 199 608 l 269 701 l 207 714 q 116 769 151 725 q 81 871 81 814 q 128 984 81 938 q 242 1031 175 1031 l 713 1031 q 861 993 786 1031 q 1029 713 1029 910 q 1000 572 1029 631 l 992 556 l 1000 539 q 1029 399 1029 481 q 863 118 1029 201 q 713 81 788 81 l 242 81 q 128 128 175 81 q 81 242 81 175 m 242 1014 q 140 972 182 1014 q 97 871 97 931 q 139 768 97 810 q 242 726 181 726 l 725 722 l 725 704 l 706 700 l 360 700 q 258 658 300 700 q 215 556 215 615 q 258 453 215 496 q 360 411 300 411 l 725 408 l 725 389 l 706 386 l 242 386 q 140 344 182 386 q 97 242 97 301 q 140 140 97 182 q 242 97 182 97 l 713 97 q 856 133 782 97 q 1014 399 1014 211 q 976 551 1014 494 l 974 556 l 976 560 q 1014 713 1014 615 q 854 979 1014 900 q 713 1014 783 1014 l 242 1014 m 197 826 l 197 826 q 178 871 178 844 q 197 915 178 897 q 242 933 215 933 l 713 933 q 818 907 765 933 q 932 713 932 850 q 906 599 932 647 l 882 556 l 906 513 q 932 399 932 464 q 819 206 932 263 q 713 178 764 178 l 242 178 q 197 197 215 178 q 178 242 178 215 q 197 287 178 268 q 242 306 215 306 l 713 306 l 819 322 l 806 400 l 806 478 l 713 492 l 360 492 q 315 510 333 492 q 296 556 296 529 q 315 601 296 582 q 360 619 333 619 l 714 619 l 824 642 l 806 715 l 806 790 l 742 801 l 714 807 l 242 807 q 197 826 215 807 m 140 769 z "},"4":{"ha":1167,"x_min":0,"x_max":1111,"o":"m 1022 869 l 1022 242 q 978 133 1022 178 q 869 89 933 89 q 763 134 807 89 q 718 242 718 179 l 718 403 l 399 403 q 125 565 206 403 q 89 713 89 638 l 89 869 q 133 978 89 933 q 242 1022 178 1022 q 350 978 306 1022 q 394 869 394 933 l 394 717 q 396 708 394 711 l 718 708 l 718 869 q 763 977 718 932 q 869 1022 807 1022 q 978 978 933 1022 q 1022 869 1022 933 m 678 869 l 678 749 l 435 749 l 435 869 q 378 1006 435 950 q 242 1063 322 1063 q 105 1006 161 1063 q 49 869 49 950 l 49 713 q 89 547 49 628 q 399 363 181 363 l 678 363 l 678 242 q 733 105 678 161 q 869 49 789 49 q 1006 105 950 49 q 1063 242 1063 161 l 1063 869 q 1006 1006 1063 950 q 869 1063 950 1063 q 734 1006 790 1063 q 678 869 678 949 m 396 668 l 758 668 l 758 869 q 791 949 758 915 q 869 982 824 982 q 949 949 917 982 q 981 869 981 917 l 981 242 q 949 162 981 194 q 869 129 917 129 q 791 163 824 129 q 758 242 758 196 l 758 443 l 399 443 q 161 583 231 443 q 129 713 129 647 l 129 869 q 163 949 129 915 q 242 982 196 982 q 322 949 289 982 q 354 869 354 917 l 354 717 l 363 661 l 396 668 m 669 869 l 669 757 l 443 757 l 443 869 q 384 1012 443 953 q 242 1071 325 1071 q 99 1012 158 1071 q 40 869 40 953 l 40 713 q 82 544 40 628 q 399 354 176 354 l 669 354 l 669 242 q 728 99 669 158 q 869 40 786 40 q 1012 99 953 40 q 1071 242 1071 158 l 1071 869 q 1012 1012 1071 953 q 869 1071 953 1071 q 728 1012 786 1071 q 669 869 669 953 m 396 660 l 767 660 l 767 869 q 797 943 767 913 q 869 974 826 974 q 943 943 913 974 q 974 869 974 913 l 974 242 q 943 168 974 199 q 869 138 913 138 q 797 168 826 138 q 767 242 767 199 l 767 451 l 399 451 q 169 588 238 451 q 138 713 138 651 l 138 869 q 168 943 138 913 q 242 974 199 974 q 315 943 285 974 q 346 869 346 913 l 346 717 l 357 651 l 396 660 m 700 1040 l 700 1040 q 629 869 629 969 l 629 797 l 483 797 l 483 869 q 413 1040 483 969 q 242 1111 342 1111 q 71 1040 142 1111 q 0 869 0 969 l 0 713 q 46 525 0 617 q 399 314 151 314 l 629 314 l 629 242 q 699 70 629 140 q 869 0 769 0 q 1041 70 971 0 q 1111 242 1111 140 l 1111 869 q 1041 1041 1111 971 q 869 1111 971 1111 q 700 1040 771 1111 m 869 1031 q 983 983 936 1031 q 1029 869 1029 936 l 1029 242 q 983 128 1029 175 q 869 81 936 81 q 756 128 803 81 q 710 242 710 175 l 710 394 l 399 394 q 118 561 201 394 q 81 713 81 636 l 81 869 q 128 983 81 936 q 242 1031 175 1031 q 356 983 308 1031 q 403 869 403 936 l 403 717 l 710 717 l 710 869 q 756 983 710 936 q 869 1031 803 1031 m 726 869 l 726 700 l 390 700 l 386 719 l 386 869 q 344 972 386 929 q 242 1014 301 1014 q 140 972 182 1014 q 97 869 97 929 l 97 713 q 133 569 97 642 q 399 411 213 411 l 726 411 l 726 242 q 768 140 726 182 q 869 97 810 97 q 972 139 931 97 q 1014 242 1014 181 l 1014 869 q 972 972 1014 931 q 869 1014 931 1014 q 768 972 810 1014 q 726 869 726 929 m 807 619 l 807 869 q 825 915 807 896 q 869 933 843 933 q 914 915 896 933 q 932 869 932 896 l 932 242 q 914 197 932 215 q 869 178 896 178 q 825 197 843 178 q 807 242 807 215 l 807 492 l 399 492 q 206 606 263 492 q 178 713 178 661 l 178 869 q 197 915 178 896 q 242 933 215 933 q 287 915 268 933 q 306 869 306 896 l 306 713 l 322 603 l 400 619 l 807 619 z "},"5":{"ha":1167,"x_min":0,"x_max":1111,"o":"m 869 1022 q 977 978 932 1022 q 1022 871 1022 933 q 978 763 1022 807 q 869 718 933 718 l 394 718 l 394 710 q 401 708 397 708 l 713 708 q 858 672 786 708 q 1022 399 1022 590 q 858 125 1022 207 q 713 89 786 89 l 242 89 q 133 133 178 89 q 89 242 89 178 q 133 350 89 306 q 242 394 178 394 l 710 394 q 717 396 713 394 l 717 401 q 710 403 713 403 l 399 403 q 253 439 325 403 q 89 713 89 521 l 89 869 q 133 978 89 933 q 242 1022 178 1022 l 869 1022 m 242 1063 q 105 1006 161 1063 q 49 869 49 950 l 49 713 q 190 428 49 524 q 88 359 128 411 q 49 242 49 307 q 105 105 49 161 q 242 49 161 49 l 713 49 q 876 89 796 49 q 1063 399 1063 182 q 917 685 1063 589 q 1022 752 982 700 q 1063 871 1063 804 q 1006 1006 1063 950 q 869 1063 949 1063 l 242 1063 m 271 475 q 129 713 129 546 l 129 869 q 163 949 129 915 q 242 982 196 982 l 869 982 q 948 949 915 982 q 981 871 981 917 q 949 791 981 824 q 869 758 917 758 l 354 758 l 354 676 l 401 668 l 713 668 q 840 636 776 668 q 981 399 981 565 q 840 161 981 232 q 713 129 776 129 l 242 129 q 163 163 196 129 q 129 242 129 196 q 162 322 129 289 q 242 354 194 354 l 710 354 l 763 363 l 757 396 l 757 436 l 710 443 l 399 443 q 271 475 335 443 m 242 1071 q 99 1012 158 1071 q 40 869 40 953 l 40 713 q 174 431 40 529 q 76 358 113 410 q 40 242 40 306 q 99 99 40 158 q 242 40 158 40 l 713 40 q 881 82 797 40 q 1071 399 1071 176 q 935 682 1071 583 q 1011 729 978 696 q 1071 871 1071 789 q 1012 1013 1071 954 q 869 1071 953 1071 l 242 1071 m 274 482 q 138 713 138 550 l 138 869 q 168 943 138 913 q 242 974 199 974 l 869 974 q 943 944 913 974 q 974 871 974 914 q 943 797 974 828 q 869 767 913 767 l 346 767 l 346 669 l 375 665 l 401 660 l 713 660 q 836 629 775 660 q 974 399 974 560 q 838 169 974 238 q 713 138 774 138 l 242 138 q 168 168 199 138 q 138 242 138 199 q 168 315 138 285 q 242 346 199 346 l 710 346 l 772 356 l 765 396 l 765 443 l 731 447 l 710 451 l 399 451 q 274 482 335 451 m 242 1111 q 71 1040 142 1111 q 0 869 0 969 l 0 713 q 104 439 0 544 q 0 242 0 367 q 71 71 0 142 q 242 0 142 0 l 713 0 q 899 46 807 0 q 1111 399 1111 151 q 1006 674 1111 568 q 1111 871 1111 746 q 1041 1041 1111 971 q 869 1111 971 1111 l 242 1111 m 81 242 q 110 335 81 293 q 188 393 139 376 l 258 418 l 197 464 q 81 713 81 551 l 81 869 q 128 983 81 936 q 242 1031 175 1031 l 869 1031 q 983 984 936 1031 q 1029 871 1029 938 q 1000 777 1029 818 q 922 719 971 736 l 849 694 l 911 649 q 1029 399 1029 563 q 863 118 1029 201 q 713 81 788 81 l 242 81 q 128 128 175 81 q 81 242 81 175 m 242 1014 q 140 972 182 1014 q 97 869 97 929 l 97 713 q 256 446 97 525 q 399 411 324 411 l 725 408 l 725 389 l 706 386 l 242 386 q 140 344 182 386 q 97 242 97 301 q 140 140 97 182 q 242 97 182 97 l 713 97 q 856 133 782 97 q 1014 399 1014 211 q 854 665 1014 585 q 713 700 785 700 l 406 700 l 386 704 l 386 726 l 869 726 q 972 768 931 726 q 1014 871 1014 810 q 972 972 1014 931 q 869 1014 929 1014 l 242 1014 m 293 518 q 178 713 178 581 l 178 869 q 197 915 178 896 q 242 933 215 933 l 869 933 q 914 915 896 933 q 932 871 932 897 q 914 826 932 844 q 869 807 896 807 l 306 807 l 306 636 l 397 619 l 713 619 q 842 579 779 619 q 932 399 932 521 q 819 206 932 263 q 713 178 764 178 l 242 178 q 197 197 215 178 q 178 242 178 215 q 197 287 178 268 q 242 306 215 306 l 713 306 l 819 322 l 806 400 l 806 478 l 713 492 l 399 492 q 293 518 342 492 m 256 446 z "},"6":{"ha":1167,"x_min":0,"x_max":1111,"o":"m 242 1022 q 350 978 306 1022 q 394 869 394 933 l 394 783 q 438 786 419 786 l 674 786 q 847 742 765 786 q 974 622 928 699 q 1022 438 1022 540 q 840 129 1022 221 q 674 89 760 89 l 399 89 q 125 253 207 89 q 89 399 89 325 l 89 869 q 133 978 89 933 q 242 1022 178 1022 m 439 482 q 394 476 415 482 l 394 401 q 396 394 394 399 l 672 394 q 718 438 718 394 q 672 482 718 481 q 439 482 614 483 m 49 869 l 49 399 q 89 233 49 314 q 399 49 181 49 l 674 49 q 867 98 776 49 q 1010 235 958 147 q 1063 438 1063 322 q 1010 642 1063 550 q 858 782 957 733 q 674 826 769 826 l 435 826 l 435 869 q 378 1006 435 950 q 242 1063 322 1063 q 105 1006 161 1063 q 49 869 49 950 m 161 271 q 129 399 129 335 l 129 869 q 163 949 129 915 q 242 982 196 982 q 322 949 289 982 q 354 869 354 917 l 354 742 l 438 746 l 674 746 q 826 707 754 746 q 940 600 899 668 q 981 438 981 532 q 822 167 981 246 q 674 129 747 129 l 399 129 q 161 271 232 129 m 439 522 l 439 522 q 386 517 411 522 l 354 510 l 354 401 l 363 347 l 396 354 l 672 354 q 758 438 758 354 q 731 506 758 486 l 729 507 l 728 507 q 672 522 701 522 q 439 522 606 524 m 439 442 l 671 442 q 678 440 674 440 l 678 436 q 672 435 669 435 l 435 435 l 435 440 q 439 442 436 442 m 40 869 l 40 399 q 82 231 40 314 q 399 40 176 40 l 674 40 q 871 92 778 40 q 1017 232 964 143 q 1071 438 1071 321 q 1017 646 1071 553 q 861 789 963 739 q 674 835 769 835 l 443 835 l 443 869 q 384 1012 443 953 q 242 1071 325 1071 q 99 1012 158 1071 q 40 869 40 953 m 169 274 q 138 399 138 338 l 138 869 q 168 943 138 913 q 242 974 199 974 q 315 943 285 974 q 346 869 346 913 l 346 732 l 438 738 l 674 738 q 822 700 751 738 q 932 597 893 663 q 974 438 974 528 q 818 174 974 251 q 674 138 746 138 l 399 138 q 169 274 238 138 m 0 869 l 0 399 q 46 213 0 304 q 399 0 151 0 l 674 0 q 891 56 789 0 q 1052 211 993 113 q 1111 438 1111 310 q 1051 667 1111 564 q 879 825 990 769 q 674 875 779 875 l 483 875 q 410 1042 481 974 q 242 1111 340 1111 q 70 1040 140 1111 q 0 869 0 969 m 118 249 q 81 399 81 324 l 81 869 q 128 983 81 936 q 242 1031 175 1031 q 356 983 308 1031 q 403 869 403 936 l 403 794 l 674 794 q 851 749 767 794 q 981 626 935 704 q 1029 438 1029 543 q 843 122 1029 215 q 674 81 760 81 l 399 81 q 118 249 201 81 m 71 1040 m 97 869 l 97 399 q 132 256 97 325 q 399 97 211 97 l 674 97 q 836 138 756 97 q 1014 438 1014 226 q 836 738 1014 649 q 674 778 756 778 l 436 778 q 386 775 413 778 l 386 869 q 344 972 386 929 q 242 1014 301 1014 q 140 972 182 1014 q 97 869 97 929 m 178 399 l 178 869 q 197 915 178 896 q 242 933 215 933 q 287 915 268 933 q 306 869 306 896 l 306 690 l 439 697 l 674 697 q 802 665 740 697 q 898 575 864 632 q 932 438 932 518 q 800 210 932 276 q 674 178 738 178 l 399 178 q 214 276 271 178 q 178 399 178 339 m 133 256 l 132 256 l 133 256 m 439 531 l 439 531 q 385 525 411 531 l 346 517 l 346 401 l 357 339 l 396 346 l 672 346 q 732 363 704 346 l 733 363 l 735 364 q 767 438 767 385 q 735 513 767 492 l 733 514 l 732 514 q 672 531 704 529 q 439 531 604 532 m 438 571 l 439 571 q 378 564 414 571 l 306 550 l 306 399 l 324 290 l 400 306 l 672 306 q 753 328 708 306 l 756 329 l 757 331 q 807 438 807 364 q 757 546 807 513 l 757 547 l 751 550 q 672 571 711 569 q 438 571 596 572 m 393 485 q 439 490 421 490 l 439 490 l 439 490 l 671 490 q 726 438 726 489 q 672 386 726 386 l 390 386 l 386 406 l 386 483 l 393 485 z "},"7":{"ha":1167,"x_min":0,"x_max":1111,"o":"m 983 556 q 1022 399 1022 486 l 1022 242 q 978 133 1022 178 q 869 89 933 89 q 761 133 806 89 q 717 242 717 178 l 717 401 q 710 403 713 403 l 399 403 q 290 447 335 403 q 246 556 246 492 q 290 664 246 619 q 399 708 335 708 l 710 708 q 717 710 713 708 l 717 715 q 710 717 713 717 l 242 717 q 133 761 178 717 q 89 869 89 806 q 133 978 89 933 q 242 1022 178 1022 l 713 1022 q 858 986 786 1022 q 1022 713 1022 904 q 983 556 1022 625 m 242 1063 q 105 1006 161 1063 q 49 869 49 950 q 105 733 49 789 q 242 676 161 676 l 249 676 q 206 556 206 622 q 262 419 206 475 q 399 363 318 363 l 676 363 l 676 242 q 733 105 676 161 q 869 49 789 49 q 1006 105 950 49 q 1063 242 1063 161 l 1063 399 q 1028 556 1063 482 q 1063 713 1063 629 q 876 1022 1063 929 q 713 1063 796 1063 l 242 1063 m 129 869 q 163 949 129 915 q 242 982 196 982 l 713 982 q 840 950 776 982 q 981 713 981 879 q 947 575 981 642 l 938 556 l 947 536 q 981 399 981 469 l 981 242 q 948 163 981 196 q 869 129 915 129 q 790 162 822 129 q 757 242 757 194 l 757 436 l 710 443 l 399 443 q 319 476 351 443 q 288 556 288 508 q 319 635 288 603 q 399 668 351 668 l 710 668 l 763 676 l 757 710 l 757 750 l 710 757 l 242 757 q 162 790 194 757 q 129 869 129 822 m 242 1071 q 99 1012 158 1071 q 40 869 40 953 l 40 869 q 95 730 40 788 q 232 668 150 672 q 197 556 197 618 l 197 556 q 256 413 197 471 q 399 354 314 354 l 668 354 l 668 242 q 726 99 668 157 q 869 40 785 40 q 1012 99 953 40 q 1071 242 1071 158 l 1071 399 q 1036 556 1071 482 q 1071 713 1071 629 q 881 1029 1071 935 q 713 1071 797 1071 l 242 1071 m 138 869 q 168 943 138 913 q 242 974 199 974 l 713 974 q 836 943 775 974 q 974 713 974 875 q 940 579 974 642 l 928 556 l 940 532 q 974 399 974 469 l 974 242 q 943 168 974 199 q 869 138 913 138 q 795 167 825 138 q 765 242 765 197 l 765 443 l 731 447 l 710 451 l 399 451 q 324 481 354 451 q 294 556 294 511 q 324 630 294 600 q 399 660 354 660 l 710 660 l 772 669 l 765 710 l 765 757 l 731 761 l 710 765 l 242 765 q 168 796 199 765 q 138 869 138 826 m 242 1111 q 71 1040 142 1111 q 0 869 0 969 q 71 699 0 769 q 172 639 114 656 q 157 556 157 597 q 227 384 157 454 q 399 314 297 314 l 628 314 l 628 242 q 698 70 628 140 q 869 0 768 0 q 1040 71 969 0 q 1111 242 1111 142 l 1111 399 q 1081 556 1111 479 q 1111 713 1111 632 q 897 1065 1111 958 q 713 1111 806 1111 l 242 1111 m 239 556 q 265 646 239 608 l 307 706 l 235 708 q 125 758 169 711 q 81 869 81 804 q 128 983 81 936 q 242 1031 175 1031 l 713 1031 q 861 993 786 1031 q 1029 713 1029 910 q 1000 572 1029 631 l 992 556 l 1000 539 q 1029 399 1029 481 l 1029 242 q 983 128 1029 175 q 869 81 936 81 q 755 127 801 81 q 708 242 708 174 l 708 394 l 399 394 q 285 441 331 394 q 239 556 239 488 m 242 1014 q 140 972 182 1014 q 97 869 97 929 l 97 869 q 139 767 97 808 q 242 725 181 725 l 725 721 l 725 703 l 706 700 l 399 700 q 296 658 338 700 q 254 556 254 617 q 296 453 254 494 q 399 411 338 411 l 725 408 l 725 242 q 767 139 725 181 q 869 97 808 97 q 972 140 929 97 q 1014 242 1014 182 l 1014 399 q 976 551 1014 494 l 974 556 l 976 560 q 1014 713 1014 615 q 854 979 1014 900 q 713 1014 783 1014 l 242 1014 m 178 869 q 197 915 178 896 q 242 933 215 933 l 713 933 q 818 907 765 933 q 932 713 932 850 q 906 599 932 647 l 882 556 l 906 513 q 932 399 932 464 l 932 242 q 914 197 932 215 q 869 178 896 178 q 824 196 842 178 q 806 242 806 214 l 806 478 l 713 492 l 399 492 q 353 510 371 492 q 336 556 336 528 l 336 556 q 353 601 336 583 q 399 619 371 619 l 713 619 l 819 638 l 806 713 l 806 792 l 713 806 l 242 806 q 197 824 215 806 q 178 869 178 843 m 140 767 z "},"8":{"ha":1167,"x_min":0,"x_max":1111,"o":"m 713 1022 q 858 986 786 1022 q 1022 713 1022 904 q 982 556 1022 625 q 1022 399 1022 486 q 858 125 1022 207 q 713 89 786 89 l 399 89 q 253 125 325 89 q 89 399 89 207 q 129 556 89 486 q 89 713 89 625 q 253 986 89 904 q 399 1022 325 1022 l 713 1022 m 401 718 q 394 717 399 718 l 394 710 q 401 708 397 708 l 710 708 q 717 710 713 708 l 717 717 q 710 718 713 718 l 401 718 m 401 403 q 394 401 399 403 l 394 396 q 401 394 399 394 l 710 394 q 717 396 713 394 l 717 401 q 710 403 713 403 l 401 403 m 399 1063 q 233 1022 314 1063 q 49 713 49 931 l 49 713 q 83 556 49 629 q 49 399 49 482 q 235 89 49 182 q 399 49 315 49 l 713 49 q 876 89 796 49 q 1063 399 1063 182 q 1026 556 1063 482 q 1063 713 1063 629 q 876 1022 1063 929 q 713 1063 796 1063 l 399 1063 m 271 161 q 129 399 129 232 q 164 536 129 475 l 175 556 l 164 575 q 129 713 129 636 q 271 950 129 879 q 399 982 335 982 l 713 982 q 840 950 776 982 q 981 713 981 879 q 947 575 981 633 l 936 556 l 947 536 q 981 399 981 478 q 840 161 981 232 q 713 129 776 129 l 399 129 q 271 161 335 129 m 401 758 l 346 747 l 354 717 l 354 676 l 401 668 l 710 668 l 764 679 l 757 710 l 757 750 l 732 754 l 710 758 l 401 758 m 401 443 l 347 435 l 354 401 l 354 361 l 401 354 l 710 354 l 763 363 l 757 396 l 757 436 l 710 443 l 401 443 m 399 1071 q 231 1029 314 1071 q 40 713 40 935 q 75 556 40 629 q 40 399 40 482 q 231 82 40 176 q 399 40 314 40 l 713 40 q 881 82 797 40 q 1071 399 1071 176 q 1036 556 1071 482 q 1071 713 1071 629 q 881 1029 1071 935 q 713 1071 797 1071 l 399 1071 m 274 168 q 138 399 138 236 q 171 532 138 475 l 185 556 l 171 579 q 138 713 138 636 q 274 942 138 874 q 399 974 338 974 l 713 974 q 836 943 775 974 q 974 713 974 875 q 940 579 974 636 l 926 556 l 940 532 q 974 399 974 475 q 838 169 974 238 q 713 138 774 138 l 399 138 q 274 168 335 138 m 399 1111 q 213 1065 304 1111 q 0 713 0 960 q 32 556 0 632 q 0 399 0 479 q 213 46 0 151 q 399 0 304 0 l 713 0 q 899 46 807 0 q 1111 399 1111 151 q 1079 556 1111 479 q 1111 713 1111 632 q 897 1065 1111 958 q 713 1111 806 1111 l 399 1111 m 249 118 q 81 399 81 201 q 111 539 81 478 l 119 556 l 111 572 q 81 713 81 633 q 249 993 81 910 q 399 1031 324 1031 l 713 1031 q 861 993 786 1031 q 1029 713 1029 910 q 999 572 1029 646 l 992 556 l 999 539 q 1029 399 1029 465 q 863 118 1029 201 q 713 81 788 81 l 399 81 q 249 118 324 81 m 399 1014 q 256 978 328 1014 q 97 713 97 899 q 136 560 97 628 l 138 556 l 136 551 q 97 399 97 483 q 256 132 97 211 q 399 97 325 97 l 713 97 q 856 133 782 97 q 1014 399 1014 211 q 975 551 1014 493 l 972 556 q 975 560 974 556 q 1014 713 1014 618 q 854 979 1014 900 q 713 1014 783 1014 l 399 1014 m 292 204 q 178 399 178 263 q 206 511 178 461 l 231 556 l 206 600 q 178 713 178 650 q 292 906 178 849 q 399 933 347 933 l 713 933 q 818 907 765 933 q 932 713 932 850 q 904 600 932 650 l 879 556 l 904 511 q 932 399 932 461 q 819 206 932 263 q 713 178 764 178 l 399 178 q 292 204 343 178 m 256 132 m 401 767 l 338 754 l 346 717 l 346 669 l 375 665 l 401 660 l 710 660 l 774 674 l 765 710 l 765 757 l 735 761 l 710 767 l 401 767 m 397 807 l 288 785 l 306 713 l 306 636 l 397 619 l 714 619 l 824 642 l 806 715 l 806 790 l 742 801 l 714 807 l 397 807 m 706 726 l 725 722 l 725 704 l 706 700 l 406 700 l 386 704 l 386 722 l 406 726 l 706 726 m 401 451 l 339 442 l 346 401 l 346 354 l 379 350 l 401 346 l 710 346 l 772 356 l 765 396 l 765 443 l 731 447 l 710 451 l 401 451 m 399 492 l 292 475 l 306 397 l 306 319 l 399 306 l 713 306 l 819 322 l 806 400 l 806 478 l 713 492 l 399 492 m 725 408 l 725 389 l 706 386 l 386 389 l 386 408 l 404 411 l 725 408 z "},"9":{"ha":1167,"x_min":0,"x_max":1111,"o":"m 986 858 q 1022 713 1022 786 l 1022 242 q 978 133 1022 178 q 869 89 933 89 q 761 133 806 89 q 717 242 717 178 l 717 326 q 674 325 692 325 l 438 325 q 265 369 346 325 q 138 489 183 413 q 89 674 89 571 q 271 981 89 890 q 438 1022 354 1022 l 713 1022 q 986 858 904 1022 m 439 717 q 393 674 393 717 q 439 629 393 631 q 672 629 497 628 q 717 635 696 629 l 717 710 q 715 717 717 713 l 439 717 m 438 1063 q 244 1013 335 1063 q 101 876 153 964 q 49 674 49 789 q 101 469 49 561 q 253 329 154 378 q 438 285 342 285 l 676 285 l 676 242 q 733 105 676 161 q 869 49 789 49 q 1006 105 950 49 q 1063 242 1063 161 l 1063 713 q 1022 876 1063 796 q 713 1063 929 1063 l 438 1063 m 129 674 q 289 944 129 865 q 438 982 364 982 l 713 982 q 950 840 878 982 q 981 713 981 781 l 981 242 q 948 163 981 196 q 869 129 915 129 q 790 162 822 129 q 757 242 757 194 l 757 369 l 674 365 l 438 365 q 286 403 357 365 q 129 674 129 486 m 1022 878 m 715 757 l 439 757 q 383 742 408 757 l 382 742 l 381 740 q 353 674 353 722 q 439 589 353 592 q 672 589 494 588 q 725 594 700 589 l 757 601 l 757 710 l 749 763 l 715 757 m 439 676 l 676 676 l 676 671 q 440 669 533 667 q 433 671 438 671 l 433 675 q 439 676 435 675 m 438 1071 q 240 1020 333 1071 q 94 881 147 969 q 40 674 40 792 q 94 465 40 558 q 249 322 149 372 q 438 276 340 276 l 668 276 l 668 242 q 727 99 668 158 q 869 40 786 40 q 1012 99 953 40 q 1071 242 1071 158 l 1071 713 q 1029 881 1071 797 q 713 1071 935 1071 l 438 1071 m 178 517 q 143 597 150 563 q 138 674 138 621 q 293 938 138 860 q 438 974 365 974 l 713 974 q 942 836 871 974 q 974 713 974 774 l 974 242 q 943 168 974 199 q 869 138 913 138 q 796 168 826 138 q 765 242 765 199 l 765 378 l 674 374 l 438 374 q 288 412 358 374 q 178 517 218 450 m 1029 881 m 438 1111 q 219 1056 322 1111 q 58 901 117 1000 q 0 674 0 803 q 60 444 0 547 q 231 286 119 342 q 438 236 331 236 l 628 236 q 701 69 631 138 q 869 0 771 0 q 1041 71 971 0 q 1111 242 1111 142 l 1111 713 q 1065 899 1111 807 q 713 1111 960 1111 l 438 1111 m 81 674 q 267 989 81 896 q 438 1031 350 1031 l 713 1031 q 993 863 911 1031 q 1029 713 1029 789 l 1029 242 q 983 128 1029 175 q 869 81 936 81 q 756 128 803 81 q 708 242 708 175 l 708 317 l 438 317 q 261 363 344 317 q 81 674 81 458 m 438 1014 q 275 974 356 1014 q 97 674 97 885 q 275 372 97 461 q 438 333 353 333 l 675 333 q 725 335 699 333 l 725 242 q 767 139 725 181 q 869 97 808 97 q 972 140 929 97 q 1014 242 1014 182 l 1014 713 q 978 856 1014 783 q 713 1014 899 1014 l 438 1014 m 213 537 q 195 566 213 537 q 178 674 178 594 q 311 901 178 835 q 438 933 375 933 l 713 933 q 906 819 849 933 q 932 713 932 767 l 932 242 q 914 197 932 215 q 869 178 896 178 q 824 197 843 178 q 806 242 806 215 l 806 421 l 672 414 l 438 414 q 308 447 369 414 q 213 537 247 479 m 275 372 m 715 765 l 439 765 q 379 749 407 765 l 378 749 l 376 747 q 344 674 344 726 q 376 599 344 619 l 378 597 l 379 597 q 439 581 407 582 q 672 581 494 579 q 726 586 701 581 l 765 594 l 765 710 l 756 772 l 715 765 m 711 806 l 439 806 q 358 783 403 806 l 356 782 l 354 781 q 304 674 304 747 q 356 564 304 597 l 358 561 q 439 540 396 542 q 674 540 501 539 q 735 547 700 540 l 806 561 l 806 713 l 789 819 l 711 806 m 440 621 q 385 674 385 622 q 439 725 385 725 l 722 725 l 725 706 l 725 628 l 718 626 q 672 621 692 621 q 440 621 538 619 z "}," ":{"ha":694,"x_min":0,"x_max":0,"o":""},"!":{"ha":508,"x_min":0,"x_max":483,"o":"m 394 399 q 383 340 394 368 q 394 281 394 311 l 394 242 q 350 133 394 178 q 242 89 306 89 q 133 133 178 89 q 89 242 89 178 l 89 281 q 101 340 89 311 q 89 399 89 368 l 89 869 q 133 978 89 933 q 242 1022 178 1022 q 350 978 306 1022 q 394 869 394 933 l 394 399 m 49 869 l 49 399 q 58 340 49 371 q 49 281 49 308 l 49 242 q 105 105 49 161 q 242 49 161 49 q 378 105 322 49 q 435 242 435 161 l 435 281 q 425 340 435 308 q 435 399 435 371 l 435 869 q 378 1006 435 950 q 242 1063 322 1063 q 105 1006 161 1063 q 49 869 49 950 m 129 242 l 129 281 q 138 324 129 304 l 144 340 l 138 356 q 129 399 129 374 l 129 869 q 163 949 129 915 q 242 982 196 982 q 322 949 289 982 q 354 869 354 917 l 354 399 q 346 356 354 374 l 339 340 l 346 324 q 354 281 354 304 l 354 242 q 322 162 354 194 q 242 129 289 129 q 163 163 196 129 q 129 242 129 196 m 40 869 l 40 399 q 50 340 40 371 q 40 281 40 308 l 40 242 q 99 99 40 158 q 242 40 158 40 q 384 99 325 40 q 443 242 443 158 l 443 281 q 433 340 443 308 q 443 399 443 371 l 443 869 q 384 1012 443 953 q 242 1071 325 1071 q 99 1012 158 1071 q 40 869 40 953 m 138 242 l 138 281 q 146 321 138 303 l 153 340 l 146 358 q 138 399 138 381 l 138 869 q 168 943 138 913 q 242 974 199 974 q 315 943 285 974 q 346 869 346 913 l 346 399 q 338 358 346 381 l 331 340 l 338 321 q 346 281 346 297 l 346 242 q 315 168 346 199 q 242 138 285 138 q 168 168 199 138 q 138 242 138 199 m 71 1040 l 71 1040 q 0 869 0 969 l 0 399 q 8 340 0 372 q 0 281 0 307 l 0 242 q 71 71 0 142 q 242 0 142 0 l 242 0 q 413 71 342 0 q 483 242 483 142 l 483 281 q 475 340 483 307 q 483 399 483 372 l 483 869 q 413 1040 483 969 q 242 1111 342 1111 q 71 1040 142 1111 m 242 1031 q 356 983 308 1031 q 403 869 403 936 l 403 399 q 394 351 403 385 l 392 340 l 394 328 q 403 281 403 290 l 403 242 q 356 128 403 175 q 242 81 308 81 q 128 128 175 81 q 81 242 81 175 l 81 281 q 89 328 81 303 l 93 340 l 89 351 q 81 399 81 374 l 81 869 q 128 983 81 936 q 242 1031 175 1031 m 97 869 l 97 399 q 108 343 97 365 l 110 340 l 108 336 q 97 281 97 303 l 97 242 q 140 140 97 182 q 242 97 182 97 q 344 140 301 97 q 386 242 386 182 l 386 281 q 375 336 386 303 l 374 340 q 375 343 374 340 q 386 399 386 369 l 386 869 q 344 972 386 929 q 242 1014 301 1014 q 140 972 182 1014 q 97 869 97 929 m 178 242 l 178 281 q 183 306 178 292 l 197 340 l 183 374 q 178 399 178 388 l 178 869 q 197 915 178 896 q 242 933 215 933 q 287 915 268 933 q 306 869 306 896 l 306 399 q 300 374 306 388 l 286 340 l 300 306 q 306 281 306 292 l 306 242 q 287 197 306 215 q 242 178 268 178 q 197 197 215 178 q 178 242 178 215 z "},"?":{"ha":1001,"x_min":0,"x_max":953,"o":"m 864 713 q 703 439 864 521 q 556 403 632 403 l 513 403 l 513 399 q 500 340 513 368 q 513 281 513 311 l 513 242 q 468 133 513 178 q 360 89 424 89 q 251 133 296 89 q 207 242 207 178 l 207 281 q 218 340 207 311 q 207 399 207 368 l 207 478 q 292 649 207 583 q 478 708 368 708 l 551 708 q 560 710 556 708 l 560 715 q 551 717 556 717 l 242 717 q 133 761 178 717 q 89 869 89 806 q 133 978 89 933 q 242 1022 178 1022 l 556 1022 q 703 986 632 1022 q 864 713 864 904 m 242 1063 q 105 1006 161 1063 q 49 869 49 950 q 105 733 49 789 q 242 676 161 676 l 261 676 q 167 478 167 597 l 167 399 q 176 340 167 371 q 167 281 167 308 l 167 242 q 223 105 167 161 q 360 49 279 49 q 497 105 440 49 q 553 242 553 161 l 553 281 q 543 340 553 308 q 549 363 546 347 l 556 363 q 721 403 642 363 q 904 713 904 496 q 721 1022 904 931 q 556 1063 640 1063 l 242 1063 m 129 869 q 163 949 129 915 q 242 982 196 982 l 556 982 q 683 950 621 982 q 824 713 824 879 q 685 475 824 546 q 556 443 622 443 l 472 443 l 472 399 q 464 356 472 374 l 457 340 l 464 324 q 472 281 472 304 l 472 242 q 439 163 472 196 q 360 129 406 129 q 280 162 313 129 q 247 242 247 194 l 247 281 q 256 324 247 304 l 263 340 l 256 356 q 247 399 247 374 l 247 478 q 321 619 247 565 q 478 668 386 668 l 551 668 l 606 675 l 600 710 l 600 750 l 551 757 l 242 757 q 162 790 194 757 q 129 869 129 822 m 242 1071 q 99 1012 158 1071 q 40 869 40 953 q 98 728 40 786 q 239 668 156 669 q 158 478 158 589 l 158 399 q 168 340 158 371 q 158 281 158 308 l 158 242 q 217 99 158 158 q 360 40 276 40 q 502 99 443 40 q 561 242 561 158 l 561 281 q 551 340 561 308 q 556 354 553 344 q 724 396 640 354 q 913 713 913 490 q 724 1029 913 935 q 556 1071 640 1071 l 242 1071 m 138 869 q 168 943 138 913 q 242 974 199 974 l 556 974 q 681 943 619 974 q 815 713 815 876 q 681 482 815 550 q 556 451 619 451 l 464 451 l 464 399 q 456 358 464 381 l 449 340 l 456 321 q 464 281 464 297 l 464 242 q 433 168 464 199 q 360 138 403 138 q 286 168 317 138 q 256 242 256 199 l 256 281 q 264 321 256 297 l 271 340 l 264 358 q 256 399 256 381 l 256 478 q 326 614 256 563 q 478 660 389 660 l 551 660 l 614 668 l 608 710 l 608 758 l 551 765 l 242 765 q 168 796 199 765 q 138 869 138 826 m 242 1111 q 71 1040 142 1111 q 0 869 0 969 l 0 869 q 71 699 0 769 q 165 640 111 658 q 118 478 118 565 l 118 399 q 126 339 118 372 q 118 281 118 307 l 118 242 q 189 71 118 142 q 360 0 260 0 q 531 71 460 0 q 601 242 601 142 l 601 281 q 599 317 601 297 q 743 360 671 324 q 953 713 953 465 q 742 1065 953 960 q 556 1111 650 1111 l 242 1111 m 199 242 l 199 281 q 207 328 199 290 l 210 340 l 207 351 q 199 399 199 385 l 199 478 q 244 613 199 561 l 328 706 l 240 708 q 126 757 172 711 q 81 869 81 803 q 128 983 81 936 q 242 1031 175 1031 l 556 1031 q 706 993 631 1031 q 872 713 872 910 q 706 432 872 517 q 556 394 632 394 l 525 394 l 508 339 l 513 328 q 521 281 521 306 l 521 242 q 474 128 521 175 q 360 81 426 81 q 246 128 293 81 q 199 242 199 175 m 242 1014 q 140 972 182 1014 q 97 869 97 929 q 139 767 97 808 q 242 725 181 725 l 568 722 l 568 703 l 549 700 l 478 700 q 258 604 335 700 q 215 478 215 550 l 215 399 q 226 343 215 365 l 228 340 l 226 336 q 215 281 215 303 l 215 242 q 258 140 215 182 q 360 97 300 97 q 462 140 419 97 q 504 242 504 182 l 504 281 q 493 336 504 303 l 492 340 l 493 343 q 504 399 504 365 l 504 411 l 556 411 q 699 446 629 411 q 856 713 856 525 q 699 979 856 901 q 556 1014 629 1014 l 242 1014 m 178 869 q 197 915 178 896 q 242 933 215 933 l 556 933 q 713 872 651 933 q 775 713 775 810 q 663 518 775 575 q 556 492 610 492 l 424 492 l 424 399 q 418 374 424 388 l 404 340 l 418 306 q 424 281 424 292 l 424 242 q 405 197 424 215 q 360 178 386 178 q 315 197 333 178 q 296 242 296 215 l 296 281 q 300 306 296 296 l 315 340 l 300 374 q 296 399 296 386 l 296 478 q 354 586 296 546 q 478 619 406 619 l 554 619 l 660 633 l 649 713 l 649 793 l 554 806 l 242 806 q 197 824 215 806 q 178 869 178 843 m 140 767 z "},"A":{"ha":1167,"x_min":0,"x_max":1111,"o":"m 1022 242 q 938 106 1022 149 q 869 89 904 89 q 732 174 774 89 l 657 325 l 454 325 l 378 174 q 242 89 335 89 q 174 106 207 89 q 89 242 89 147 q 106 310 89 276 l 419 938 q 556 1022 463 1022 q 692 938 649 1022 l 1006 310 q 1022 242 1022 276 m 383 956 l 69 328 q 49 242 49 286 q 156 69 49 122 q 242 49 197 49 q 414 156 360 49 l 479 285 l 632 285 l 696 156 q 869 49 749 49 q 956 69 914 49 q 1063 242 1063 124 q 1042 328 1063 286 l 728 956 q 556 1063 674 1063 q 383 956 438 1063 m 192 142 q 129 242 129 172 q 142 290 129 265 l 456 919 q 556 982 486 982 q 656 919 625 982 l 969 292 q 981 242 981 269 q 919 142 981 172 q 869 129 894 129 q 769 192 801 129 l 682 365 l 429 365 l 342 192 q 242 129 310 129 q 192 142 217 129 m 375 960 l 63 331 q 40 242 40 286 q 151 63 40 118 q 242 40 196 40 q 422 151 368 40 l 483 276 l 626 276 l 689 151 q 869 40 744 40 q 960 63 915 40 q 1071 242 1071 118 q 1049 332 1071 288 l 735 960 q 556 1071 679 1071 q 375 960 431 1071 m 194 149 q 138 242 138 178 q 149 288 138 265 l 463 917 q 556 974 490 974 q 649 917 621 974 l 963 288 q 974 242 974 265 q 917 149 974 178 q 869 138 894 138 q 776 194 806 138 l 686 374 l 424 374 l 335 194 q 242 138 307 138 q 194 149 217 138 m 339 978 l 25 349 q 0 242 0 299 q 133 26 0 93 q 242 0 186 0 q 458 133 393 0 l 508 236 l 601 236 l 653 133 q 869 0 719 0 q 978 26 925 0 q 1111 242 1111 93 q 1085 350 1111 297 l 771 978 q 556 1111 704 1111 q 339 978 406 1111 m 556 1031 q 699 942 654 1031 l 1013 314 q 1029 242 1029 281 q 942 99 1029 142 q 869 81 906 81 q 725 169 769 81 l 651 317 l 458 317 l 385 169 q 242 81 340 81 q 169 99 206 81 q 81 242 81 143 q 97 313 81 279 l 411 942 q 556 1031 456 1031 m 426 935 l 113 306 q 97 242 97 275 q 176 113 97 153 l 176 113 q 242 97 207 97 q 371 176 332 97 l 449 333 l 661 333 l 740 176 q 869 97 781 97 q 935 113 904 97 q 1014 242 1014 151 q 997 307 1014 274 l 685 935 q 556 1014 646 1014 q 426 935 465 1014 m 178 242 q 185 268 178 254 l 499 899 q 556 933 515 933 q 613 899 596 933 l 925 269 q 932 242 932 256 q 914 197 932 215 q 869 178 896 178 q 813 213 829 178 l 713 414 l 399 414 l 299 213 q 242 178 282 178 q 196 196 214 178 q 178 242 178 214 z "},"B":{"ha":1001,"x_min":0,"x_max":953,"o":"m 438 1022 q 604 988 526 1022 q 736 882 689 950 q 786 713 786 810 q 775 621 786 664 q 864 399 864 535 q 703 125 864 206 q 556 89 631 89 l 242 89 q 133 133 178 89 q 89 242 89 178 l 89 869 q 133 978 89 933 q 242 1022 178 1022 l 438 1022 m 394 718 l 394 708 l 479 708 q 436 718 458 718 l 394 718 m 394 403 l 394 394 l 551 394 q 560 396 556 394 l 560 401 q 550 403 556 403 l 556 403 q 538 404 547 403 q 515 403 526 403 l 394 403 m 242 1063 q 105 1006 161 1063 q 49 869 49 950 l 49 242 q 105 105 49 161 q 242 49 161 49 l 556 49 q 721 89 640 49 q 904 399 904 181 q 818 632 904 536 q 826 713 826 675 q 769 906 826 822 q 608 1029 711 989 q 438 1063 525 1063 l 242 1063 m 129 242 l 129 869 q 163 949 129 915 q 242 982 196 982 l 438 982 q 578 954 508 982 q 746 713 746 888 q 736 631 746 669 l 731 608 l 747 592 q 824 399 824 515 q 685 161 824 231 q 556 129 621 129 l 242 129 q 163 163 196 129 q 129 242 129 196 m 354 758 l 354 668 l 479 668 l 497 744 q 436 758 468 758 l 354 758 m 533 444 l 515 443 l 354 443 l 354 354 l 551 354 l 606 361 l 600 396 l 600 438 l 569 440 q 556 443 565 440 l 556 443 l 540 444 l 533 444 m 550 363 l 550 363 l 550 363 m 242 1071 q 99 1012 158 1071 q 40 869 40 953 l 40 242 q 99 99 40 158 q 242 40 158 40 l 556 40 q 724 82 640 40 q 913 399 913 176 q 828 635 913 536 q 835 713 835 676 q 776 909 835 825 q 611 1036 717 993 q 438 1071 525 1071 l 242 1071 m 138 242 l 138 869 q 168 943 138 913 q 242 974 199 974 l 438 974 q 575 947 508 974 q 738 713 738 882 q 729 632 738 664 l 722 606 l 742 586 q 815 399 815 513 q 681 168 815 235 q 556 138 619 138 l 242 138 q 168 168 199 138 q 138 242 138 199 m 242 1111 q 71 1040 142 1111 q 0 869 0 969 l 0 242 q 71 71 0 142 q 242 0 142 0 l 556 0 q 743 46 651 0 q 953 399 953 151 q 869 644 953 539 q 875 713 875 683 q 809 932 875 838 q 626 1074 743 1026 q 438 1111 533 1111 l 242 1111 m 81 242 l 81 869 q 128 983 81 936 q 242 1031 175 1031 l 438 1031 q 607 994 528 1031 q 742 886 693 956 q 794 713 794 811 q 788 642 794 690 l 785 622 l 797 608 q 872 399 872 525 q 706 118 872 201 q 556 81 631 81 l 242 81 q 128 128 175 81 q 81 242 81 175 m 242 1014 q 140 972 182 1014 q 97 869 97 929 l 97 242 q 140 140 97 182 q 242 97 182 97 l 556 97 q 699 132 629 97 q 856 399 856 210 q 769 615 856 529 l 767 618 l 768 622 q 778 713 778 665 q 590 985 778 910 q 438 1014 518 1014 l 242 1014 m 178 242 l 178 869 q 197 915 178 896 q 242 933 215 933 l 438 933 q 663 831 592 933 q 697 713 697 781 q 689 642 697 678 l 678 593 l 714 557 q 775 399 775 496 q 663 206 775 263 q 556 178 607 178 l 242 178 q 197 197 215 178 q 178 242 178 215 m 140 140 m 346 767 l 346 660 l 479 660 l 501 751 q 436 767 469 767 l 346 767 m 306 807 l 306 619 l 511 619 l 547 774 l 519 788 q 436 807 481 807 l 306 807 m 436 726 q 453 725 442 726 l 447 700 l 386 700 l 386 726 l 436 726 m 533 453 l 515 451 l 346 451 l 346 346 l 551 346 l 614 354 l 608 396 l 608 444 l 572 449 q 556 450 560 450 l 556 451 l 542 453 l 533 453 m 550 354 m 540 493 l 532 493 q 515 492 518 493 l 306 492 l 306 306 l 554 306 l 660 319 l 649 399 l 649 481 l 576 489 q 558 492 569 489 l 540 493 m 540 413 q 553 411 542 411 l 550 411 l 568 408 l 568 389 l 549 386 l 386 386 l 386 411 q 517 411 433 410 q 535 413 525 411 q 540 413 538 413 m 544 314 l 546 314 l 553 394 l 551 394 l 544 314 m 553 394 z "},"C":{"ha":1117,"x_min":0,"x_max":1064,"o":"m 556 1022 q 715 994 632 1022 q 950 817 868 944 q 975 733 975 778 q 906 606 975 650 q 822 581 867 581 q 694 651 740 581 q 556 717 657 711 q 394 556 394 708 q 556 394 394 403 q 694 460 657 400 q 822 531 740 531 q 906 506 867 531 q 975 378 975 461 q 950 294 975 333 q 715 117 868 167 q 556 89 632 89 q 325 146 433 89 q 150 310 211 206 q 89 556 89 415 q 331 967 89 846 q 556 1022 442 1022 m 115 821 q 57 683 69 743 q 49 556 49 644 q 313 108 49 240 q 556 49 432 49 q 728 79 636 49 q 985 272 897 136 q 1015 378 1015 319 q 926 540 1015 483 q 893 556 917 546 q 926 571 904 560 q 1015 733 1015 628 q 985 839 1015 792 q 728 1032 897 975 q 556 1063 636 1063 q 301 999 421 1063 q 115 821 182 935 m 185 332 q 136 447 146 397 q 129 556 129 481 q 349 931 129 821 q 556 982 451 982 q 703 956 625 982 q 917 794 843 908 q 935 733 935 767 q 883 639 935 672 q 822 621 856 621 q 728 674 761 621 q 558 757 675 757 l 554 757 q 442 726 497 757 q 354 556 354 678 q 442 385 354 433 q 554 354 497 354 l 558 354 q 728 438 675 354 q 822 490 761 490 q 883 472 856 490 q 935 378 935 439 q 917 317 935 344 q 703 156 843 203 q 556 129 625 129 q 342 183 443 129 q 185 332 240 238 m 435 556 q 556 676 435 668 q 660 629 633 671 q 749 556 693 578 q 660 482 693 533 q 556 435 633 440 q 435 556 435 443 m 40 556 q 107 288 40 404 q 308 100 176 165 q 556 40 428 40 q 731 71 639 40 q 992 268 901 128 q 1024 378 1024 318 q 915 556 1024 499 q 1024 733 1024 613 q 992 843 1024 793 q 731 1040 901 983 q 556 1071 639 1071 q 299 1006 421 1071 q 106 820 172 938 q 40 556 40 703 m 350 189 q 247 257 281 224 q 193 335 225 279 q 138 556 138 429 q 353 924 138 817 q 556 974 453 974 q 700 949 626 974 q 910 790 838 903 q 926 733 926 764 q 879 646 926 676 q 822 629 853 629 q 735 678 765 629 q 558 765 679 765 l 553 765 q 438 733 494 765 q 346 556 346 682 q 438 378 346 429 q 553 346 494 346 l 558 346 q 735 433 679 346 q 822 482 765 482 q 879 465 853 482 q 926 378 926 435 q 910 321 926 347 q 700 163 838 208 q 556 138 626 138 q 350 189 451 138 m 443 556 q 556 668 443 660 q 653 625 628 663 q 726 556 682 579 q 653 486 682 532 q 556 443 628 449 q 443 556 443 451 m 75 847 q 0 556 0 718 q 74 267 0 394 q 290 64 150 133 q 556 0 418 0 q 743 32 647 0 q 1025 246 928 94 q 1064 378 1064 307 q 983 556 1064 485 q 1064 733 1064 626 q 1026 864 1064 806 q 743 1079 928 1017 q 556 1111 647 1111 q 279 1042 408 1111 q 75 847 146 971 m 556 1031 q 718 1001 631 1031 q 957 821 875 950 q 983 733 983 779 q 910 599 983 640 q 900 593 908 597 l 826 556 l 910 513 q 983 378 983 475 q 957 290 983 332 q 718 110 875 161 q 556 81 631 81 q 321 140 433 81 q 81 556 81 268 q 143 805 81 694 q 326 975 206 915 q 556 1031 438 1031 m 158 799 q 97 556 97 693 q 157 317 97 422 q 336 151 219 206 q 556 97 449 97 q 713 125 629 97 q 943 299 864 175 q 967 378 967 335 q 901 499 967 457 q 822 522 864 522 q 731 488 764 522 q 669 421 699 454 q 556 386 628 386 l 556 386 q 457 414 506 386 q 386 556 386 454 q 457 699 386 660 q 556 725 504 725 l 556 725 q 671 689 629 724 q 729 624 700 656 q 822 589 764 589 q 901 613 864 589 q 967 733 967 654 q 944 813 967 778 q 713 986 865 936 q 556 1014 629 1014 q 329 957 436 1014 q 158 799 217 897 m 178 556 q 371 888 178 792 q 556 933 463 933 q 688 910 617 933 q 876 768 811 868 q 886 733 886 753 q 867 688 886 707 q 822 669 849 669 q 769 700 789 669 q 561 806 701 806 l 551 806 q 418 768 485 806 q 306 556 306 704 q 417 343 306 406 q 551 306 485 306 l 561 306 q 769 413 701 306 q 822 442 788 442 q 867 423 849 442 q 886 378 886 404 q 875 342 886 358 q 688 201 811 243 q 556 178 617 178 q 369 224 461 178 q 178 556 178 319 m 553 708 q 403 556 403 708 q 465 428 403 463 q 553 403 511 403 l 558 403 q 688 465 647 403 q 746 519 710 500 l 811 556 l 746 592 q 688 647 711 611 q 558 708 647 708 l 553 708 m 483 556 q 500 610 483 594 q 556 626 517 625 q 618 604 601 622 q 658 556 638 581 q 618 507 638 531 q 556 485 601 489 q 500 501 517 486 q 483 556 483 517 z "},"D":{"ha":1043,"x_min":0,"x_max":993,"o":"m 399 1022 q 644 967 528 1022 q 835 806 769 908 q 904 556 904 697 q 663 144 904 265 q 438 89 551 89 l 242 89 q 133 133 178 89 q 89 242 89 178 l 89 869 q 133 978 89 933 q 242 1022 178 1022 l 399 1022 m 394 717 l 394 394 l 436 394 q 532 419 488 394 q 599 556 599 457 q 519 689 599 650 q 399 717 463 717 l 394 717 m 242 1063 q 105 1006 161 1063 q 49 869 49 950 l 49 242 q 105 105 49 161 q 242 49 161 49 l 438 49 q 692 113 572 49 q 878 290 811 176 q 944 556 944 404 q 869 828 944 711 q 653 1007 794 944 q 399 1063 528 1063 l 242 1063 m 129 242 l 129 869 q 163 949 129 915 q 242 982 196 982 l 399 982 q 625 931 515 982 q 801 783 742 876 q 864 556 864 686 q 644 181 864 290 q 438 129 542 129 l 242 129 q 163 163 196 129 q 129 242 129 196 m 354 757 l 354 354 l 436 354 q 551 385 497 354 q 639 556 639 433 q 538 725 639 676 q 399 757 471 757 l 354 757 m 435 671 q 558 556 558 654 q 436 435 558 435 l 435 435 l 435 671 m 242 1071 q 99 1012 158 1071 q 40 869 40 953 l 40 242 q 99 99 40 158 q 242 40 158 40 l 438 40 q 695 106 574 40 q 885 288 817 172 q 953 556 953 403 q 876 831 953 713 q 657 1014 800 950 q 399 1071 531 1071 l 242 1071 m 138 242 l 138 869 q 168 943 138 913 q 242 974 199 974 l 399 974 q 621 924 514 974 q 794 779 736 871 q 856 556 856 683 q 640 188 856 294 q 438 138 540 138 l 242 138 q 168 168 199 138 q 138 242 138 199 m 242 1111 q 71 1040 142 1111 q 0 869 0 969 l 0 242 q 71 71 0 142 q 242 0 142 0 l 438 0 q 715 70 583 0 q 918 264 846 140 q 993 556 993 393 q 910 853 993 724 q 674 1051 828 983 q 399 1111 539 1111 l 242 1111 m 81 242 l 81 869 q 128 983 81 936 q 242 1031 175 1031 l 399 1031 q 647 974 528 1031 q 842 810 775 913 q 913 556 913 700 q 851 308 913 417 q 667 136 788 196 q 438 81 556 81 l 242 81 q 128 128 175 81 q 81 242 81 175 m 242 1014 q 140 972 182 1014 q 97 869 97 929 l 97 242 q 140 140 97 182 q 242 97 182 97 l 438 97 q 664 154 557 97 q 836 316 776 214 q 896 556 896 418 q 633 963 896 846 q 399 1014 518 1014 l 242 1014 m 178 242 l 178 869 q 197 915 178 896 q 242 933 215 933 l 399 933 q 603 889 506 933 q 761 756 707 840 q 815 556 815 672 q 622 224 815 321 q 438 178 531 178 l 242 178 q 197 197 215 178 q 178 242 178 215 m 140 140 m 346 765 l 346 346 l 436 346 q 556 378 499 346 q 647 556 647 429 q 540 732 647 681 q 399 765 471 765 l 346 765 m 443 663 q 550 556 550 639 q 443 444 550 453 l 443 663 m 306 806 l 306 306 l 436 306 q 575 342 510 306 q 688 556 688 404 q 558 768 688 706 q 400 806 481 806 l 306 806 m 399 725 q 524 696 463 725 q 607 556 607 656 q 536 413 607 453 q 436 386 490 388 q 386 386 436 386 l 386 725 l 399 725 m 403 401 l 446 404 q 590 556 590 414 q 451 701 590 674 l 403 711 l 403 401 m 483 607 q 510 556 510 593 q 483 496 510 508 l 483 607 z "},"E":{"ha":1001,"x_min":0,"x_max":953,"o":"m 394 401 l 394 396 q 401 394 399 394 l 713 394 q 820 350 776 394 q 864 242 864 306 q 820 133 864 178 q 713 89 776 89 l 399 89 q 253 125 325 89 q 89 399 89 207 q 129 556 89 486 q 89 713 89 625 q 253 986 89 904 q 399 1022 325 1022 l 713 1022 q 820 978 776 1022 q 864 871 864 935 q 820 763 864 807 q 713 718 776 718 l 401 718 q 394 717 399 718 l 394 710 q 401 708 397 708 l 713 708 q 820 664 776 708 q 864 556 864 619 q 820 447 864 492 q 713 403 776 403 l 401 403 q 394 401 399 403 m 399 1063 q 233 1022 314 1063 q 49 713 49 931 q 83 556 49 629 q 49 399 49 482 q 235 89 49 182 q 399 49 315 49 l 713 49 q 849 105 793 49 q 904 242 904 161 q 825 399 904 339 q 904 556 904 458 q 824 713 904 654 q 904 871 904 772 q 849 1007 904 951 q 713 1063 793 1063 l 399 1063 m 271 161 q 129 399 129 232 q 164 536 129 475 l 175 556 l 164 575 q 129 713 129 636 q 271 950 129 879 q 399 982 335 982 l 713 982 q 792 950 760 982 q 824 871 824 918 q 792 791 824 824 q 713 758 760 758 l 401 758 l 346 747 l 354 717 l 354 676 l 401 668 l 713 668 q 792 635 760 668 q 824 556 824 603 q 792 476 824 508 q 713 443 760 443 l 401 443 l 347 435 l 354 401 l 354 361 l 401 354 l 713 354 q 792 322 760 354 q 824 242 824 289 q 792 162 824 194 q 713 129 760 129 l 399 129 q 271 161 335 129 m 399 1071 q 231 1029 314 1071 q 40 713 40 935 q 75 556 40 629 q 40 399 40 482 l 40 399 q 231 82 40 176 q 399 40 314 40 l 713 40 q 854 99 796 40 q 913 242 913 158 q 838 399 913 336 q 913 556 913 461 q 836 713 913 651 q 913 871 913 775 q 854 1013 913 954 q 713 1071 796 1071 l 399 1071 m 274 168 q 138 399 138 236 q 171 532 138 475 l 185 556 l 171 579 q 138 713 138 636 q 274 942 138 874 q 399 974 338 974 l 713 974 q 785 944 756 974 q 815 871 815 914 q 785 797 815 828 q 713 767 756 767 l 401 767 l 338 754 l 346 717 l 346 669 l 375 665 l 401 660 l 713 660 q 785 629 756 660 q 815 556 815 599 q 785 482 815 513 q 713 451 756 451 l 401 451 l 339 442 l 346 401 l 346 354 l 379 350 l 401 346 l 713 346 q 785 315 756 346 q 815 242 815 285 q 785 168 815 199 q 713 138 756 138 l 399 138 q 274 168 335 138 m 399 1111 q 213 1065 304 1111 q 0 713 0 960 q 32 556 0 632 q 0 399 0 479 q 213 46 0 151 q 399 0 304 0 l 713 0 q 883 70 813 0 q 953 242 953 140 q 894 399 953 331 q 953 556 953 467 q 893 713 953 644 q 953 871 953 781 q 883 1041 953 971 q 713 1111 813 1111 l 399 1111 m 249 118 q 81 399 81 201 q 111 539 81 478 l 119 556 l 111 572 q 81 713 81 633 q 249 993 81 910 q 399 1031 324 1031 l 713 1031 q 826 984 779 1031 q 872 871 872 938 q 826 757 872 804 l 815 749 l 769 713 l 826 669 q 872 556 872 622 q 826 442 872 489 l 817 435 l 772 399 l 826 356 q 872 242 872 308 q 826 128 872 175 q 713 81 779 81 l 399 81 q 249 118 324 81 m 399 1014 q 256 978 328 1014 q 97 713 97 899 q 136 560 97 628 l 138 556 l 136 551 q 97 399 97 483 q 256 132 97 211 q 399 97 325 97 l 713 97 q 814 140 772 97 q 856 242 856 182 q 814 344 856 301 q 713 386 772 386 l 386 389 l 386 408 l 404 411 l 713 411 q 814 453 772 411 q 856 556 856 496 q 814 658 856 615 q 713 700 772 700 l 406 700 l 386 704 l 386 722 l 406 726 l 713 726 q 815 768 774 726 q 856 871 856 810 q 814 972 856 931 q 713 1014 772 1014 l 399 1014 m 292 204 q 178 399 178 261 q 206 511 178 461 l 231 556 l 206 600 q 178 713 178 650 q 292 906 178 849 q 399 933 347 933 l 713 933 q 757 915 739 933 q 775 871 775 897 q 757 826 775 844 q 713 807 739 807 l 397 807 l 288 785 l 306 713 l 306 636 l 397 619 l 713 619 q 757 601 739 619 q 775 556 775 582 q 757 510 775 529 q 713 492 739 492 l 399 492 l 292 475 l 306 397 l 306 319 l 399 306 l 713 306 q 757 287 739 306 q 775 242 775 268 q 757 197 775 215 q 713 178 739 178 l 399 178 q 292 204 344 178 m 256 132 z "},"F":{"ha":1001,"x_min":0,"x_max":953,"o":"m 864 556 q 820 447 864 492 q 713 403 776 403 l 394 403 l 394 242 q 350 133 394 178 q 242 89 306 89 q 133 133 178 89 q 89 242 89 178 l 89 713 q 125 858 89 786 q 399 1022 207 1022 l 713 1022 q 820 978 776 1022 q 864 869 864 933 q 820 761 864 806 q 713 717 776 717 l 396 717 q 394 710 394 713 l 394 708 l 713 708 q 820 664 776 708 q 864 556 864 619 m 399 1063 q 89 876 182 1063 q 49 713 49 796 l 49 242 q 105 105 49 161 q 242 49 161 49 q 378 105 322 49 q 435 242 435 161 l 435 363 l 713 363 q 849 419 793 363 q 904 556 904 475 q 825 713 904 653 q 904 869 904 771 q 849 1006 904 950 q 713 1063 793 1063 l 399 1063 m 129 242 l 129 713 q 161 840 129 776 q 399 982 232 982 l 713 982 q 792 949 760 982 q 824 869 824 917 q 792 790 824 822 q 713 757 760 757 l 361 757 l 357 729 l 346 663 l 394 668 l 713 668 q 792 635 760 668 q 824 556 824 603 q 792 476 824 508 q 713 443 760 443 l 354 443 l 354 242 q 322 162 354 194 q 242 129 289 129 q 163 163 196 129 q 129 242 129 196 m 399 1071 q 82 881 176 1071 q 40 713 40 797 l 40 242 q 99 99 40 158 q 242 40 158 40 q 384 99 325 40 q 443 242 443 158 l 443 354 l 713 354 q 854 413 796 354 q 913 556 913 472 q 838 713 913 650 q 913 869 913 774 q 854 1012 913 953 q 713 1071 796 1071 l 399 1071 m 138 242 l 138 713 q 168 836 138 775 q 399 974 236 974 l 713 974 q 785 943 756 974 q 815 869 815 913 q 785 796 815 826 q 713 765 756 765 l 354 765 l 350 732 l 336 653 l 394 660 l 713 660 q 785 629 756 660 q 815 556 815 599 q 785 482 815 513 q 713 451 756 451 l 346 451 l 346 242 q 315 168 346 199 q 242 138 285 138 q 168 168 199 138 q 138 242 138 199 m 399 1111 q 46 899 151 1111 q 0 713 0 807 l 0 242 q 71 71 0 142 q 242 0 142 0 q 413 71 342 0 q 483 242 483 142 l 483 314 l 713 314 q 883 384 813 314 q 953 556 953 454 q 894 713 953 644 q 953 869 953 781 q 883 1041 953 971 q 713 1111 813 1111 l 399 1111 m 81 242 l 81 713 q 118 863 81 788 q 399 1031 201 1031 l 713 1031 q 826 983 779 1031 q 872 869 872 936 q 826 756 872 803 q 817 747 825 754 l 771 713 l 826 669 q 872 556 872 622 q 826 442 872 489 q 713 394 779 394 l 403 394 l 403 242 q 356 128 403 175 q 242 81 308 81 q 128 128 175 81 q 81 242 81 175 m 399 1014 q 132 854 211 1014 q 97 713 97 785 l 97 242 q 140 140 97 182 q 242 97 182 97 q 344 140 301 97 q 386 242 386 182 l 386 411 l 713 411 q 814 453 772 411 q 856 556 856 496 q 814 658 856 615 q 713 700 772 700 l 385 699 l 389 725 l 713 725 q 815 767 774 725 q 856 869 856 808 q 814 972 856 929 q 713 1014 772 1014 l 399 1014 m 178 242 l 178 713 q 204 818 178 765 q 399 933 261 933 l 713 933 q 757 915 739 933 q 775 869 775 896 q 757 824 775 843 q 713 806 739 806 l 319 806 l 310 738 l 288 607 l 397 619 l 713 619 q 757 601 739 619 q 775 556 775 582 q 757 510 775 529 q 713 492 739 492 l 306 492 l 306 242 q 287 197 306 215 q 242 178 268 178 q 197 197 215 178 q 178 242 178 215 m 140 140 z "},"G":{"ha":1167,"x_min":0,"x_max":1111,"o":"m 713 1022 q 820 978 776 1022 q 864 869 864 933 q 820 761 864 806 q 713 717 776 717 l 557 717 q 461 690 508 717 q 394 554 394 653 q 461 418 394 456 q 556 393 506 393 q 606 403 576 393 l 594 403 q 487 447 531 403 q 443 556 443 492 q 488 664 443 619 q 596 708 532 708 l 869 708 q 977 663 932 708 q 1022 556 1022 618 q 781 144 1022 265 q 556 89 669 89 q 325 146 433 89 q 150 310 211 206 q 89 556 89 415 q 331 967 89 846 q 556 1022 442 1022 l 713 1022 m 556 1063 q 301 999 421 1063 q 115 821 182 935 q 49 556 49 707 q 313 108 49 240 q 556 49 432 49 q 810 113 690 49 q 996 290 929 176 q 1063 556 1063 404 q 1006 692 1063 636 q 869 749 950 749 l 861 749 q 904 869 904 801 q 849 1006 904 950 q 713 1063 793 1063 l 556 1063 m 185 332 q 136 447 146 397 q 129 556 129 481 q 349 931 129 821 q 556 982 451 982 l 713 982 q 792 949 760 982 q 824 869 824 917 q 792 790 824 822 q 713 757 760 757 l 557 757 q 442 726 497 757 q 354 554 354 678 q 442 383 354 432 q 554 353 497 353 l 558 353 q 618 364 583 353 l 606 443 l 594 443 q 515 476 547 443 q 483 556 483 508 q 516 635 483 603 q 596 668 549 668 l 869 668 q 948 635 915 668 q 981 556 981 601 q 763 181 981 289 q 556 129 660 129 q 342 183 443 129 q 185 332 240 238 m 556 1071 q 300 1007 419 1071 q 110 826 176 940 q 40 556 40 708 q 107 288 40 404 q 308 100 176 165 q 556 40 428 40 q 813 106 692 40 q 1003 288 935 172 q 1071 556 1071 403 q 1015 694 1071 636 q 878 756 958 753 q 913 869 913 806 q 854 1012 913 953 q 713 1071 796 1071 l 556 1071 m 350 189 q 247 257 281 224 q 193 335 225 279 q 138 556 138 429 q 353 924 138 817 q 556 974 453 974 l 713 974 q 785 943 756 974 q 815 869 815 913 q 785 796 815 826 q 713 765 756 765 l 557 765 q 438 733 494 765 q 346 554 346 682 q 438 376 346 428 q 553 344 494 344 l 558 344 q 621 357 585 344 l 606 451 l 594 451 q 521 481 550 451 q 492 556 492 511 q 522 630 492 600 q 596 660 551 660 l 869 660 q 943 629 913 660 q 974 556 974 599 q 761 189 974 294 q 556 138 658 138 q 350 189 451 138 m 556 1111 q 281 1042 410 1111 q 75 847 147 971 q 0 556 0 718 q 74 267 0 394 q 290 64 150 133 q 556 0 418 0 q 833 71 701 0 q 1036 264 964 142 q 1111 556 1111 392 q 1040 726 1111 656 q 939 786 997 769 q 953 869 953 826 q 883 1041 953 971 q 713 1111 813 1111 l 556 1111 m 81 556 q 143 805 81 694 q 326 975 206 915 q 556 1031 438 1031 l 713 1031 q 826 983 779 1031 q 872 869 872 936 q 844 779 872 819 l 803 718 l 876 715 q 985 667 942 713 q 1029 556 1029 621 q 967 307 1029 417 q 783 136 904 197 q 556 81 672 81 q 321 140 433 81 q 81 556 81 268 m 556 1014 q 329 957 436 1014 q 158 799 217 897 q 97 556 97 693 q 328 154 97 276 q 556 97 436 97 q 784 155 675 97 q 953 315 893 213 q 1014 556 1014 418 q 972 658 1014 615 q 869 700 929 700 l 596 700 q 493 658 535 700 q 451 556 451 617 q 485 461 451 501 q 571 413 518 421 l 575 389 q 556 385 551 385 l 556 385 q 457 411 504 385 q 386 554 386 451 q 458 699 386 658 q 557 725 506 725 l 713 725 q 814 767 772 725 q 856 869 856 810 q 814 972 856 929 q 713 1014 772 1014 l 556 1014 m 178 556 q 371 888 178 792 q 556 933 463 933 l 713 933 q 757 915 739 933 q 775 869 775 896 q 757 824 775 843 q 713 806 739 806 l 557 806 q 418 769 483 806 q 306 554 306 707 q 417 340 306 403 q 551 304 475 307 l 556 303 l 561 304 q 633 318 596 306 l 667 329 l 640 492 l 594 492 q 549 510 567 492 q 532 556 532 528 q 550 601 532 583 q 596 619 568 619 l 869 619 q 914 601 896 619 q 932 556 932 582 q 740 224 932 319 q 556 178 649 178 q 369 224 461 178 q 178 556 178 319 z "},"H":{"ha":961,"x_min":0,"x_max":915,"o":"m 826 869 l 826 242 q 782 133 826 178 q 674 89 738 89 q 567 134 611 89 q 522 242 522 179 l 522 403 l 394 403 l 394 242 q 350 133 394 178 q 242 89 306 89 q 133 133 178 89 q 89 242 89 178 l 89 869 q 133 978 89 933 q 242 1022 178 1022 q 350 978 306 1022 q 394 869 394 933 l 394 708 l 522 708 l 522 869 q 567 977 522 932 q 674 1022 611 1022 q 782 978 738 1022 q 826 869 826 933 m 482 869 l 482 749 l 435 749 l 435 869 q 378 1006 435 950 q 242 1063 322 1063 q 105 1006 161 1063 q 49 869 49 950 l 49 242 q 105 105 49 161 q 242 49 161 49 q 378 105 322 49 q 435 242 435 161 l 435 363 l 482 363 l 482 242 q 538 105 482 161 q 674 49 593 49 q 810 105 754 49 q 867 242 867 161 l 867 869 q 810 1006 867 950 q 674 1063 754 1063 q 538 1006 594 1063 q 482 869 482 949 m 563 668 l 563 869 q 595 949 563 915 q 674 982 628 982 q 753 949 721 982 q 785 869 785 917 l 785 242 q 753 162 785 194 q 674 129 721 129 q 595 163 628 129 q 563 242 563 196 l 563 443 l 354 443 l 354 242 q 322 162 354 194 q 242 129 289 129 q 163 163 196 129 q 129 242 129 196 l 129 869 q 163 949 129 915 q 242 982 196 982 q 322 949 289 982 q 354 869 354 917 l 354 668 l 563 668 m 474 869 l 474 757 l 443 757 l 443 869 q 384 1012 443 953 q 242 1071 325 1071 q 99 1012 158 1071 q 40 869 40 953 l 40 242 q 99 99 40 158 q 242 40 158 40 q 384 99 325 40 q 443 242 443 158 l 443 354 l 474 354 l 474 242 q 532 99 474 158 q 674 40 590 40 q 816 99 757 40 q 875 242 875 158 l 875 869 q 816 1012 875 953 q 674 1071 757 1071 q 532 1012 590 1071 q 474 869 474 953 m 571 660 l 571 869 q 601 943 571 913 q 674 974 631 974 q 747 943 717 974 q 778 869 778 913 l 778 242 q 747 168 778 199 q 674 138 717 138 q 601 168 631 138 q 571 242 571 199 l 571 451 l 346 451 l 346 242 q 315 168 346 199 q 242 138 285 138 q 168 168 199 138 q 138 242 138 199 l 138 869 q 168 943 138 913 q 242 974 199 974 q 315 943 285 974 q 346 869 346 913 l 346 660 l 571 660 m 458 975 q 242 1111 393 1111 q 71 1040 142 1111 q 0 869 0 969 l 0 242 q 71 71 0 142 q 242 0 142 0 q 413 71 340 0 q 458 135 442 99 q 674 0 525 0 q 845 71 775 0 q 915 242 915 142 l 915 869 q 844 1040 915 969 q 674 1111 774 1111 q 458 975 524 1111 m 514 717 l 514 869 q 561 983 514 936 l 561 983 q 674 1031 608 1031 q 787 983 740 1031 q 833 869 833 936 l 833 242 q 787 128 833 175 q 674 81 740 81 q 560 128 607 81 q 514 242 514 175 l 514 394 l 403 394 l 403 242 q 356 128 403 175 q 242 81 308 81 q 128 128 175 81 q 81 242 81 175 l 81 869 q 128 983 81 936 q 242 1031 175 1031 q 356 983 308 1031 q 403 869 403 936 l 403 717 l 514 717 m 504 1040 m 531 869 l 531 700 l 386 700 l 386 869 q 344 972 386 929 q 242 1014 301 1014 q 140 972 182 1014 q 97 869 97 929 l 97 242 q 140 140 97 182 q 242 97 182 97 q 344 140 301 97 q 386 242 386 182 l 386 411 l 531 411 l 531 242 q 572 140 531 182 q 674 97 614 97 q 776 140 733 97 q 818 242 818 182 l 818 869 q 776 972 818 929 q 674 1014 733 1014 q 572 972 614 1014 q 531 869 531 929 m 611 619 l 611 869 q 629 915 611 896 q 674 933 647 933 q 718 915 700 933 q 736 869 736 896 l 736 242 q 718 197 736 215 q 674 178 700 178 q 629 197 647 178 q 611 242 611 215 l 611 492 l 306 492 l 306 242 q 287 197 306 215 q 242 178 268 178 q 197 197 215 178 q 178 242 178 215 l 178 869 q 197 915 178 896 q 242 933 215 933 q 287 915 268 933 q 306 869 306 896 l 306 619 l 611 619 z "},"I":{"ha":508,"x_min":0,"x_max":483,"o":"m 394 831 q 383 771 394 800 q 394 713 394 743 l 394 242 q 350 133 394 178 q 242 89 306 89 q 133 133 178 89 q 89 242 89 178 l 89 713 q 101 771 89 743 q 89 831 89 799 l 89 869 q 133 978 89 933 q 242 1022 178 1022 q 350 978 306 1022 q 394 869 394 933 l 394 831 m 49 869 l 49 831 q 58 771 49 803 q 49 713 49 740 l 49 242 q 105 105 49 161 q 242 49 161 49 q 378 105 322 49 q 435 242 435 161 l 435 713 q 425 771 435 740 q 435 831 435 803 l 435 869 q 378 1006 435 950 q 242 1063 322 1063 q 105 1006 161 1063 q 49 869 49 950 m 129 242 l 129 713 q 138 756 129 738 l 144 771 l 138 788 q 129 831 129 807 l 129 869 q 163 949 129 915 q 242 982 196 982 q 322 949 289 982 q 354 869 354 917 l 354 831 q 346 788 354 807 l 339 771 l 346 756 q 354 713 354 738 l 354 242 q 322 162 354 194 q 242 129 289 129 q 163 163 196 129 q 129 242 129 196 m 40 869 l 40 831 q 50 771 40 803 q 40 713 40 740 l 40 242 q 99 99 40 158 q 242 40 158 40 q 384 99 325 40 q 443 242 443 158 l 443 713 q 433 771 443 740 q 443 831 443 803 l 443 869 q 384 1012 443 953 q 242 1071 325 1071 q 99 1012 158 1071 q 40 869 40 953 m 138 242 l 138 713 q 146 753 138 731 l 153 771 l 146 790 q 138 831 138 808 l 138 869 q 168 943 138 913 q 242 974 199 974 q 315 943 285 974 q 346 869 346 913 l 346 831 q 338 790 346 808 l 331 771 l 338 753 q 346 713 346 731 l 346 242 q 315 168 346 199 q 242 138 285 138 q 168 168 199 138 q 138 242 138 199 m 71 1040 l 71 1040 q 0 869 0 969 l 0 831 q 8 771 0 804 q 0 713 0 739 l 0 242 q 71 71 0 142 q 242 0 142 0 q 413 71 342 0 q 483 242 483 142 l 483 713 q 475 771 483 739 q 483 831 483 804 l 483 869 q 413 1040 483 969 q 242 1111 342 1111 q 71 1040 142 1111 m 242 1031 q 356 983 308 1031 q 403 869 403 936 l 403 831 q 394 783 403 821 l 392 771 l 394 760 q 403 713 403 726 l 403 242 q 356 128 403 175 q 242 81 308 81 q 128 128 175 81 q 81 242 81 175 l 81 713 q 89 760 81 738 l 93 771 l 89 783 q 81 831 81 808 l 81 869 q 128 983 81 936 q 242 1031 175 1031 m 97 869 l 97 831 q 108 775 97 808 l 110 771 l 108 768 q 97 713 97 746 l 97 242 q 140 140 97 182 q 242 97 182 97 q 344 140 301 97 q 386 242 386 182 l 386 713 q 375 768 386 746 l 374 771 q 380 794 374 772 q 386 831 386 817 l 386 869 q 344 972 386 929 q 242 1014 301 1014 q 140 972 182 1014 q 97 869 97 929 m 197 197 l 197 197 q 178 242 178 215 l 178 713 q 183 738 178 724 l 197 771 l 183 806 q 178 831 178 819 l 178 869 q 197 915 178 896 q 242 933 215 933 q 287 915 268 933 q 306 869 306 896 l 306 831 q 300 806 306 819 l 286 771 l 300 738 q 306 713 306 724 l 306 242 q 287 197 306 215 q 242 178 268 178 q 197 197 215 178 m 140 140 z "},"J":{"ha":1114,"x_min":0,"x_max":1061,"o":"m 819 1022 q 927 978 883 1022 q 971 869 971 933 l 971 556 q 914 325 971 433 q 753 151 854 211 q 506 89 646 89 q 110 303 236 89 q 89 379 89 338 q 164 511 89 467 q 242 532 199 532 q 374 457 329 532 q 506 394 410 394 q 640 461 604 394 q 667 557 667 510 l 667 869 q 711 978 667 933 q 819 1022 756 1022 m 626 869 l 626 557 q 606 481 626 518 q 506 435 581 435 q 408 476 433 435 q 242 572 353 572 q 143 546 189 572 q 49 379 49 490 q 75 282 49 326 q 506 49 214 49 q 953 313 822 49 q 1013 556 1013 432 l 1013 869 q 956 1006 1013 950 q 819 1063 900 1063 q 683 1006 739 1063 q 626 869 626 950 m 819 982 q 899 949 867 982 q 931 869 931 917 l 931 556 q 879 344 931 443 q 732 186 825 240 q 506 129 635 129 q 144 324 260 129 q 129 379 129 349 q 185 476 129 444 q 242 492 211 492 q 339 436 307 492 q 506 354 388 354 q 676 442 628 354 q 708 557 708 499 l 708 869 q 740 949 708 917 q 819 982 772 982 m 618 869 l 618 557 q 599 485 618 521 q 506 443 576 443 q 415 481 438 443 q 242 581 357 581 q 139 553 186 581 q 40 379 40 494 q 68 278 40 325 q 506 40 208 40 q 776 108 657 40 q 960 308 894 176 q 1019 556 1019 429 l 1019 869 q 962 1013 1019 954 q 819 1071 904 1071 q 677 1012 736 1071 q 618 869 618 953 m 819 974 q 894 944 864 974 q 924 869 924 914 l 924 556 q 872 349 924 447 q 728 193 818 246 q 506 138 633 138 q 151 326 263 138 q 138 379 138 350 q 189 469 138 439 q 242 483 213 483 q 332 432 301 483 q 506 346 382 346 q 683 438 633 346 q 715 557 715 496 l 715 869 q 746 943 715 913 q 819 974 776 974 m 578 869 l 578 557 q 563 504 578 532 q 506 483 551 483 q 450 501 461 483 q 242 621 381 621 q 119 588 176 621 q 0 379 0 517 q 33 257 0 313 q 506 0 186 0 q 797 74 668 0 q 996 290 925 149 q 1061 556 1061 421 l 1061 869 q 991 1041 1061 971 q 819 1111 921 1111 q 648 1041 718 1111 q 578 869 578 971 m 633 465 q 660 557 660 513 l 660 869 q 706 983 660 936 q 819 1031 753 1031 q 933 984 888 1031 q 979 869 979 938 l 979 556 q 921 321 979 432 q 757 144 861 206 q 506 81 649 81 q 103 299 232 81 q 81 379 81 336 q 160 518 81 472 q 242 540 197 540 q 381 460 333 540 q 506 403 414 403 q 633 465 599 403 m 675 869 l 675 557 q 647 457 675 507 q 506 386 608 386 q 394 422 433 386 q 339 488 367 454 q 242 524 303 524 q 168 504 201 524 q 97 379 97 463 q 117 306 97 339 q 506 97 239 97 q 910 333 793 97 q 964 556 964 442 l 964 869 q 922 972 964 931 q 819 1014 881 1014 q 717 972 758 1014 q 675 869 675 931 m 718 418 q 757 557 757 489 l 757 869 q 775 915 757 896 q 819 933 793 933 q 864 915 846 933 q 882 869 882 896 l 882 556 q 836 368 882 457 q 705 226 788 275 q 506 178 622 178 q 186 347 286 178 q 178 379 178 361 q 196 425 178 407 q 242 443 214 443 q 297 411 279 443 q 506 306 360 306 q 718 418 656 306 z "},"K":{"ha":1125,"x_min":0,"x_max":1071,"o":"m 982 242 q 957 157 982 194 q 829 89 911 89 q 746 115 786 89 l 394 349 l 394 242 q 350 133 394 178 q 242 89 306 89 q 133 133 178 89 q 89 242 89 178 l 89 869 q 133 978 89 933 q 242 1022 178 1022 q 350 978 306 1022 q 394 869 394 933 l 394 774 l 703 994 q 790 1022 742 1022 q 914 958 868 1022 q 943 869 943 917 q 879 746 943 792 l 624 563 l 914 369 q 982 242 982 324 m 679 1028 l 435 853 l 435 869 q 378 1006 435 950 q 242 1063 322 1063 q 105 1006 161 1063 q 49 869 49 950 l 49 242 q 105 105 49 161 q 242 49 161 49 q 378 105 322 49 q 435 242 435 161 l 435 274 l 722 81 q 829 49 769 49 q 990 135 933 49 q 1022 242 1022 183 q 938 403 1022 346 l 696 564 l 903 713 q 983 869 983 771 q 947 982 983 932 q 790 1063 889 1063 q 679 1028 728 1063 m 726 961 q 790 982 756 982 q 882 935 849 982 q 903 869 903 906 q 856 779 903 813 l 553 561 l 892 335 q 942 242 942 301 q 922 179 942 208 q 829 129 889 129 q 768 149 797 129 l 354 425 l 354 242 q 322 162 354 194 q 242 129 289 129 q 163 163 196 129 q 129 242 129 196 l 129 869 q 163 949 129 915 q 242 982 196 982 q 322 949 289 982 q 354 869 354 917 l 354 694 l 726 961 m 674 1033 l 443 868 l 443 869 q 384 1012 443 953 q 242 1071 325 1071 q 99 1012 158 1071 q 40 869 40 953 l 40 242 q 99 99 40 158 q 242 40 158 40 q 384 99 325 40 q 443 242 443 158 l 443 258 l 718 75 q 829 40 769 40 q 997 129 939 40 q 1031 242 1031 179 q 942 410 1031 350 l 710 564 l 908 706 q 992 869 992 765 q 954 986 992 933 q 790 1071 893 1071 q 674 1033 726 1071 m 731 954 q 790 974 758 974 q 875 929 843 974 q 894 869 894 901 q 851 785 894 815 l 539 561 l 888 329 q 933 242 933 299 q 915 183 933 210 q 829 138 885 138 q 772 156 799 138 l 346 440 l 346 242 q 315 168 346 199 q 242 138 285 138 q 168 168 199 138 q 138 242 138 199 l 138 869 q 168 943 138 913 q 242 974 199 974 q 315 943 285 974 q 346 869 346 913 l 346 679 l 731 954 m 651 1067 l 472 939 q 413 1040 456 997 q 242 1111 342 1111 q 71 1040 142 1111 q 0 869 0 969 l 0 242 q 71 71 0 142 q 242 0 142 0 l 242 0 q 413 71 342 0 q 476 188 463 121 l 696 40 q 829 0 756 0 q 1031 107 958 0 q 1071 242 1071 167 q 964 443 1071 372 l 781 565 l 932 674 q 1032 869 1032 746 q 961 1041 1032 971 q 790 1111 890 1111 q 651 1067 714 1111 m 790 1031 q 921 964 874 1031 q 951 869 951 921 q 885 739 951 786 l 639 563 l 919 375 q 990 242 990 328 q 963 151 990 193 q 829 81 915 81 q 740 108 782 81 l 403 333 l 403 242 q 356 128 403 175 q 242 81 308 81 q 128 128 175 81 q 81 242 81 175 l 81 869 q 128 983 81 936 q 242 1031 175 1031 q 356 983 308 1031 q 403 869 403 936 l 403 790 l 467 835 q 697 1000 675 979 q 790 1031 739 1031 m 707 988 l 386 757 l 386 869 q 344 972 386 929 q 242 1014 301 1014 q 140 972 182 1014 q 97 869 97 929 l 97 242 q 140 140 97 182 q 242 97 182 97 q 344 140 301 97 q 386 242 386 182 l 386 364 l 750 121 q 829 97 785 97 q 950 161 907 97 q 974 242 974 197 q 910 363 974 319 l 610 563 l 875 753 q 936 869 936 797 q 893 972 936 929 q 790 1014 850 1014 q 707 988 743 1014 m 754 922 q 790 933 769 933 q 835 915 817 933 q 854 869 854 896 q 828 818 854 838 l 468 560 l 865 294 q 893 242 893 276 q 874 197 893 215 q 829 178 856 178 q 794 189 811 178 l 306 515 l 306 242 q 287 197 306 215 q 242 178 268 178 q 197 197 215 178 q 178 242 178 215 l 178 869 q 197 915 178 896 q 242 933 215 933 q 287 915 268 933 q 306 869 306 896 l 306 600 l 754 922 z "},"L":{"ha":1001,"x_min":0,"x_max":953,"o":"m 242 1022 q 350 978 306 1022 q 394 869 394 933 l 394 394 l 713 394 q 820 350 776 394 q 864 242 864 306 q 820 133 864 178 q 713 89 776 89 l 360 89 q 166 166 243 89 q 89 360 89 243 l 89 869 q 133 978 89 933 q 242 1022 178 1022 m 49 869 l 49 360 q 137 137 49 225 q 360 49 225 49 l 713 49 q 849 105 793 49 q 904 242 904 161 q 849 378 904 322 q 713 435 793 435 l 435 435 l 435 869 q 378 1006 435 950 q 242 1063 322 1063 q 105 1006 161 1063 q 49 869 49 950 m 242 982 q 322 949 289 982 q 354 869 354 917 l 354 354 l 713 354 q 792 322 760 354 q 824 242 824 289 q 792 162 824 194 q 713 129 760 129 l 360 129 q 194 194 260 129 q 129 360 129 260 l 129 869 q 163 949 129 915 q 242 982 196 982 m 40 869 l 40 360 q 131 131 40 222 q 360 40 222 40 l 713 40 q 854 99 796 40 q 913 242 913 158 q 854 384 913 325 q 713 443 796 443 l 443 443 l 443 869 q 384 1012 443 953 q 242 1071 325 1071 q 99 1012 158 1071 q 40 869 40 953 m 242 974 q 315 943 285 974 q 346 869 346 913 l 346 346 l 713 346 q 785 315 756 346 q 815 242 815 285 q 785 168 815 199 q 713 138 756 138 l 360 138 q 200 200 263 138 q 138 360 138 263 l 138 869 q 168 943 138 913 q 242 974 199 974 m 0 869 l 0 360 q 102 102 0 204 q 360 0 204 0 l 713 0 q 883 70 813 0 q 953 242 953 140 q 883 413 953 343 q 713 483 813 483 l 483 483 l 483 869 q 413 1040 483 969 q 242 1111 342 1111 q 71 1040 142 1111 q 0 869 0 969 m 81 360 l 81 869 q 128 983 81 936 q 242 1031 175 1031 q 356 983 308 1031 q 403 869 403 936 l 403 403 l 713 403 q 826 356 779 403 q 872 242 872 308 q 826 128 872 175 q 713 81 779 81 l 360 81 q 160 160 239 81 q 81 360 81 239 m 97 869 l 97 360 q 172 172 97 246 q 360 97 246 97 l 713 97 q 814 140 772 97 q 856 242 856 182 q 814 344 856 301 q 713 386 772 386 l 386 386 l 386 869 q 344 972 386 929 q 242 1014 301 1014 q 140 972 182 1014 q 97 869 97 929 m 178 360 l 178 869 q 197 915 178 896 q 242 933 215 933 q 287 915 268 933 q 306 869 306 896 l 306 306 l 713 306 q 757 287 739 306 q 775 242 775 268 q 757 197 775 215 q 713 178 739 178 l 360 178 q 228 228 279 178 q 178 360 178 279 z "},"M":{"ha":1167,"x_min":0,"x_max":1111,"o":"m 869 1022 q 996 954 951 1022 q 1022 869 1022 914 l 1022 242 q 978 133 1022 178 q 869 89 933 89 q 763 134 807 89 q 718 242 718 179 l 718 500 l 665 447 q 557 403 621 403 q 447 447 492 403 l 394 500 l 394 242 q 350 133 394 178 q 242 89 306 89 q 133 133 178 89 q 89 242 89 178 l 89 869 q 133 978 89 933 q 242 1022 178 1022 q 349 978 304 1022 l 556 771 l 761 978 q 869 1022 806 1022 m 733 1007 l 556 828 l 378 1007 q 242 1063 322 1063 q 81 976 138 1063 q 49 869 49 928 l 49 242 q 105 105 49 161 q 242 49 161 49 q 378 105 322 49 q 435 242 435 161 l 435 406 q 557 363 489 363 q 678 406 624 363 l 678 242 q 733 105 678 161 q 869 49 789 49 q 1006 105 950 49 q 1063 242 1063 161 l 1063 869 q 1006 1006 1063 950 q 869 1063 950 1063 q 733 1007 789 1063 m 790 949 q 869 982 824 982 q 963 932 929 982 q 981 869 981 904 l 981 242 q 949 162 981 194 q 869 129 917 129 q 791 163 824 129 q 758 242 758 196 l 758 600 l 638 475 q 557 443 607 443 q 475 476 507 443 l 354 600 l 354 242 q 322 162 354 194 q 242 129 289 129 q 163 163 196 129 q 129 242 129 196 l 129 869 q 162 949 129 917 q 242 982 194 982 q 321 949 288 982 l 556 714 l 790 949 m 728 1013 l 556 840 l 383 1013 q 242 1071 325 1071 q 74 982 132 1071 q 40 869 40 932 l 40 242 q 99 99 40 158 q 242 40 158 40 q 384 99 325 40 q 443 242 443 158 l 443 389 q 557 354 493 354 q 669 389 619 354 l 669 242 q 728 99 669 158 q 869 40 786 40 q 1012 99 953 40 q 1071 242 1071 158 l 1071 869 q 1012 1012 1071 953 q 869 1071 953 1071 q 728 1013 786 1071 m 796 943 q 869 974 826 974 q 956 928 925 974 q 974 869 974 901 l 974 242 q 943 168 974 199 q 869 138 913 138 q 797 168 826 138 q 767 242 767 199 l 767 619 l 631 481 q 557 451 601 451 q 482 482 513 451 l 346 619 l 346 242 q 315 168 346 199 q 242 138 285 138 q 168 168 199 138 q 138 242 138 199 l 138 869 q 168 943 138 913 q 242 974 199 974 q 315 943 285 974 l 556 703 l 796 943 m 699 1040 l 556 897 l 413 1040 q 242 1111 342 1111 q 40 1004 113 1111 q 0 869 0 944 l 0 242 q 71 71 0 142 q 242 0 142 0 q 413 71 342 0 q 483 242 483 142 l 483 325 q 557 314 518 314 q 629 325 594 314 l 629 242 q 699 70 629 140 q 869 0 769 0 q 1041 70 971 0 q 1111 242 1111 140 l 1111 869 q 1040 1040 1111 969 q 869 1111 969 1111 q 699 1040 769 1111 m 869 1031 q 1003 958 956 1031 q 1029 869 1029 918 l 1029 242 q 983 128 1029 175 q 869 81 936 81 q 756 128 803 81 q 710 242 710 175 l 710 464 l 647 422 q 557 394 606 394 q 465 422 507 394 l 403 464 l 403 242 q 356 128 403 175 q 242 81 308 81 q 128 128 175 81 q 81 242 81 175 l 81 869 q 128 983 81 936 q 242 1031 175 1031 q 354 983 307 1031 l 556 782 l 756 983 q 869 1031 803 1031 m 768 972 l 556 760 l 343 972 q 242 1014 301 1014 q 121 950 164 1014 q 97 869 97 915 l 97 242 q 140 140 97 182 q 242 97 182 97 q 344 140 301 97 q 386 242 386 182 l 386 521 q 461 446 442 461 q 557 411 506 411 q 660 451 619 411 q 726 521 681 474 l 726 242 q 768 140 726 182 q 869 97 810 97 q 972 139 931 97 q 1014 242 1014 181 l 1014 869 q 972 972 1014 929 q 869 1014 929 1014 q 768 972 810 1014 m 825 915 q 869 933 843 933 q 914 915 896 933 q 932 869 932 896 l 932 242 q 914 197 932 215 q 869 178 896 178 q 825 197 843 178 q 807 242 807 215 l 807 718 l 603 510 q 557 492 585 492 q 510 511 529 492 l 306 718 l 306 242 q 287 197 306 215 q 242 178 268 178 q 197 197 215 178 q 178 242 178 215 l 178 869 q 197 915 178 896 q 242 933 215 933 q 286 915 268 933 l 556 644 l 825 915 z "},"N":{"ha":1167,"x_min":0,"x_max":1111,"o":"m 242 1022 q 349 978 304 1022 l 717 610 l 717 869 q 761 978 717 933 q 869 1022 806 1022 q 978 978 933 1022 q 1022 869 1022 933 l 1022 242 q 978 133 1022 178 q 869 89 933 89 q 761 133 806 89 l 394 500 l 394 242 q 350 133 394 178 q 242 89 306 89 q 133 133 178 89 q 89 242 89 178 l 89 869 q 133 978 89 933 q 242 1022 178 1022 m 676 869 l 676 708 l 378 1007 q 242 1063 322 1063 q 81 976 138 1063 q 49 869 49 928 l 49 242 q 105 105 49 161 q 242 49 161 49 q 378 105 322 49 q 435 242 435 161 l 435 403 l 733 104 q 869 49 789 49 q 1029 135 971 49 q 1063 242 1063 185 l 1063 869 q 1006 1006 1063 950 q 869 1063 950 1063 q 733 1006 789 1063 q 676 869 676 950 m 757 869 q 790 949 757 917 q 869 982 822 982 q 948 949 915 982 q 981 869 981 915 l 981 242 q 949 162 981 194 q 869 129 917 129 q 790 163 824 129 l 354 599 l 354 242 q 322 162 354 194 q 242 129 289 129 q 163 163 196 129 q 129 242 129 196 l 129 869 q 162 949 129 917 q 242 982 194 982 q 321 949 288 982 l 757 513 l 757 869 m 668 869 l 668 728 l 383 1013 q 242 1071 325 1071 q 74 982 132 1071 q 40 869 40 932 l 40 242 q 99 99 40 158 q 242 40 158 40 q 384 99 325 40 q 443 242 443 158 l 443 383 l 728 99 q 869 40 786 40 q 1036 129 976 40 q 1071 242 1071 181 l 1071 869 q 1012 1012 1071 953 q 869 1071 953 1071 q 726 1013 785 1071 q 668 869 668 954 m 765 869 q 795 944 765 914 q 869 974 825 974 q 943 943 913 974 q 974 869 974 913 l 974 242 q 943 168 974 199 q 869 138 913 138 q 796 168 826 138 l 346 618 l 346 242 q 315 168 346 199 q 242 138 285 138 q 168 168 199 138 q 138 242 138 199 l 138 869 q 168 943 138 913 q 242 974 199 974 q 315 943 285 974 l 765 493 l 765 869 m 699 1040 l 699 1040 q 628 869 628 969 l 628 825 l 413 1040 q 242 1111 342 1111 q 40 1004 113 1111 q 0 869 0 944 l 0 242 q 71 71 0 142 q 242 0 142 0 l 242 0 q 413 71 342 0 q 483 242 483 142 l 483 286 l 699 71 q 869 0 769 0 q 1069 107 997 0 q 1111 242 1111 169 l 1111 869 q 1040 1040 1111 969 q 869 1111 969 1111 q 699 1040 769 1111 m 869 1031 q 983 983 936 1031 q 1029 869 1029 936 l 1029 242 q 983 128 1029 175 q 869 81 936 81 q 756 128 803 81 l 403 481 l 403 242 q 356 128 403 175 q 242 81 308 81 q 128 128 175 81 q 81 242 81 175 l 81 869 q 128 983 81 936 q 242 1031 175 1031 q 354 983 307 1031 l 708 629 l 708 869 q 756 983 708 936 l 756 983 q 869 1031 803 1031 m 725 869 l 725 590 l 343 972 q 242 1014 301 1014 q 121 950 164 1014 q 97 869 97 915 l 97 242 q 140 140 97 182 q 242 97 182 97 q 344 140 301 97 q 386 242 386 182 l 386 519 l 768 139 q 869 97 810 97 q 989 161 946 97 q 1014 242 1014 199 l 1014 869 q 972 972 1014 929 q 869 1014 929 1014 q 767 972 808 1014 q 725 869 725 931 m 806 869 q 824 915 806 897 q 869 933 842 933 q 914 915 896 933 q 932 869 932 896 l 932 242 q 914 197 932 215 q 869 178 896 178 q 825 196 843 178 l 306 715 l 306 242 q 287 197 306 215 q 242 178 268 178 q 197 197 215 178 q 178 242 178 215 l 178 869 q 197 915 178 896 q 242 933 215 933 q 286 915 268 933 l 806 394 l 806 869 z "},"O":{"ha":1167,"x_min":0,"x_max":1111,"o":"m 556 1022 q 788 963 676 1022 q 960 803 900 904 q 1022 556 1022 696 q 781 144 1022 265 q 556 89 669 89 q 325 146 433 89 q 150 310 211 206 q 89 556 89 415 q 331 967 89 846 q 556 1022 442 1022 m 557 393 q 651 418 607 393 q 718 554 718 456 q 557 717 718 708 q 394 554 394 708 q 461 418 394 456 q 557 393 506 393 m 115 821 q 57 683 69 743 q 49 556 49 644 q 313 108 49 240 q 556 49 432 49 q 810 113 690 49 q 996 290 929 176 q 1063 556 1063 404 q 997 819 1063 704 q 799 1003 928 939 q 556 1063 679 1063 q 301 999 421 1063 q 115 821 182 935 m 185 332 q 136 447 146 397 q 129 556 129 481 q 349 931 129 821 q 556 982 451 982 q 769 928 667 982 q 926 781 871 875 q 981 556 981 686 q 763 181 981 289 q 556 129 660 129 q 342 183 443 129 q 185 332 240 238 m 554 757 q 442 726 496 757 q 354 554 354 676 q 442 383 354 432 q 554 353 496 353 l 558 353 q 671 383 617 353 q 758 554 758 432 q 671 726 758 676 q 558 757 618 757 l 554 757 m 435 554 q 557 676 435 668 q 678 554 678 668 q 557 433 678 442 q 435 554 435 442 m 40 556 q 107 288 40 404 q 308 100 176 165 q 556 40 428 40 q 813 106 692 40 q 1003 288 935 172 q 1071 556 1071 403 q 1003 824 1071 707 q 801 1011 933 946 q 556 1071 682 1071 q 299 1006 421 1071 q 106 820 172 938 q 40 556 40 703 m 350 189 q 247 257 281 224 q 193 335 225 279 q 138 556 138 429 q 353 924 138 817 q 556 974 453 974 q 758 924 658 974 q 974 556 974 817 q 761 189 974 294 q 556 138 658 138 q 350 189 451 138 m 73 843 q 36 780 73 843 q 0 556 0 717 q 74 267 0 394 q 290 64 150 133 q 556 0 418 0 q 833 71 701 0 q 1036 264 964 142 q 1111 556 1111 392 q 1038 844 1111 717 q 821 1047 961 978 q 556 1111 693 1111 q 279 1042 408 1111 q 73 843 146 969 m 556 1031 q 790 972 679 1031 q 967 807 907 911 q 1029 556 1029 699 q 783 136 1029 258 q 556 81 672 81 q 321 140 433 81 q 81 556 81 268 q 143 805 81 694 q 326 975 206 915 q 556 1031 438 1031 m 158 799 q 97 556 97 693 q 156 317 97 424 q 333 151 218 203 q 556 97 454 97 q 784 155 675 97 q 953 315 893 213 q 1014 556 1014 418 q 776 960 1014 842 q 556 1014 668 1014 q 329 957 436 1014 q 158 799 217 897 m 178 556 q 371 888 178 792 q 556 933 463 933 q 742 888 654 933 q 882 757 835 839 q 932 556 932 671 q 740 224 932 319 q 556 178 649 178 q 369 224 461 178 q 178 556 178 319 m 554 765 q 438 733 494 765 q 346 554 346 682 q 438 376 346 428 q 554 344 494 344 l 558 344 q 675 376 618 344 q 767 554 767 428 q 675 733 767 682 q 558 765 618 765 l 554 765 m 443 554 q 557 668 443 661 q 669 554 669 660 q 557 442 669 442 q 443 554 443 442 m 553 806 q 418 768 486 806 q 306 554 306 706 q 418 340 306 403 q 553 304 482 304 l 561 304 q 694 340 631 304 q 807 554 807 404 q 696 768 807 706 q 561 806 629 806 l 553 806 m 557 725 q 726 554 726 717 q 656 411 726 451 q 556 385 611 386 q 457 411 507 383 q 386 554 386 450 q 556 725 386 717 l 556 725 l 557 725 m 554 708 q 403 554 403 708 q 465 425 403 461 q 554 401 507 401 l 558 401 q 710 554 710 401 q 558 708 710 708 l 554 708 m 483 554 l 483 554 q 500 610 483 594 q 557 626 517 625 q 613 610 597 625 q 629 554 629 594 q 613 501 629 515 q 557 482 597 486 q 500 501 517 486 q 483 554 483 515 z "},"P":{"ha":1001,"x_min":0,"x_max":953,"o":"m 478 1022 q 663 982 575 1022 q 808 863 757 939 q 864 674 864 781 q 653 361 864 450 q 478 325 567 325 l 394 325 l 394 242 q 350 133 394 178 q 242 89 306 89 q 133 133 178 89 q 89 242 89 178 l 89 869 q 133 978 89 933 q 242 1022 178 1022 l 478 1022 m 394 717 l 394 629 l 476 629 q 561 674 561 629 q 476 717 561 717 l 394 717 m 242 1063 q 105 1006 161 1063 q 49 869 49 950 l 49 242 q 105 105 49 161 q 242 49 161 49 q 378 105 322 49 q 435 242 435 161 l 435 285 l 478 285 q 682 329 586 285 q 843 461 786 376 q 904 674 904 551 q 842 885 904 793 q 669 1024 781 978 q 478 1063 576 1063 l 242 1063 m 129 242 l 129 869 q 163 949 129 915 q 242 982 196 982 l 478 982 q 638 949 558 982 q 824 674 824 871 q 638 399 824 475 q 478 365 557 365 l 354 365 l 354 242 q 322 162 354 194 q 242 129 289 129 q 163 163 196 129 q 129 242 129 196 m 354 757 l 354 589 l 476 589 q 558 607 525 589 q 601 674 601 629 q 558 739 601 717 q 476 757 524 757 l 354 757 m 476 676 q 503 674 489 676 q 476 669 489 669 l 435 669 l 435 676 l 476 676 m 242 1071 q 99 1012 158 1071 q 40 869 40 953 l 40 242 q 99 99 40 158 q 242 40 158 40 q 384 99 325 40 q 443 242 443 158 l 443 276 l 478 276 q 686 322 588 276 q 849 457 790 371 q 913 674 913 551 q 849 890 913 796 q 672 1031 786 983 q 478 1071 575 1071 l 242 1071 m 138 242 l 138 869 q 168 943 138 913 q 242 974 199 974 l 478 974 q 635 942 558 974 q 815 674 815 865 q 635 406 815 481 q 478 374 557 374 l 346 374 l 346 242 q 315 168 346 199 q 242 138 285 138 q 168 168 199 138 q 138 242 138 199 m 242 1111 q 71 1040 142 1111 q 0 869 0 969 l 0 242 q 71 71 0 142 q 242 0 142 0 q 410 69 340 0 q 483 236 481 138 q 688 278 590 238 q 883 434 813 329 q 953 674 953 539 q 883 913 953 808 q 688 1068 813 1017 q 478 1111 583 1111 l 242 1111 m 81 242 l 81 869 q 128 983 81 936 q 242 1031 175 1031 l 478 1031 q 667 989 578 1031 q 815 867 763 944 q 872 674 872 783 q 815 479 872 564 q 657 353 758 394 q 478 317 571 317 l 403 317 l 403 242 q 356 128 403 175 q 242 81 308 81 q 128 128 175 81 q 81 242 81 175 m 242 1014 q 140 972 182 1014 q 97 869 97 929 l 97 242 q 140 140 97 182 q 242 97 182 97 q 344 140 301 97 q 386 242 386 182 l 386 333 l 478 333 q 650 368 567 333 q 856 674 856 454 q 650 978 856 892 q 478 1014 564 1014 l 242 1014 m 178 242 l 178 869 q 197 915 178 896 q 242 933 215 933 l 478 933 q 622 903 553 933 q 736 811 697 869 q 775 674 775 753 q 619 443 775 508 q 478 414 550 414 l 306 414 l 306 242 q 287 197 306 215 q 242 178 268 178 q 197 197 215 178 q 178 242 178 215 m 140 140 m 346 765 l 346 581 l 476 581 q 564 601 528 581 q 610 674 610 626 q 564 744 610 719 q 476 765 526 765 l 346 765 m 306 806 l 306 540 l 476 540 q 578 563 531 540 q 650 674 650 596 q 579 783 650 750 q 476 806 532 806 l 306 806 m 476 725 q 568 674 568 725 q 476 621 568 621 l 386 621 l 386 725 l 476 725 z "},"Q":{"ha":1167,"x_min":0,"x_max":1111,"o":"m 979 347 q 1022 242 1022 303 q 978 133 1022 178 q 869 89 933 89 q 761 133 804 89 l 761 135 q 556 89 657 89 q 325 146 433 89 q 150 310 211 206 q 89 556 89 415 q 331 967 89 844 q 556 1022 440 1022 q 789 963 679 1022 q 960 800 899 904 q 1022 556 1022 696 q 979 347 1022 440 m 526 399 q 522 438 522 418 q 566 546 522 501 q 674 590 610 590 q 715 585 694 590 q 556 717 701 710 q 394 556 394 708 q 526 399 394 422 m 115 821 q 57 683 69 743 q 49 556 49 644 q 313 108 49 240 q 556 49 432 49 q 753 89 651 49 q 869 49 804 49 q 1006 105 950 49 q 1063 242 1063 161 q 1025 354 1063 304 q 1063 556 1063 447 q 996 821 1063 704 q 799 1003 929 938 q 556 1063 679 1063 q 301 999 421 1063 q 115 821 182 935 m 185 332 q 136 447 146 397 q 129 556 129 481 q 349 931 129 819 q 556 982 450 982 q 769 928 668 982 q 925 780 869 875 q 981 556 981 685 q 943 364 981 449 l 932 339 l 950 319 q 981 242 981 286 q 948 163 981 196 q 869 129 915 129 q 790 163 824 129 l 771 182 l 744 172 q 556 129 628 129 q 342 183 443 129 q 185 332 240 238 m 554 757 q 442 726 497 757 q 354 556 354 678 q 519 358 354 390 l 578 347 l 565 406 q 563 438 563 418 q 595 517 563 483 q 674 550 628 550 q 704 546 689 550 l 763 529 l 756 589 q 690 713 746 669 q 557 757 633 757 l 554 757 m 435 556 q 556 675 435 671 q 658 629 629 671 q 538 574 588 624 q 483 454 489 525 q 435 556 435 479 m 110 825 q 40 556 40 706 q 107 288 40 404 q 308 100 176 165 q 556 40 428 40 q 751 79 650 40 q 869 40 803 40 l 869 40 q 1012 99 953 40 q 1071 242 1071 158 q 1035 356 1071 304 q 1071 556 1071 449 q 1002 825 1071 706 q 803 1011 933 944 q 556 1071 685 1071 q 300 1007 419 1071 q 110 825 175 940 m 351 188 q 138 556 138 294 q 353 924 138 817 q 556 974 453 974 q 758 924 658 974 q 974 556 974 817 q 935 367 974 457 l 922 338 l 944 314 q 974 242 974 283 q 943 168 974 199 q 869 138 913 138 q 796 168 826 138 l 772 192 l 742 179 q 556 138 640 138 q 351 188 451 138 m 75 847 q 0 556 0 717 q 74 267 0 394 q 290 64 150 133 q 556 0 418 0 q 746 35 647 0 q 869 0 803 0 q 1040 71 969 0 q 1111 242 1111 142 q 1079 360 1111 304 q 1111 556 1111 454 q 1037 847 1111 717 q 821 1047 963 976 q 556 1111 694 1111 q 279 1042 408 1111 q 75 847 144 969 m 556 1031 q 790 971 681 1031 q 967 804 906 910 q 1029 556 1029 699 q 997 369 1029 444 l 989 350 l 1001 332 q 1029 242 1029 292 q 983 128 1029 175 q 869 81 936 81 q 775 111 811 81 l 758 125 l 738 117 q 556 81 647 81 q 321 140 433 81 q 81 556 81 268 q 142 801 81 694 q 326 975 206 914 q 556 1031 438 1031 m 158 796 q 104 671 117 725 q 97 556 97 636 q 157 317 97 422 q 336 151 219 206 q 556 97 449 97 q 757 142 653 97 q 763 144 760 143 l 768 139 q 869 97 810 97 l 869 97 q 972 140 929 97 q 1014 242 1014 182 q 974 342 1014 301 l 969 346 l 972 350 q 1014 556 1014 442 q 954 794 1014 688 q 782 957 894 900 q 556 1014 669 1014 q 328 957 433 1014 q 158 796 218 899 m 178 556 q 371 888 178 792 q 556 933 463 933 q 742 888 654 933 q 882 757 835 839 q 932 556 932 671 q 899 383 932 456 l 874 329 l 915 286 q 932 242 932 269 q 914 197 932 215 q 869 178 896 178 q 825 196 843 178 l 782 239 l 726 217 q 556 178 629 178 q 369 224 461 178 q 178 556 178 319 m 553 765 q 438 733 494 765 q 346 556 346 682 q 517 350 346 379 l 589 338 l 574 408 q 571 438 571 421 q 601 511 571 481 q 674 542 631 542 q 701 538 686 542 l 771 518 l 764 590 q 697 717 757 669 q 557 765 638 765 l 553 765 m 443 556 q 556 668 443 660 q 642 636 613 664 q 532 579 578 626 q 476 468 486 532 q 443 556 443 492 m 551 806 q 418 768 485 806 q 306 556 306 704 q 510 311 306 350 l 640 286 l 614 415 l 611 438 q 629 483 611 464 q 674 501 647 501 q 692 499 682 501 l 818 463 l 804 594 q 693 768 792 714 q 560 806 624 806 l 551 806 m 556 725 l 556 725 q 724 585 707 718 l 725 574 l 713 576 q 674 582 688 582 q 572 540 614 582 q 531 438 531 497 l 536 388 l 525 390 q 386 556 386 425 q 457 697 386 658 q 556 725 503 722 m 553 708 q 403 556 403 708 q 453 435 403 471 l 507 396 l 517 463 q 560 551 524 514 q 649 596 597 589 l 743 610 l 646 683 q 558 708 601 708 l 553 708 m 513 617 q 489 590 500 604 q 513 617 494 608 z "},"R":{"ha":1001,"x_min":0,"x_max":953,"o":"m 819 349 q 864 243 864 304 q 822 133 865 178 q 713 89 778 89 q 604 133 649 89 l 414 325 l 394 325 l 394 242 q 350 133 394 178 q 242 89 306 89 q 133 133 178 89 q 89 242 89 178 l 89 869 q 133 978 89 933 q 242 1022 178 1022 l 478 1022 q 663 982 575 1022 q 808 863 757 939 q 864 674 864 781 q 750 419 864 515 l 819 349 m 394 629 l 476 629 q 561 674 561 629 q 476 717 561 717 l 394 717 l 394 629 m 242 1063 q 105 1006 161 1063 q 49 869 49 950 l 49 242 q 105 105 49 161 q 242 49 161 49 q 378 105 322 49 q 435 242 435 161 l 435 246 l 575 104 q 713 49 631 49 q 850 105 794 49 q 904 243 906 161 q 849 378 903 324 l 849 378 l 808 418 q 904 674 904 521 q 842 885 904 793 q 669 1024 781 978 q 478 1063 576 1063 l 242 1063 m 129 242 l 129 869 q 163 949 129 915 q 242 982 196 982 l 478 982 q 638 949 558 982 q 824 674 824 871 q 724 450 824 533 l 690 422 l 792 319 q 824 243 824 288 q 792 163 824 196 q 713 129 760 129 q 633 163 667 129 l 432 365 l 354 365 l 354 242 q 322 162 354 194 q 242 129 289 129 q 163 163 196 129 q 129 242 129 196 m 354 757 l 354 589 l 476 589 q 558 607 525 589 q 601 674 601 629 q 558 739 601 717 q 476 757 524 757 l 354 757 m 476 676 q 503 674 489 676 q 476 669 489 669 l 435 669 l 435 676 l 476 676 m 242 1071 q 99 1012 158 1071 q 40 869 40 953 l 40 242 q 99 99 40 158 q 242 40 158 40 q 380 94 322 40 q 442 228 438 147 l 569 99 q 713 40 628 40 q 856 99 799 40 q 913 244 914 158 q 854 383 913 328 l 854 383 l 819 419 q 913 674 913 522 q 849 890 913 796 q 672 1031 786 983 q 478 1071 575 1071 l 242 1071 m 138 242 l 138 869 q 168 943 138 913 q 242 974 199 974 l 478 974 q 635 942 558 974 q 815 674 815 865 q 718 456 815 536 l 678 422 l 786 314 q 815 243 815 285 q 787 168 817 199 q 713 138 757 138 q 639 168 669 138 l 435 374 l 346 374 l 346 242 q 315 168 346 199 q 242 138 285 138 q 168 168 199 138 q 138 242 138 199 m 242 1111 q 71 1040 142 1111 q 0 869 0 969 l 0 242 q 71 71 0 142 q 242 0 142 0 q 413 71 342 0 q 464 149 446 104 l 542 71 q 713 0 613 0 q 885 71 815 0 q 953 244 954 142 q 882 413 953 342 l 872 422 q 953 674 953 532 q 883 913 953 808 q 688 1068 813 1017 q 478 1111 583 1111 l 242 1111 m 81 242 l 81 869 q 128 983 81 936 q 242 1031 175 1031 l 478 1031 q 667 989 578 1031 q 815 867 763 944 q 872 674 872 783 q 789 446 872 533 l 763 418 l 826 354 q 872 244 872 308 q 828 128 874 175 q 713 81 782 81 q 599 128 646 81 l 407 321 l 401 231 q 351 124 397 167 q 242 81 306 81 q 128 128 175 81 q 81 242 81 175 m 242 1014 q 140 972 182 1014 q 97 869 97 929 l 97 242 q 140 140 97 182 q 242 97 182 97 q 344 140 301 97 q 386 242 386 182 l 386 333 l 418 333 q 610 139 429 319 q 713 97 651 97 l 713 97 q 814 139 772 97 q 856 240 856 181 l 856 243 q 814 343 856 301 l 738 419 l 744 425 q 856 674 856 514 q 650 978 856 892 q 478 1014 564 1014 l 242 1014 m 178 242 l 178 869 q 197 915 178 896 q 242 933 215 933 l 478 933 q 622 903 553 933 q 736 811 697 869 q 775 674 775 753 q 693 488 775 556 l 618 425 l 757 286 q 775 243 775 268 q 758 197 775 215 q 713 178 740 178 q 668 196 686 178 l 451 414 l 306 414 l 306 242 q 287 197 306 215 q 242 178 268 178 q 197 197 215 178 q 178 242 178 215 m 140 140 m 346 765 l 346 581 l 476 581 q 564 601 528 581 q 610 674 610 626 q 564 744 610 719 q 476 765 526 765 l 346 765 m 306 806 l 306 540 l 476 540 q 578 563 531 540 q 650 674 650 596 q 579 783 650 750 q 476 806 532 806 l 306 806 m 476 725 q 568 674 568 725 q 476 621 568 621 l 386 621 l 386 725 l 476 725 z "},"S":{"ha":1043,"x_min":0,"x_max":993,"o":"m 751 1022 q 859 978 814 1022 q 904 871 904 933 q 860 763 904 807 q 751 718 815 718 l 439 718 q 433 714 433 718 q 439 708 433 708 l 556 708 q 722 674 644 708 q 853 568 806 636 q 904 399 904 494 q 710 119 904 197 q 556 89 633 89 l 242 89 q 133 133 178 89 q 89 242 89 178 q 133 350 89 306 q 242 394 178 394 l 554 394 q 583 399 565 394 q 554 403 565 403 l 438 403 q 140 543 238 403 q 89 713 89 617 q 140 883 89 810 q 282 992 192 956 q 438 1022 358 1022 l 751 1022 m 438 1063 q 253 1024 340 1063 q 107 906 160 981 q 49 713 49 822 q 201 431 49 529 q 92 363 135 417 q 49 242 49 310 q 105 105 49 161 q 242 49 161 49 l 556 49 q 886 207 776 49 q 944 399 944 290 q 790 682 944 583 q 901 748 858 694 q 944 871 944 801 q 888 1006 944 950 q 751 1063 831 1063 l 438 1063 m 297 471 q 129 713 129 538 q 297 954 129 888 q 438 982 367 982 l 751 982 q 831 949 797 982 q 864 871 864 917 q 831 791 864 824 q 751 758 799 758 l 439 758 q 393 714 393 758 q 439 668 393 668 l 556 668 q 696 640 626 668 q 864 399 864 574 q 696 157 864 224 q 556 129 626 129 l 242 129 q 163 163 196 129 q 129 242 129 196 q 162 322 129 289 q 242 354 194 354 l 554 354 l 592 358 l 593 438 q 554 443 571 443 l 438 443 q 297 471 367 443 m 438 1071 q 249 1031 338 1071 q 100 910 156 988 q 40 713 40 825 q 182 433 40 535 q 100 385 135 419 q 40 242 40 325 q 99 99 40 158 q 242 40 158 40 l 556 40 q 744 81 656 40 q 893 201 839 124 q 953 399 953 288 q 808 679 953 578 q 893 729 856 693 q 953 871 953 788 q 894 1013 953 954 q 751 1071 835 1071 l 438 1071 m 394 668 q 439 660 419 660 l 556 660 q 693 632 624 660 q 856 399 856 567 q 692 164 856 229 q 556 138 625 138 l 242 138 q 168 168 199 138 q 138 242 138 199 q 168 315 138 285 q 242 346 199 346 l 554 346 l 593 350 l 596 444 q 554 451 572 451 l 438 451 q 300 478 367 451 q 138 713 138 543 q 301 947 138 882 q 438 974 368 974 l 751 974 q 825 944 794 974 q 856 871 856 914 q 825 797 856 828 q 751 767 794 767 l 439 767 q 397 761 421 767 q 381 711 381 738 q 394 668 381 688 m 438 1111 q 231 1067 326 1111 q 67 933 128 1019 q 0 713 0 838 q 108 443 0 550 q 0 242 0 371 q 71 71 0 142 q 242 0 142 0 l 556 0 q 763 44 667 0 q 926 179 865 92 q 993 399 993 274 q 882 669 993 561 q 993 871 993 740 q 923 1041 993 971 q 751 1111 853 1111 l 438 1111 m 81 242 q 194 394 81 358 l 272 419 l 206 467 q 81 713 81 556 q 281 1000 81 921 q 438 1031 357 1031 l 751 1031 q 865 984 818 1031 q 913 871 913 938 q 881 775 913 817 q 797 718 850 733 l 717 694 l 785 646 q 913 399 913 554 q 713 111 913 190 q 556 81 636 81 l 242 81 q 128 128 175 81 q 81 242 81 175 m 438 1014 q 146 876 242 1014 q 97 713 97 807 q 285 440 97 515 q 438 411 358 411 l 554 411 l 553 386 l 242 386 q 140 344 182 386 q 97 242 97 301 q 140 140 97 182 q 242 97 182 97 l 556 97 q 849 238 750 97 q 896 399 896 306 q 708 669 896 594 q 556 700 632 700 l 439 700 q 424 701 432 700 q 421 713 421 710 q 424 725 421 719 q 439 726 432 726 l 751 726 q 854 768 813 726 q 896 871 896 810 q 853 972 896 931 q 751 1014 811 1014 l 438 1014 m 213 594 q 178 713 178 644 q 317 910 178 854 q 438 933 375 933 l 751 933 q 797 915 778 933 q 815 871 815 897 q 797 826 815 844 q 751 807 778 807 l 439 807 q 388 800 419 807 l 375 797 l 365 786 q 340 714 340 757 q 360 646 340 672 l 368 635 l 381 629 q 439 619 413 619 l 556 619 q 781 517 708 619 q 815 399 815 467 q 676 201 815 257 q 556 178 618 178 l 242 178 q 197 197 215 178 q 178 242 178 215 q 197 287 178 268 q 242 306 215 306 l 557 306 l 632 314 l 638 476 l 606 485 q 554 492 579 492 l 438 492 q 213 594 285 492 z "},"T":{"ha":1085,"x_min":0,"x_max":1032,"o":"m 943 869 q 899 761 943 806 q 790 717 854 717 l 668 717 l 668 242 q 624 133 668 178 q 515 89 579 89 q 408 133 451 89 q 364 242 364 178 l 364 717 l 242 717 q 133 761 178 717 q 89 869 89 806 q 133 978 89 933 q 242 1022 178 1022 l 790 1022 q 899 978 854 1022 q 943 869 943 933 m 242 1063 q 105 1006 161 1063 q 49 869 49 950 q 105 733 49 789 q 242 676 161 676 l 324 676 l 324 242 q 379 105 324 161 q 515 49 435 49 q 652 105 596 49 q 708 242 708 161 l 708 676 l 790 676 q 927 733 871 676 q 983 869 983 789 q 927 1006 983 950 q 790 1063 871 1063 l 242 1063 m 129 869 q 163 949 129 915 q 242 982 196 982 l 790 982 q 870 949 838 982 q 903 869 903 917 q 870 790 903 822 q 790 757 838 757 l 628 757 l 628 242 q 595 162 628 194 q 515 129 563 129 q 437 163 469 129 q 404 242 404 196 l 404 757 l 242 757 q 162 790 194 757 q 129 869 129 822 m 242 1071 q 99 1012 158 1071 q 40 869 40 953 q 99 727 40 786 q 242 668 158 668 l 315 668 l 315 242 q 374 99 315 158 q 515 40 432 40 q 658 99 600 40 q 717 242 717 157 l 717 668 l 790 668 q 933 726 875 668 q 992 869 992 785 q 933 1013 992 954 q 790 1071 875 1071 l 242 1071 m 138 869 q 168 943 138 913 q 242 974 199 974 l 790 974 q 865 944 835 974 q 894 869 894 914 q 865 795 894 825 q 790 765 835 765 l 619 765 l 619 242 q 590 167 619 197 q 515 138 560 138 q 442 168 472 138 q 413 242 413 199 l 413 765 l 242 765 q 168 796 199 765 q 138 869 138 826 m 242 1111 q 71 1040 142 1111 q 0 869 0 969 q 70 698 0 768 q 242 628 140 628 l 275 628 l 275 242 q 345 70 275 140 q 515 0 415 0 q 687 70 617 0 q 757 242 757 140 l 757 628 l 790 628 q 962 698 892 628 q 1032 869 1032 768 q 962 1041 1032 971 q 790 1111 892 1111 l 242 1111 m 81 869 q 128 983 81 936 q 242 1031 175 1031 l 790 1031 q 905 984 858 1031 q 951 869 951 938 q 905 755 951 801 q 790 708 858 708 l 676 708 l 676 242 q 630 127 676 174 q 515 81 583 81 q 402 128 449 81 q 356 242 356 175 l 356 708 l 242 708 q 128 756 175 708 q 81 869 81 803 m 242 1014 q 140 972 182 1014 q 97 869 97 929 l 97 869 q 139 767 97 808 q 242 725 181 725 l 372 725 l 372 242 q 414 140 372 182 q 515 97 456 97 q 618 139 576 97 q 660 242 660 181 l 660 725 l 790 725 q 894 767 851 725 q 936 869 936 808 q 894 972 936 931 q 790 1014 851 1014 l 242 1014 m 178 869 q 197 915 178 896 q 242 933 215 933 l 790 933 q 836 915 818 933 q 854 869 854 897 q 836 824 854 842 q 790 806 818 806 l 579 806 l 579 242 q 561 196 579 214 q 515 178 543 178 q 471 197 489 178 q 453 242 453 215 l 453 806 l 242 806 q 197 824 215 806 q 178 869 178 843 m 140 767 z "},"U":{"ha":1085,"x_min":0,"x_max":1032,"o":"m 790 1022 q 899 978 854 1022 q 943 869 943 933 l 943 556 q 893 329 943 435 q 744 154 840 215 q 515 89 643 89 q 286 153 385 89 q 136 338 188 218 q 89 556 89 446 l 89 869 q 133 978 89 933 q 242 1022 178 1022 q 350 978 306 1022 q 394 869 394 933 l 394 557 q 421 447 394 492 q 515 394 454 394 q 610 447 578 394 q 638 557 638 490 l 638 869 q 682 978 638 933 q 790 1022 726 1022 m 597 869 l 597 557 q 515 435 597 435 q 451 476 472 435 q 435 557 435 510 l 435 869 q 378 1006 435 950 q 242 1063 322 1063 q 105 1006 161 1063 q 49 869 49 950 l 49 556 q 103 308 49 422 q 267 118 161 188 q 515 49 374 49 q 767 120 657 49 q 933 321 876 192 q 983 556 983 436 l 983 869 q 927 1006 983 950 q 790 1063 871 1063 q 653 1006 710 1063 q 597 869 597 950 m 790 982 q 870 949 838 982 q 903 869 903 917 l 903 556 q 857 349 903 446 q 721 187 808 244 q 515 129 633 129 q 172 354 271 129 q 129 556 129 453 l 129 869 q 163 949 129 915 q 242 982 196 982 q 322 949 289 982 q 354 869 354 917 l 354 557 q 381 438 354 493 q 515 354 421 354 q 650 436 611 354 q 678 557 678 494 l 678 869 q 711 949 678 915 q 790 982 744 982 m 589 869 l 589 557 q 569 474 589 515 q 515 443 556 443 q 443 557 443 443 l 443 869 q 384 1012 443 953 q 242 1071 325 1071 q 99 1012 158 1071 q 40 869 40 953 l 40 556 q 96 306 40 424 q 261 113 156 182 q 515 40 372 40 q 771 113 660 40 q 940 318 882 185 q 992 556 992 435 l 992 869 q 933 1012 992 953 q 790 1071 874 1071 q 648 1012 707 1071 q 589 869 589 953 m 790 974 q 864 943 833 974 q 894 869 894 913 l 894 556 q 851 357 894 456 q 515 138 756 138 q 181 357 276 138 q 138 556 138 456 l 138 869 q 168 943 138 913 q 242 974 199 974 q 315 943 285 974 q 346 869 346 913 l 346 557 q 374 433 346 492 q 515 346 415 346 q 658 432 617 346 q 686 557 686 490 l 686 869 q 717 943 686 913 q 790 974 747 974 m 549 869 l 549 557 q 533 490 549 525 q 515 483 531 483 q 499 493 503 483 q 483 557 483 525 l 483 869 q 413 1040 483 969 q 242 1111 342 1111 q 71 1040 142 1111 q 0 869 0 969 l 0 556 q 61 288 0 414 q 239 79 125 154 q 515 0 360 0 q 794 79 672 0 q 978 303 915 158 q 1032 556 1032 426 l 1032 869 q 962 1041 1032 971 q 790 1111 892 1111 q 619 1040 690 1111 q 549 869 549 969 m 629 557 l 629 869 q 676 983 629 936 l 676 983 q 790 1031 724 1031 q 904 983 857 1031 q 951 869 951 936 l 951 556 q 900 325 951 435 q 749 147 844 210 q 515 81 646 81 q 282 147 383 81 q 128 335 181 214 q 81 556 81 442 l 81 869 q 128 983 81 936 q 242 1031 175 1031 q 356 983 308 1031 q 403 869 403 936 l 403 557 q 428 453 403 494 q 515 403 457 403 q 604 453 574 403 q 629 557 629 494 m 646 869 l 646 557 q 617 440 646 488 q 515 386 581 386 q 415 442 450 386 q 386 557 386 488 l 386 869 q 344 972 386 929 q 242 1014 301 1014 q 140 972 182 1014 q 97 869 97 929 l 97 556 q 146 333 97 438 q 292 161 199 221 q 515 97 388 97 q 889 342 782 97 q 936 556 936 449 l 936 869 q 894 972 936 931 q 790 1014 851 1014 q 688 972 731 1014 q 646 869 646 929 m 515 306 q 694 415 642 306 q 726 557 726 482 l 726 869 q 745 915 726 896 q 790 933 764 933 q 835 915 817 933 q 854 869 854 896 l 854 556 q 814 374 854 467 q 515 178 729 178 q 217 374 303 178 q 178 556 178 463 l 178 869 q 197 915 178 896 q 242 933 215 933 q 287 915 268 933 q 306 869 306 896 l 306 557 q 336 417 306 481 q 515 306 389 306 z "},"V":{"ha":1167,"x_min":0,"x_max":1111,"o":"m 869 1022 q 938 1006 904 1022 q 1022 869 1022 963 q 1006 801 1022 835 l 692 174 q 556 89 650 89 q 419 174 461 89 l 106 801 q 89 869 89 835 q 174 1006 89 964 q 242 1022 207 1022 q 378 938 336 1022 l 556 582 l 732 938 q 869 1022 774 1022 m 696 956 l 556 674 l 414 956 q 242 1063 360 1063 q 156 1042 197 1063 q 49 869 49 989 q 69 783 49 825 l 383 156 q 556 49 436 49 q 728 156 675 49 l 1042 783 q 1063 869 1063 825 q 956 1042 1063 988 q 869 1063 914 1063 q 696 956 749 1063 m 769 919 q 869 982 800 982 q 919 969 894 982 q 981 869 981 939 q 969 821 981 843 l 656 192 q 556 129 625 129 q 456 192 488 129 l 142 819 q 129 869 129 844 q 192 969 129 939 q 242 982 217 982 q 342 919 311 982 l 556 492 l 769 919 m 689 960 l 556 692 l 422 960 q 242 1071 367 1071 q 151 1049 196 1071 q 40 869 40 993 q 63 779 40 824 l 375 151 q 556 40 431 40 q 735 151 679 40 l 1049 781 q 1071 869 1071 825 q 960 1049 1071 993 q 869 1071 915 1071 q 689 960 744 1071 m 776 917 q 869 974 804 974 q 917 963 894 974 q 974 869 974 935 q 963 824 974 846 l 649 194 q 556 138 621 138 q 463 194 490 138 l 149 824 q 138 869 138 846 q 194 963 138 933 q 242 974 217 974 q 335 917 307 974 l 556 474 l 776 917 m 653 978 l 556 782 l 458 978 q 242 1111 392 1111 q 133 1085 186 1111 q 0 869 0 1018 q 26 761 0 814 l 339 133 q 556 0 406 0 q 771 133 704 0 l 1085 763 q 1111 869 1111 815 q 978 1085 1111 1018 q 869 1111 925 1111 q 653 978 719 1111 m 869 1031 q 942 1013 907 1031 q 1029 869 1029 968 q 1013 799 1029 832 l 699 169 q 556 81 654 81 q 411 169 456 81 l 99 797 q 81 869 81 833 q 169 1013 81 968 q 242 1031 206 1031 q 386 942 342 1031 l 556 600 l 725 942 q 869 1031 769 1031 m 740 935 l 556 564 l 371 935 q 242 1014 332 1014 q 176 999 207 1014 q 97 869 97 958 q 113 804 97 835 l 426 176 q 556 97 465 97 q 685 176 646 97 l 999 806 q 1014 869 1014 836 q 935 999 1014 960 q 869 1014 904 1014 q 740 935 779 1014 m 813 899 q 869 933 829 933 q 914 915 896 933 q 932 869 932 896 q 926 843 932 854 l 613 213 q 556 178 596 178 q 499 213 515 178 l 185 842 q 178 869 178 856 q 196 915 178 897 q 242 933 214 933 q 299 899 282 933 l 556 382 l 813 899 z "},"W":{"ha":1167,"x_min":0,"x_max":1111,"o":"m 869 1022 q 978 978 933 1022 q 1022 869 1022 933 l 1022 242 q 978 133 1022 178 q 869 89 933 89 q 750 146 796 89 l 556 390 l 361 146 q 242 89 315 89 q 133 133 178 89 q 89 242 89 178 l 89 869 q 133 978 89 933 q 242 1022 178 1022 q 350 978 306 1022 q 394 869 394 933 l 394 676 l 436 729 q 557 786 481 786 q 676 729 632 786 l 718 676 l 718 869 q 763 977 718 932 q 869 1022 807 1022 m 735 1006 l 735 1006 q 678 869 678 949 l 678 785 q 557 826 626 826 q 435 785 486 826 l 435 869 q 378 1006 435 950 q 242 1063 322 1063 q 105 1006 161 1063 q 49 869 49 950 l 49 242 q 105 104 49 160 q 242 49 161 49 q 392 121 333 49 l 556 325 l 718 121 q 869 49 775 49 q 1006 105 950 49 q 1063 242 1063 161 l 1063 869 q 1006 1006 1063 950 q 869 1063 950 1063 q 735 1006 790 1063 m 758 869 q 792 949 758 915 l 792 949 q 869 982 825 982 q 949 949 917 982 q 981 869 981 917 l 981 242 q 949 162 981 194 q 869 129 917 129 q 782 171 815 129 l 556 454 l 329 171 q 242 129 296 129 q 162 162 194 129 q 129 242 129 194 l 129 869 q 163 949 129 915 q 242 982 196 982 q 322 949 289 982 q 354 869 354 917 l 354 563 l 468 704 q 557 746 501 746 q 644 704 611 746 l 758 563 l 758 869 m 669 869 l 669 800 q 557 835 619 835 q 443 800 494 835 l 443 869 q 384 1012 443 953 q 242 1071 325 1071 q 99 1012 158 1071 q 40 869 40 953 l 40 242 q 99 99 40 157 q 242 40 158 40 q 399 115 339 40 l 556 313 l 713 115 q 869 40 772 40 q 1033 125 974 40 q 1071 242 1071 178 l 1071 869 q 1012 1012 1071 953 q 869 1071 953 1071 q 728 1012 786 1071 q 669 869 669 953 m 767 869 q 797 943 767 913 l 797 943 q 869 974 828 974 q 943 943 913 974 q 974 869 974 913 l 974 242 q 944 167 974 197 q 869 138 914 138 q 788 176 818 138 l 556 468 l 322 176 q 242 138 292 138 q 167 167 197 138 q 138 242 138 197 l 138 869 q 168 943 138 913 q 242 974 199 974 q 315 943 285 974 q 346 869 346 913 l 346 539 l 475 699 q 557 738 507 738 q 639 699 608 738 l 767 539 l 767 869 m 729 1011 m 700 1040 l 700 1040 q 629 869 629 969 l 629 864 q 557 875 594 875 q 483 864 519 875 l 483 869 q 413 1040 483 969 q 242 1111 342 1111 q 71 1040 142 1111 q 0 869 0 969 l 0 242 q 71 70 0 140 q 242 0 142 0 q 431 90 358 0 l 556 247 l 681 90 q 869 0 753 0 q 1067 101 994 0 q 1111 242 1111 164 l 1111 869 q 1041 1041 1111 971 q 869 1111 971 1111 q 700 1040 771 1111 m 869 1031 q 983 983 936 1031 q 1029 869 1029 936 l 1029 242 q 983 127 1029 174 q 869 81 938 81 q 744 142 792 81 q 556 376 717 175 l 367 142 q 242 81 318 81 q 127 127 174 81 q 81 242 81 174 l 81 869 q 128 983 81 936 q 242 1031 175 1031 q 356 983 308 1031 q 403 869 403 936 l 403 722 l 467 767 q 557 794 507 794 q 647 767 608 794 l 710 722 l 710 869 q 756 983 710 936 q 869 1031 803 1031 m 726 869 l 726 654 l 669 724 q 557 778 625 778 q 443 725 483 778 l 431 708 q 386 654 410 681 l 386 869 q 344 972 386 929 q 242 1014 301 1014 q 140 972 182 1014 q 97 869 97 929 l 97 242 q 139 139 97 181 q 242 97 181 97 q 354 151 311 97 l 556 403 l 757 151 q 869 97 800 97 q 972 140 929 97 q 1014 242 1014 182 l 1014 869 q 972 972 1014 931 q 869 1014 931 1014 q 768 972 810 1014 q 726 869 726 929 m 807 869 q 825 915 807 896 q 869 933 843 933 q 914 915 896 933 q 932 869 932 896 l 932 242 q 914 197 932 215 q 869 178 896 178 q 819 201 839 178 l 556 532 l 292 201 q 242 178 272 178 q 197 197 215 178 q 178 242 178 215 l 178 869 q 197 915 178 896 q 242 933 215 933 q 287 915 268 933 q 306 869 306 896 l 306 425 l 507 675 q 557 697 525 697 q 607 674 588 697 l 807 424 l 807 869 z "},"X":{"ha":1167,"x_min":0,"x_max":1111,"o":"m 978 349 q 1022 242 1022 304 q 978 133 1022 178 q 869 89 933 89 q 761 133 806 89 l 556 340 l 349 133 q 242 89 304 89 q 133 133 178 89 q 89 242 89 178 q 133 349 89 304 l 340 556 l 133 763 q 89 869 89 807 q 134 978 89 933 q 243 1022 179 1024 q 349 978 306 1021 l 556 771 l 761 978 q 869 1022 806 1022 q 977 977 932 1022 q 1022 869 1022 932 q 978 763 1022 807 l 771 556 l 978 349 m 49 869 q 104 733 49 789 l 282 556 l 104 378 q 49 242 49 322 q 105 105 49 161 q 242 49 161 49 q 378 104 322 49 l 556 282 l 733 104 q 869 49 789 49 q 1006 105 950 49 q 1063 242 1063 161 q 1006 378 1063 321 l 828 556 l 1006 733 q 1063 869 1063 790 q 1006 1006 1063 950 q 869 1063 950 1063 q 733 1007 789 1063 l 556 828 l 378 1007 q 243 1063 324 1061 q 106 1007 163 1064 q 49 869 49 950 m 129 242 q 163 321 129 288 l 397 556 l 163 790 q 129 869 129 824 q 163 949 129 917 q 242 982 196 982 q 321 949 288 981 l 556 714 l 790 949 q 869 982 824 982 q 948 949 915 982 q 981 869 981 915 q 949 790 981 822 l 714 556 l 949 321 q 981 242 981 289 q 948 163 981 196 q 869 129 915 129 q 790 163 824 129 l 556 397 l 321 163 q 242 129 288 129 q 163 163 196 129 q 129 242 129 196 m 1006 378 m 40 869 q 99 728 40 786 l 271 556 l 99 383 q 40 242 40 325 q 99 99 40 158 q 242 40 158 40 q 383 99 325 40 l 556 271 l 728 99 q 869 40 786 40 q 1012 99 953 40 q 1071 242 1071 158 q 1011 383 1071 325 l 1011 383 l 840 556 l 1011 728 q 1071 869 1071 788 q 1012 1012 1071 953 q 869 1071 953 1071 q 728 1013 786 1071 l 556 840 l 383 1013 q 244 1071 326 1069 q 100 1013 160 1072 q 40 869 40 954 m 138 242 q 168 315 138 285 l 408 556 l 168 796 q 138 869 138 826 q 168 943 138 913 q 242 974 199 974 q 315 943 286 972 l 556 703 l 796 943 q 869 974 826 974 q 943 943 913 974 q 974 869 974 913 q 943 796 974 826 l 703 556 l 943 315 q 974 242 974 285 q 943 168 974 199 q 869 138 913 138 q 796 168 826 138 l 556 408 l 315 168 q 242 138 285 138 q 168 168 199 138 q 138 242 138 199 m 0 869 q 71 699 0 769 l 214 556 l 71 413 q 0 242 0 342 q 71 71 0 142 q 242 0 142 0 q 413 71 342 0 l 556 214 l 699 71 q 869 0 769 0 q 1040 71 969 0 q 1111 242 1111 142 q 1040 413 1111 342 l 1040 410 q 979 474 1018 435 l 897 556 l 1040 699 q 1111 869 1111 769 q 1040 1040 1111 969 q 869 1111 969 1111 q 699 1040 769 1111 l 556 897 l 413 1040 q 244 1111 343 1110 q 72 1042 143 1113 q 0 869 0 972 m 81 242 q 128 354 81 307 l 328 556 l 128 756 q 81 869 81 803 q 128 983 81 936 l 128 983 q 243 1031 175 1032 q 354 983 308 1029 l 556 782 l 756 983 q 869 1031 803 1031 q 983 983 936 1031 q 1029 869 1029 936 q 983 756 1029 801 l 782 556 l 983 354 q 1029 242 1029 308 q 983 128 1029 175 q 869 81 936 81 q 756 128 803 81 l 556 328 l 354 128 q 242 81 307 81 q 128 128 175 81 q 81 242 81 175 m 71 1040 m 97 869 q 139 768 97 810 l 351 556 l 139 343 q 97 242 97 301 q 140 140 97 182 q 242 97 182 97 q 343 139 301 97 l 556 351 l 768 139 q 869 97 810 97 q 972 140 929 97 q 1014 242 1014 182 q 972 343 1014 301 l 760 556 l 972 768 q 1014 869 1014 810 q 972 972 1014 929 q 869 1014 929 1014 q 768 972 810 1014 l 556 760 l 343 972 q 243 1014 303 1013 q 140 973 182 1015 q 97 869 97 931 m 178 242 q 196 286 178 268 l 465 556 l 196 825 q 178 869 178 843 q 197 915 178 896 q 242 933 215 933 q 286 915 269 932 l 556 644 l 825 915 q 869 933 843 933 q 914 915 896 933 q 932 869 932 896 q 914 825 932 843 l 644 556 l 914 286 q 932 242 932 268 q 914 197 932 215 q 869 178 896 178 q 825 196 843 178 l 556 465 l 286 196 q 242 178 268 178 q 197 197 215 178 q 178 242 178 215 m 140 140 z "},"Y":{"ha":1167,"x_min":0,"x_max":1111,"o":"m 1022 869 q 978 763 1022 807 l 708 493 l 708 242 q 664 133 708 178 q 556 89 619 89 q 447 133 492 89 q 403 242 403 178 l 403 493 l 133 763 q 89 869 89 807 q 133 978 89 933 q 242 1022 178 1022 q 349 978 304 1022 l 556 771 l 761 978 q 869 1022 806 1022 q 977 977 932 1022 q 1022 869 1022 932 m 733 1007 l 556 828 l 378 1007 q 242 1063 322 1063 q 105 1006 161 1063 q 49 869 49 950 q 104 733 49 789 l 363 476 l 363 242 q 419 105 363 161 q 556 49 475 49 q 692 105 636 49 q 749 242 749 161 l 749 476 l 1006 733 q 1063 869 1063 790 q 1006 1006 1063 950 q 869 1063 950 1063 q 733 1007 789 1063 m 790 949 q 869 982 824 982 q 948 949 915 982 q 981 869 981 915 q 949 790 981 822 l 668 510 l 668 242 q 635 163 668 196 q 556 129 601 129 q 476 162 508 129 q 443 242 443 194 l 443 510 l 163 790 q 129 869 129 824 q 163 949 129 915 q 242 982 196 982 q 321 949 288 982 l 556 714 l 790 949 m 728 1013 l 556 840 l 383 1013 q 242 1071 325 1071 q 99 1012 158 1071 q 40 869 40 953 q 99 728 40 786 l 354 472 l 354 242 q 413 99 354 158 q 556 40 472 40 q 698 99 639 40 q 757 242 757 158 l 757 472 l 1011 728 q 1071 869 1071 788 q 1012 1012 1071 953 q 869 1071 953 1071 q 728 1013 786 1071 m 796 943 q 869 974 826 974 q 943 943 913 974 q 974 869 974 913 q 943 796 974 826 l 660 513 l 660 242 q 629 168 660 199 q 556 138 599 138 q 482 168 513 138 q 451 242 451 199 l 451 513 l 168 796 q 138 869 138 826 q 168 943 138 913 q 242 974 199 974 q 315 943 285 974 l 556 703 l 796 943 m 699 1040 l 556 897 l 413 1040 q 242 1111 342 1111 q 71 1040 142 1111 q 0 869 0 969 l 0 869 q 71 699 0 769 l 314 456 l 314 242 q 385 71 314 142 q 556 0 456 0 q 726 71 656 0 q 797 242 797 142 l 797 456 l 1040 699 q 1111 869 1111 769 q 1040 1040 1111 969 q 869 1111 969 1111 q 699 1040 769 1111 m 869 1031 q 983 983 936 1031 q 1029 869 1029 936 q 983 757 1029 803 l 717 489 l 717 242 q 669 128 717 175 q 556 81 622 81 q 442 128 489 81 q 394 242 394 175 l 394 489 l 128 757 q 81 869 81 804 q 128 983 81 936 q 242 1031 175 1031 q 354 983 307 1031 l 556 782 l 756 983 q 869 1031 803 1031 m 768 972 l 556 760 l 343 972 q 242 1014 301 1014 q 140 972 182 1014 q 97 869 97 929 l 97 869 q 139 768 97 810 l 411 496 l 411 242 q 453 140 411 182 q 556 97 496 97 q 658 140 615 97 q 700 242 700 182 l 700 496 l 972 768 q 1014 869 1014 810 q 972 972 1014 929 q 869 1014 929 1014 q 768 972 810 1014 m 825 915 q 869 933 843 933 q 914 915 896 933 q 932 869 932 896 q 914 825 932 843 l 619 529 l 619 242 q 601 197 619 215 q 556 178 582 178 q 510 197 529 178 q 492 242 492 215 l 492 529 l 196 825 q 178 869 178 843 q 197 915 178 896 q 242 933 215 933 q 286 915 268 933 l 556 644 l 825 915 z "},"Z":{"ha":1167,"x_min":0,"x_max":1111,"o":"m 869 1022 q 978 978 933 1022 q 1022 869 1022 933 q 978 763 1022 807 l 610 394 l 869 394 q 978 350 933 394 q 1022 242 1022 306 q 978 133 1022 178 q 869 89 933 89 l 242 89 q 133 133 178 89 q 89 242 89 178 q 133 349 89 304 l 500 717 l 242 717 q 133 761 178 717 q 89 869 89 806 q 133 978 89 933 q 242 1022 178 1022 l 869 1022 m 242 1063 q 105 1006 161 1063 q 49 869 49 950 q 105 733 49 789 q 242 676 161 676 l 403 676 l 104 378 q 49 242 49 322 q 135 81 49 138 q 242 49 183 49 l 869 49 q 1006 105 950 49 q 1063 242 1063 161 q 1006 378 1063 322 q 869 435 950 435 l 708 435 l 1006 733 q 1063 869 1063 790 q 976 1031 1063 972 q 869 1063 929 1063 l 242 1063 m 129 869 q 163 949 129 915 q 242 982 196 982 l 869 982 q 948 949 915 982 q 981 869 981 915 q 949 790 981 822 l 513 354 l 869 354 q 949 322 917 354 q 981 242 981 289 q 948 163 981 196 q 869 129 915 129 l 242 129 q 162 162 194 129 q 129 242 129 194 q 163 321 129 288 l 599 757 l 242 757 q 162 790 194 757 q 129 869 129 822 m 242 1071 q 99 1012 158 1071 q 40 869 40 953 q 99 727 40 786 q 242 668 158 668 l 383 668 l 99 383 q 40 242 40 325 q 129 74 40 132 q 242 40 179 40 l 869 40 q 1012 99 953 40 q 1071 242 1071 158 q 1012 384 1071 325 q 869 443 953 443 l 728 443 l 1011 728 q 1071 869 1071 788 q 981 1036 1071 976 q 869 1071 928 1071 l 242 1071 m 138 869 q 168 943 138 913 q 242 974 199 974 l 869 974 q 943 943 913 974 q 974 869 974 913 q 943 796 974 826 l 493 346 l 869 346 q 943 315 913 346 q 974 242 974 285 q 943 168 974 199 q 869 138 913 138 l 242 138 q 168 168 199 138 q 138 242 138 199 q 168 315 138 285 l 618 765 l 242 765 q 168 796 199 765 q 138 869 138 826 m 242 1111 q 71 1040 142 1111 q 0 869 0 969 q 70 698 0 768 q 242 628 140 628 l 286 628 l 71 413 q 0 242 0 342 q 107 40 0 113 q 242 0 167 0 l 869 0 q 1040 71 969 0 q 1111 242 1111 142 q 1040 413 1111 342 q 869 483 969 483 l 825 483 l 1040 699 q 1111 869 1111 769 q 1003 1071 1111 999 q 869 1111 943 1111 l 242 1111 m 81 869 q 128 983 81 936 q 242 1031 175 1031 l 869 1031 q 983 983 936 1031 q 1029 869 1029 936 q 983 756 1029 801 l 629 403 l 869 403 q 983 356 936 403 q 1029 242 1029 308 q 983 128 1029 175 q 869 81 936 81 l 242 81 q 128 128 175 81 q 81 242 81 175 q 128 354 81 307 l 481 708 l 242 708 q 128 756 175 708 q 81 869 81 803 m 242 1014 q 140 972 182 1014 q 97 869 97 929 l 97 869 q 139 767 97 808 q 242 725 181 725 l 519 725 l 139 343 q 97 242 97 301 l 97 242 q 161 121 97 164 q 242 97 196 97 l 869 97 q 972 140 929 97 q 1014 242 1014 182 q 972 344 1014 301 q 869 386 929 386 l 590 386 l 972 768 q 1014 869 1014 810 q 950 990 1014 949 q 869 1014 914 1014 l 242 1014 m 178 869 q 197 915 178 896 q 242 933 215 933 l 869 933 q 914 915 896 933 q 932 869 932 896 q 914 825 932 843 l 396 306 l 869 306 q 914 287 896 306 q 932 242 932 268 q 914 197 932 215 q 869 178 896 178 l 242 178 q 197 197 215 178 q 178 242 178 215 q 196 286 178 268 l 715 806 l 242 806 q 197 824 215 806 q 178 869 178 843 m 140 767 z "},"a":{"ha":1167,"x_min":0,"x_max":1111,"o":"m 1022 242 q 938 106 1022 149 q 869 89 904 89 q 732 174 774 89 l 657 325 l 454 325 l 378 174 q 242 89 335 89 q 174 106 207 89 q 89 242 89 147 q 106 310 89 276 l 419 938 q 556 1022 463 1022 q 692 938 649 1022 l 1006 310 q 1022 242 1022 276 m 383 956 l 69 328 q 49 242 49 286 q 156 69 49 122 q 242 49 197 49 q 414 156 360 49 l 479 285 l 632 285 l 696 156 q 869 49 749 49 q 956 69 914 49 q 1063 242 1063 124 q 1042 328 1063 286 l 728 956 q 556 1063 674 1063 q 383 956 438 1063 m 192 142 q 129 242 129 172 q 142 290 129 265 l 456 919 q 556 982 486 982 q 656 919 625 982 l 969 292 q 981 242 981 269 q 919 142 981 172 q 869 129 894 129 q 769 192 801 129 l 682 365 l 429 365 l 342 192 q 242 129 310 129 q 192 142 217 129 m 375 960 l 63 331 q 40 242 40 286 q 151 63 40 118 q 242 40 196 40 q 422 151 368 40 l 483 276 l 626 276 l 689 151 q 869 40 744 40 q 960 63 915 40 q 1071 242 1071 118 q 1049 332 1071 288 l 735 960 q 556 1071 679 1071 q 375 960 431 1071 m 194 149 q 138 242 138 178 q 149 288 138 265 l 463 917 q 556 974 490 974 q 649 917 621 974 l 963 288 q 974 242 974 265 q 917 149 974 178 q 869 138 894 138 q 776 194 806 138 l 686 374 l 424 374 l 335 194 q 242 138 307 138 q 194 149 217 138 m 339 978 l 25 349 q 0 242 0 299 q 133 26 0 93 q 242 0 186 0 q 458 133 393 0 l 508 236 l 601 236 l 653 133 q 869 0 719 0 q 978 26 925 0 q 1111 242 1111 93 q 1085 350 1111 297 l 771 978 q 556 1111 704 1111 q 339 978 406 1111 m 556 1031 q 699 942 654 1031 l 1013 314 q 1029 242 1029 281 q 942 99 1029 142 q 869 81 906 81 q 725 169 769 81 l 651 317 l 458 317 l 385 169 q 242 81 340 81 q 169 99 206 81 q 81 242 81 143 q 97 313 81 279 l 411 942 q 556 1031 456 1031 m 426 935 l 113 306 q 97 242 97 275 q 176 113 97 153 l 176 113 q 242 97 207 97 q 371 176 332 97 l 449 333 l 661 333 l 740 176 q 869 97 781 97 q 935 113 904 97 q 1014 242 1014 151 q 997 307 1014 274 l 685 935 q 556 1014 646 1014 q 426 935 465 1014 m 178 242 q 185 268 178 254 l 499 899 q 556 933 515 933 q 613 899 596 933 l 925 269 q 932 242 932 256 q 914 197 932 215 q 869 178 896 178 q 813 213 829 178 l 713 414 l 399 414 l 299 213 q 242 178 282 178 q 196 196 214 178 q 178 242 178 214 z "},"b":{"ha":1001,"x_min":0,"x_max":953,"o":"m 438 1022 q 604 988 526 1022 q 736 882 689 950 q 786 713 786 810 q 775 621 786 664 q 864 399 864 535 q 703 125 864 206 q 556 89 631 89 l 242 89 q 133 133 178 89 q 89 242 89 178 l 89 869 q 133 978 89 933 q 242 1022 178 1022 l 438 1022 m 394 718 l 394 708 l 479 708 q 436 718 458 718 l 394 718 m 394 403 l 394 394 l 551 394 q 560 396 556 394 l 560 401 q 550 403 556 403 l 556 403 q 538 404 547 403 q 515 403 526 403 l 394 403 m 242 1063 q 105 1006 161 1063 q 49 869 49 950 l 49 242 q 105 105 49 161 q 242 49 161 49 l 556 49 q 721 89 640 49 q 904 399 904 181 q 818 632 904 536 q 826 713 826 675 q 769 906 826 822 q 608 1029 711 989 q 438 1063 525 1063 l 242 1063 m 129 242 l 129 869 q 163 949 129 915 q 242 982 196 982 l 438 982 q 578 954 508 982 q 746 713 746 888 q 736 631 746 669 l 731 608 l 747 592 q 824 399 824 515 q 685 161 824 231 q 556 129 621 129 l 242 129 q 163 163 196 129 q 129 242 129 196 m 354 758 l 354 668 l 479 668 l 497 744 q 436 758 468 758 l 354 758 m 533 444 l 515 443 l 354 443 l 354 354 l 551 354 l 606 361 l 600 396 l 600 438 l 569 440 q 556 443 565 440 l 556 443 l 540 444 l 533 444 m 550 363 l 550 363 l 550 363 m 242 1071 q 99 1012 158 1071 q 40 869 40 953 l 40 242 q 99 99 40 158 q 242 40 158 40 l 556 40 q 724 82 640 40 q 913 399 913 176 q 828 635 913 536 q 835 713 835 676 q 776 909 835 825 q 611 1036 717 993 q 438 1071 525 1071 l 242 1071 m 138 242 l 138 869 q 168 943 138 913 q 242 974 199 974 l 438 974 q 575 947 508 974 q 738 713 738 882 q 729 632 738 664 l 722 606 l 742 586 q 815 399 815 513 q 681 168 815 235 q 556 138 619 138 l 242 138 q 168 168 199 138 q 138 242 138 199 m 242 1111 q 71 1040 142 1111 q 0 869 0 969 l 0 242 q 71 71 0 142 q 242 0 142 0 l 556 0 q 743 46 651 0 q 953 399 953 151 q 869 644 953 539 q 875 713 875 683 q 809 932 875 838 q 626 1074 743 1026 q 438 1111 533 1111 l 242 1111 m 81 242 l 81 869 q 128 983 81 936 q 242 1031 175 1031 l 438 1031 q 607 994 528 1031 q 742 886 693 956 q 794 713 794 811 q 788 642 794 690 l 785 622 l 797 608 q 872 399 872 525 q 706 118 872 201 q 556 81 631 81 l 242 81 q 128 128 175 81 q 81 242 81 175 m 242 1014 q 140 972 182 1014 q 97 869 97 929 l 97 242 q 140 140 97 182 q 242 97 182 97 l 556 97 q 699 132 629 97 q 856 399 856 210 q 769 615 856 529 l 767 618 l 768 622 q 778 713 778 665 q 590 985 778 907 q 438 1014 519 1014 l 242 1014 m 178 242 l 178 869 q 197 915 178 896 q 242 933 215 933 l 438 933 q 663 831 592 933 q 697 713 697 781 q 689 642 697 678 l 678 593 l 714 557 q 775 399 775 496 q 663 206 775 263 q 556 178 607 178 l 242 178 q 197 197 215 178 q 178 242 178 215 m 140 140 m 346 767 l 346 660 l 479 660 l 501 751 q 436 767 469 767 l 346 767 m 306 807 l 306 619 l 511 619 l 547 774 l 519 788 q 436 807 481 807 l 306 807 m 436 726 q 453 725 442 726 l 447 700 l 386 700 l 386 726 l 436 726 m 533 453 l 515 451 l 346 451 l 346 346 l 551 346 l 614 354 l 608 396 l 608 444 l 572 449 q 556 450 560 450 l 556 451 l 542 453 l 533 453 m 550 354 m 540 493 l 532 493 q 515 492 518 493 l 306 492 l 306 306 l 554 306 l 660 319 l 649 399 l 649 481 l 576 489 q 558 492 569 489 l 540 493 m 540 413 q 553 411 542 411 l 550 411 l 568 408 l 568 389 l 549 386 l 386 386 l 386 411 q 517 411 433 410 q 535 413 525 411 q 540 413 538 413 m 544 314 l 546 314 l 553 394 l 551 394 l 544 314 m 553 394 z "},"c":{"ha":1117,"x_min":0,"x_max":1064,"o":"m 556 1022 q 715 994 632 1022 q 950 817 868 944 q 975 733 975 778 q 899 601 975 646 q 822 581 863 581 q 694 651 740 581 q 556 717 657 711 q 394 556 394 708 q 556 394 394 403 q 694 460 657 400 q 822 531 740 531 q 906 506 867 531 q 975 378 975 461 q 950 294 975 333 q 715 117 868 167 q 556 89 632 89 q 325 146 433 89 q 150 310 211 206 q 89 556 89 415 q 331 967 89 846 q 556 1022 442 1022 m 115 821 q 57 683 69 743 q 49 556 49 644 q 313 108 49 240 q 556 49 432 49 q 728 79 636 49 q 985 272 897 136 q 1015 378 1015 319 q 926 540 1015 483 q 893 556 917 546 q 926 571 904 560 q 1015 733 1015 628 q 985 839 1015 792 q 728 1032 897 975 q 556 1063 636 1063 q 301 999 421 1063 q 115 821 182 935 m 185 332 q 136 447 146 397 q 129 556 129 481 q 349 931 129 821 q 556 982 451 982 q 703 956 625 982 q 917 794 843 908 q 935 733 935 767 q 883 639 935 672 q 822 621 856 621 q 728 674 761 621 q 558 757 675 757 l 554 757 q 442 726 497 757 q 354 556 354 678 q 442 385 354 433 q 554 354 497 354 l 558 354 q 728 438 675 354 q 822 490 761 490 q 883 472 856 490 q 935 378 935 439 q 917 317 935 344 q 703 156 843 203 q 556 129 625 129 q 342 183 443 129 q 185 332 240 238 m 435 556 q 556 676 435 668 q 660 629 633 671 q 749 556 693 578 q 660 482 693 533 q 556 435 633 440 q 435 556 435 443 m 40 556 q 107 288 40 404 q 308 100 176 165 q 556 40 428 40 q 731 71 639 40 q 992 268 901 128 q 1024 378 1024 318 q 915 556 1024 499 q 1024 733 1024 613 q 992 843 1024 793 q 731 1040 901 983 q 556 1071 639 1071 q 299 1006 421 1071 q 106 820 172 938 q 40 556 40 703 m 351 188 q 138 556 138 294 q 353 924 138 817 q 556 974 453 974 q 700 949 626 974 q 910 790 838 903 q 926 733 926 764 q 879 646 926 676 q 822 629 853 629 q 735 678 765 629 q 558 765 679 765 l 553 765 q 438 733 494 765 q 346 556 346 682 q 438 378 346 429 q 553 346 494 346 l 558 346 q 735 433 679 346 q 822 482 765 482 q 879 465 853 482 q 926 378 926 435 q 910 321 926 347 q 700 163 838 208 q 556 138 626 138 q 351 188 451 138 m 443 556 q 556 668 443 660 q 653 625 628 663 q 726 556 682 579 q 653 486 682 532 q 556 443 628 449 q 443 556 443 451 m 75 847 q 0 556 0 718 q 74 267 0 394 q 290 64 150 133 q 556 0 418 0 q 743 32 647 0 q 1025 246 928 94 q 1064 378 1064 307 q 983 556 1064 485 q 1064 733 1064 626 q 1026 864 1064 806 q 743 1079 928 1017 q 556 1111 647 1111 q 279 1042 408 1111 q 75 847 146 971 m 556 1031 q 718 1001 631 1031 q 957 821 875 950 q 983 733 983 779 q 910 599 983 640 q 900 593 908 597 l 826 556 l 910 513 q 983 378 983 475 q 957 290 983 332 q 718 110 875 161 q 556 81 631 81 q 321 140 433 81 q 81 556 81 268 q 143 805 81 694 q 326 975 206 915 q 556 1031 438 1031 m 158 799 q 97 556 97 693 q 157 317 97 422 q 336 151 219 206 q 556 97 449 97 q 713 125 629 97 q 943 299 864 175 q 967 378 967 335 q 901 499 967 457 q 822 522 864 522 q 731 488 764 522 q 669 421 699 454 q 556 386 628 386 l 556 386 q 457 414 506 386 q 386 556 386 454 q 457 699 386 660 q 556 725 504 725 l 556 725 q 671 689 629 724 q 729 624 700 656 q 822 589 764 589 q 901 613 864 589 q 967 733 967 654 q 944 813 967 778 q 713 986 865 936 q 556 1014 629 1014 q 329 957 436 1014 q 158 799 217 897 m 178 556 q 371 888 178 792 q 556 933 463 933 q 688 910 617 933 q 876 768 811 868 q 886 733 886 753 q 867 688 886 707 q 822 669 849 669 q 769 700 789 669 q 561 806 701 806 l 551 806 q 418 768 485 806 q 306 556 306 704 q 417 343 306 406 q 551 306 485 306 l 561 306 q 769 413 701 306 q 822 442 788 442 q 867 423 849 442 q 886 378 886 404 q 875 342 886 358 q 688 201 811 243 q 556 178 617 178 q 369 224 461 178 q 178 556 178 319 m 553 708 q 403 556 403 708 q 465 428 403 463 q 553 403 511 403 l 558 403 q 688 465 647 403 q 746 519 710 500 l 811 556 l 746 592 q 688 647 711 611 q 558 708 647 708 l 553 708 m 483 556 q 500 610 483 594 q 556 626 517 625 q 618 604 601 622 q 658 556 638 581 q 618 507 638 531 q 556 485 601 489 q 500 501 517 486 q 483 556 483 517 z "},"d":{"ha":1043,"x_min":0,"x_max":993,"o":"m 399 1022 q 644 967 528 1022 q 835 806 769 908 q 904 556 904 697 q 663 144 904 265 q 438 89 551 89 l 242 89 q 133 133 178 89 q 89 242 89 178 l 89 869 q 133 978 89 933 q 242 1022 178 1022 l 399 1022 m 394 717 l 394 394 l 436 394 q 532 419 488 394 q 599 556 599 457 q 519 689 599 650 q 399 717 463 717 l 394 717 m 242 1063 q 105 1006 161 1063 q 49 869 49 950 l 49 242 q 105 105 49 161 q 242 49 161 49 l 438 49 q 692 113 572 49 q 878 290 811 176 q 944 556 944 404 q 869 828 944 711 q 653 1007 794 944 q 399 1063 528 1063 l 242 1063 m 129 242 l 129 869 q 163 949 129 915 q 242 982 196 982 l 399 982 q 625 931 515 982 q 801 783 742 876 q 864 556 864 686 q 644 181 864 290 q 438 129 542 129 l 242 129 q 163 163 196 129 q 129 242 129 196 m 354 757 l 354 354 l 436 354 q 551 385 497 354 q 639 556 639 433 q 538 725 639 676 q 399 757 471 757 l 354 757 m 435 671 q 558 556 558 654 q 436 435 558 435 l 435 435 l 435 671 m 242 1071 q 99 1012 158 1071 q 40 869 40 953 l 40 242 q 99 99 40 158 q 242 40 158 40 l 438 40 q 695 106 574 40 q 885 288 817 172 q 953 556 953 403 q 876 831 953 713 q 657 1014 800 950 q 399 1071 531 1071 l 242 1071 m 138 242 l 138 869 q 168 943 138 913 q 242 974 199 974 l 399 974 q 621 924 514 974 q 794 779 736 871 q 856 556 856 683 q 640 188 856 294 q 438 138 540 138 l 242 138 q 168 168 199 138 q 138 242 138 199 m 242 1111 q 71 1040 142 1111 q 0 869 0 969 l 0 242 q 71 71 0 142 q 242 0 142 0 l 438 0 q 715 70 583 0 q 918 264 846 140 q 993 556 993 393 q 910 853 993 724 q 674 1051 828 983 q 399 1111 539 1111 l 242 1111 m 81 242 l 81 869 q 128 983 81 936 q 242 1031 175 1031 l 399 1031 q 647 974 528 1031 q 842 810 775 913 q 913 556 913 700 q 851 308 913 417 q 667 136 788 196 q 438 81 556 81 l 242 81 q 128 128 175 81 q 81 242 81 175 m 242 1014 q 140 972 182 1014 q 97 869 97 929 l 97 242 q 140 140 97 182 q 242 97 182 97 l 438 97 q 664 154 557 97 q 836 316 776 214 q 896 556 896 418 q 633 963 896 846 q 399 1014 518 1014 l 242 1014 m 178 242 l 178 869 q 197 915 178 896 q 242 933 215 933 l 399 933 q 603 889 506 933 q 761 756 707 840 q 815 556 815 672 q 622 224 815 321 q 438 178 531 178 l 242 178 q 197 197 215 178 q 178 242 178 215 m 140 140 m 346 765 l 346 346 l 436 346 q 556 378 499 346 q 647 556 647 429 q 540 732 647 681 q 399 765 471 765 l 346 765 m 443 663 q 550 556 550 639 q 443 444 550 453 l 443 663 m 306 806 l 306 306 l 436 306 q 575 342 510 306 q 688 556 688 404 q 558 768 688 706 q 400 806 481 806 l 306 806 m 399 725 q 524 696 463 725 q 607 556 607 656 q 536 413 607 453 q 436 386 490 388 q 386 386 436 386 l 386 725 l 399 725 m 403 401 l 446 404 q 590 556 590 414 q 451 701 590 674 l 403 711 l 403 401 m 483 607 q 510 556 510 593 q 483 496 510 508 l 483 607 z "},"e":{"ha":1001,"x_min":0,"x_max":953,"o":"m 394 401 l 394 396 q 401 394 399 394 l 713 394 q 820 350 776 394 q 864 242 864 306 q 820 133 864 178 q 713 89 776 89 l 399 89 q 253 125 325 89 q 89 399 89 207 q 129 556 89 486 q 89 713 89 625 q 253 986 89 904 q 399 1022 325 1022 l 713 1022 q 820 978 776 1022 q 864 871 864 935 q 820 763 864 807 q 713 718 776 718 l 401 718 q 394 717 399 718 l 394 710 q 401 708 397 708 l 713 708 q 820 664 776 708 q 864 556 864 619 q 820 447 864 492 q 713 403 776 403 l 401 403 q 394 401 399 403 m 399 1063 q 233 1022 314 1063 q 49 713 49 931 q 83 556 49 629 q 49 399 49 482 q 235 89 49 182 q 399 49 315 49 l 713 49 q 849 105 793 49 q 904 242 904 161 q 825 399 904 339 q 904 556 904 458 q 824 713 904 654 q 904 871 904 772 q 849 1007 904 951 q 713 1063 793 1063 l 399 1063 m 271 161 q 129 399 129 232 q 164 536 129 475 l 175 556 l 164 575 q 129 713 129 636 q 271 950 129 879 q 399 982 335 982 l 713 982 q 792 950 760 982 q 824 871 824 918 q 792 791 824 824 q 713 758 760 758 l 401 758 l 346 747 l 354 717 l 354 676 l 401 668 l 713 668 q 792 635 760 668 q 824 556 824 603 q 792 476 824 508 q 713 443 760 443 l 401 443 l 347 435 l 354 401 l 354 361 l 401 354 l 713 354 q 792 322 760 354 q 824 242 824 289 q 792 162 824 194 q 713 129 760 129 l 399 129 q 271 161 335 129 m 399 1071 q 231 1029 314 1071 q 40 713 40 935 q 75 556 40 629 q 40 399 40 482 l 40 399 q 231 82 40 176 q 399 40 314 40 l 713 40 q 854 99 796 40 q 913 242 913 158 q 838 399 913 336 q 913 556 913 461 q 836 713 913 651 q 913 871 913 775 q 854 1013 913 954 q 713 1071 796 1071 l 399 1071 m 274 168 q 138 399 138 236 q 171 532 138 475 l 185 556 l 171 579 q 138 713 138 636 q 274 942 138 874 q 399 974 338 974 l 713 974 q 785 944 756 974 q 815 871 815 914 q 785 797 815 828 q 713 767 756 767 l 401 767 l 338 754 l 346 717 l 346 669 l 375 665 l 401 660 l 713 660 q 785 629 756 660 q 815 556 815 599 q 785 482 815 513 q 713 451 756 451 l 401 451 l 339 442 l 346 401 l 346 354 l 379 350 l 401 346 l 713 346 q 785 315 756 346 q 815 242 815 285 q 785 168 815 199 q 713 138 756 138 l 399 138 q 274 168 335 138 m 399 1111 q 213 1065 304 1111 q 0 713 0 960 q 32 556 0 632 q 0 399 0 479 q 213 46 0 151 q 399 0 304 0 l 713 0 q 883 70 813 0 q 953 242 953 140 q 894 399 953 331 q 953 556 953 467 q 893 713 953 644 q 953 871 953 781 q 883 1041 953 971 q 713 1111 813 1111 l 399 1111 m 249 118 q 81 399 81 201 q 111 539 81 478 l 119 556 l 111 572 q 81 713 81 633 q 249 993 81 910 q 399 1031 324 1031 l 713 1031 q 826 984 779 1031 q 872 871 872 938 q 826 757 872 804 l 815 749 l 769 713 l 826 669 q 872 556 872 622 q 826 442 872 489 l 817 435 l 772 399 l 826 356 q 872 242 872 308 q 826 128 872 175 q 713 81 779 81 l 399 81 q 249 118 324 81 m 399 1014 q 256 978 328 1014 q 97 713 97 899 q 136 560 97 628 l 138 556 l 136 551 q 97 399 97 483 q 256 132 97 211 q 399 97 325 97 l 713 97 q 814 140 772 97 q 856 242 856 182 q 814 344 856 301 q 713 386 772 386 l 386 389 l 386 408 l 404 411 l 713 411 q 814 453 772 411 q 856 556 856 496 q 814 658 856 615 q 713 700 772 700 l 406 700 l 386 704 l 386 722 l 406 726 l 713 726 q 815 768 774 726 q 856 871 856 810 q 814 972 856 931 q 713 1014 772 1014 l 399 1014 m 292 204 q 178 399 178 261 q 206 511 178 461 l 231 556 l 206 600 q 178 713 178 650 q 292 906 178 849 q 399 933 347 933 l 713 933 q 757 915 739 933 q 775 871 775 897 q 757 826 775 844 q 713 807 739 807 l 397 807 l 288 785 l 306 713 l 306 636 l 397 619 l 713 619 q 757 601 739 619 q 775 556 775 582 q 757 510 775 529 q 713 492 739 492 l 399 492 l 292 475 l 306 397 l 306 319 l 399 306 l 713 306 q 757 287 739 306 q 775 242 775 268 q 757 197 775 215 q 713 178 739 178 l 399 178 q 292 204 344 178 m 256 132 z "},"f":{"ha":1001,"x_min":0,"x_max":953,"o":"m 864 556 q 820 447 864 492 q 713 403 776 403 l 394 403 l 394 242 q 350 133 394 178 q 242 89 306 89 q 133 133 178 89 q 89 242 89 178 l 89 713 q 125 858 89 786 q 399 1022 207 1022 l 713 1022 q 820 978 776 1022 q 864 869 864 933 q 820 761 864 806 q 713 717 776 717 l 396 717 q 394 710 394 713 l 394 708 l 713 708 q 820 664 776 708 q 864 556 864 619 m 399 1063 q 89 876 182 1063 q 49 713 49 796 l 49 242 q 105 105 49 161 q 242 49 161 49 q 378 105 322 49 q 435 242 435 161 l 435 363 l 713 363 q 849 419 793 363 q 904 556 904 475 q 825 713 904 653 q 904 869 904 771 q 849 1006 904 950 q 713 1063 793 1063 l 399 1063 m 129 242 l 129 713 q 161 840 129 776 q 399 982 232 982 l 713 982 q 792 949 760 982 q 824 869 824 917 q 792 790 824 822 q 713 757 760 757 l 361 757 l 357 729 l 346 663 l 394 668 l 713 668 q 792 635 760 668 q 824 556 824 603 q 792 476 824 508 q 713 443 760 443 l 354 443 l 354 242 q 322 162 354 194 q 242 129 289 129 q 163 163 196 129 q 129 242 129 196 m 399 1071 q 82 881 176 1071 q 40 713 40 797 l 40 242 q 99 99 40 158 q 242 40 158 40 q 384 99 325 40 q 443 242 443 158 l 443 354 l 713 354 q 854 413 796 354 q 913 556 913 472 q 838 713 913 650 q 913 869 913 774 q 854 1012 913 953 q 713 1071 796 1071 l 399 1071 m 138 242 l 138 713 q 168 836 138 775 q 399 974 236 974 l 713 974 q 785 943 756 974 q 815 869 815 913 q 785 796 815 826 q 713 765 756 765 l 354 765 l 350 732 l 336 653 l 394 660 l 713 660 q 785 629 756 660 q 815 556 815 599 q 785 482 815 513 q 713 451 756 451 l 346 451 l 346 242 q 315 168 346 199 q 242 138 285 138 q 168 168 199 138 q 138 242 138 199 m 399 1111 q 46 899 151 1111 q 0 713 0 807 l 0 242 q 71 71 0 142 q 242 0 142 0 q 413 71 342 0 q 483 242 483 142 l 483 314 l 713 314 q 883 384 813 314 q 953 556 953 454 q 894 713 953 644 q 953 869 953 781 q 883 1041 953 971 q 713 1111 813 1111 l 399 1111 m 81 242 l 81 713 q 118 863 81 788 q 399 1031 201 1031 l 713 1031 q 826 983 779 1031 q 872 869 872 936 q 826 756 872 803 q 817 747 825 754 l 771 713 l 826 669 q 872 556 872 622 q 826 442 872 489 q 713 394 779 394 l 403 394 l 403 242 q 356 128 403 175 q 242 81 308 81 q 128 128 175 81 q 81 242 81 175 m 399 1014 q 132 854 211 1014 q 97 713 97 785 l 97 242 q 140 140 97 182 q 242 97 182 97 q 344 140 301 97 q 386 242 386 182 l 386 411 l 713 411 q 814 453 772 411 q 856 556 856 496 q 814 658 856 615 q 713 700 772 700 l 385 699 l 389 725 l 713 725 q 815 767 774 725 q 856 869 856 808 q 814 972 856 929 q 713 1014 772 1014 l 399 1014 m 178 242 l 178 713 q 204 818 178 765 q 399 933 261 933 l 713 933 q 757 915 739 933 q 775 869 775 896 q 757 824 775 843 q 713 806 739 806 l 319 806 l 310 738 l 288 607 l 397 619 l 713 619 q 757 601 739 619 q 775 556 775 582 q 757 510 775 529 q 713 492 739 492 l 306 492 l 306 242 q 287 197 306 215 q 242 178 268 178 q 197 197 215 178 q 178 242 178 215 m 140 140 z "},"g":{"ha":1167,"x_min":0,"x_max":1111,"o":"m 713 1022 q 820 978 776 1022 q 864 869 864 933 q 820 761 864 806 q 713 717 776 717 l 557 717 q 461 690 508 717 q 394 554 394 653 q 461 418 394 456 q 556 393 506 393 q 606 403 576 393 l 594 403 q 487 447 531 403 q 443 556 443 492 q 488 664 443 619 q 596 708 532 708 l 869 708 q 977 663 932 708 q 1022 556 1022 618 q 781 144 1022 265 q 556 89 669 89 q 325 146 433 89 q 150 310 211 206 q 89 556 89 415 q 331 967 89 846 q 556 1022 442 1022 l 713 1022 m 556 1063 q 301 999 421 1063 q 115 821 182 935 q 49 556 49 707 q 313 108 49 240 q 556 49 432 49 q 810 113 690 49 q 996 290 929 176 q 1063 556 1063 404 q 1006 692 1063 636 q 869 749 950 749 l 861 749 q 904 869 904 801 q 849 1006 904 950 q 713 1063 793 1063 l 556 1063 m 185 332 q 136 447 146 397 q 129 556 129 481 q 349 931 129 821 q 556 982 451 982 l 713 982 q 792 949 760 982 q 824 869 824 917 q 792 790 824 822 q 713 757 760 757 l 557 757 q 442 726 497 757 q 354 554 354 678 q 442 383 354 432 q 554 353 497 353 l 558 353 q 618 364 583 353 l 606 443 l 594 443 q 515 476 547 443 q 483 556 483 508 q 516 635 483 603 q 596 668 549 668 l 869 668 q 948 635 915 668 q 981 556 981 601 q 763 181 981 289 q 556 129 660 129 q 342 183 443 129 q 185 332 240 238 m 556 1071 q 300 1007 419 1071 q 110 826 176 940 q 40 556 40 708 q 107 288 40 404 q 308 100 176 165 q 556 40 428 40 q 813 106 692 40 q 1003 288 935 172 q 1071 556 1071 403 q 1015 694 1071 636 q 878 756 958 753 q 913 869 913 806 q 854 1012 913 953 q 713 1071 796 1071 l 556 1071 m 351 188 q 138 556 138 294 q 353 924 138 817 q 556 974 453 974 l 713 974 q 785 943 756 974 q 815 869 815 913 q 785 796 815 826 q 713 765 756 765 l 557 765 q 438 733 494 765 q 346 554 346 682 q 438 376 346 428 q 553 344 494 344 l 558 344 q 621 357 585 344 l 606 451 l 594 451 q 521 481 550 451 q 492 556 492 511 q 522 630 492 600 q 596 660 551 660 l 869 660 q 943 629 913 660 q 974 556 974 599 q 761 189 974 294 q 556 138 658 138 q 351 188 451 138 m 556 1111 q 281 1042 410 1111 q 75 847 147 971 q 0 556 0 718 q 74 267 0 394 q 290 64 150 133 q 556 0 418 0 q 833 71 701 0 q 1036 264 964 142 q 1111 556 1111 392 q 1040 726 1111 656 q 939 786 997 769 q 953 869 953 826 q 883 1041 953 971 q 713 1111 813 1111 l 556 1111 m 81 556 q 143 805 81 694 q 326 975 206 915 q 556 1031 438 1031 l 713 1031 q 826 983 779 1031 q 872 869 872 936 q 844 779 872 819 l 803 718 l 876 715 q 985 667 942 713 q 1029 556 1029 621 q 967 307 1029 417 q 783 136 904 197 q 556 81 672 81 q 321 140 433 81 q 81 556 81 268 m 556 1014 q 329 957 436 1014 q 158 799 217 897 q 97 556 97 693 q 328 154 97 276 q 556 97 436 97 q 784 155 675 97 q 953 315 893 213 q 1014 556 1014 418 q 972 658 1014 615 q 869 700 929 700 l 596 700 q 493 658 535 700 q 451 556 451 617 q 485 461 451 501 q 571 413 518 421 l 575 389 q 556 385 551 385 l 556 385 q 457 411 504 385 q 386 554 386 451 q 458 699 386 658 q 557 725 506 725 l 713 725 q 814 767 772 725 q 856 869 856 810 q 814 972 856 929 q 713 1014 772 1014 l 556 1014 m 178 556 q 371 888 178 792 q 556 933 463 933 l 713 933 q 757 915 739 933 q 775 869 775 896 q 757 824 775 843 q 713 806 739 806 l 557 806 q 418 769 483 806 q 306 554 306 707 q 417 340 306 403 q 551 304 475 307 l 556 303 l 561 304 q 633 318 596 306 l 667 329 l 640 492 l 594 492 q 549 510 567 492 q 532 556 532 528 q 550 601 532 583 q 596 619 568 619 l 869 619 q 914 601 896 619 q 932 556 932 582 q 740 224 932 319 q 556 178 649 178 q 369 224 461 178 q 178 556 178 319 z "},"h":{"ha":961,"x_min":0,"x_max":915,"o":"m 826 869 l 826 242 q 782 133 826 178 q 674 89 738 89 q 567 134 611 89 q 522 242 522 179 l 522 403 l 394 403 l 394 242 q 350 133 394 178 q 242 89 306 89 q 133 133 178 89 q 89 242 89 178 l 89 869 q 133 978 89 933 q 242 1022 178 1022 q 350 978 306 1022 q 394 869 394 933 l 394 708 l 522 708 l 522 869 q 567 977 522 932 q 674 1022 611 1022 q 782 978 738 1022 q 826 869 826 933 m 482 869 l 482 749 l 435 749 l 435 869 q 378 1006 435 950 q 242 1063 322 1063 q 105 1006 161 1063 q 49 869 49 950 l 49 242 q 105 105 49 161 q 242 49 161 49 q 378 105 322 49 q 435 242 435 161 l 435 363 l 482 363 l 482 242 q 538 105 482 161 q 674 49 593 49 q 810 105 754 49 q 867 242 867 161 l 867 869 q 810 1006 867 950 q 674 1063 754 1063 q 538 1006 594 1063 q 482 869 482 949 m 563 668 l 563 869 q 595 949 563 915 q 674 982 628 982 q 753 949 721 982 q 785 869 785 917 l 785 242 q 753 162 785 194 q 674 129 721 129 q 595 163 628 129 q 563 242 563 196 l 563 443 l 354 443 l 354 242 q 322 162 354 194 q 242 129 289 129 q 163 163 196 129 q 129 242 129 196 l 129 869 q 163 949 129 915 q 242 982 196 982 q 322 949 289 982 q 354 869 354 917 l 354 668 l 563 668 m 474 869 l 474 757 l 443 757 l 443 869 q 384 1012 443 953 q 242 1071 325 1071 q 99 1012 158 1071 q 40 869 40 953 l 40 242 q 99 99 40 158 q 242 40 158 40 q 384 99 325 40 q 443 242 443 158 l 443 354 l 474 354 l 474 242 q 532 99 474 158 q 674 40 590 40 q 816 99 757 40 q 875 242 875 158 l 875 869 q 816 1012 875 953 q 674 1071 757 1071 q 532 1012 590 1071 q 474 869 474 953 m 571 660 l 571 869 q 601 943 571 913 q 674 974 631 974 q 747 943 717 974 q 778 869 778 913 l 778 242 q 747 168 778 199 q 674 138 717 138 q 601 168 631 138 q 571 242 571 199 l 571 451 l 346 451 l 346 242 q 315 168 346 199 q 242 138 285 138 q 168 168 199 138 q 138 242 138 199 l 138 869 q 168 943 138 913 q 242 974 199 974 q 315 943 285 974 q 346 869 346 913 l 346 660 l 571 660 m 458 975 q 242 1111 393 1111 q 71 1040 142 1111 q 0 869 0 969 l 0 242 q 71 71 0 142 q 242 0 142 0 q 413 71 340 0 q 458 135 442 99 q 674 0 525 0 q 845 71 775 0 q 915 242 915 142 l 915 869 q 844 1040 915 969 q 674 1111 774 1111 q 458 975 524 1111 m 514 717 l 514 869 q 561 983 514 936 l 561 983 q 674 1031 608 1031 q 787 983 740 1031 q 833 869 833 936 l 833 242 q 787 128 833 175 q 674 81 740 81 q 560 128 607 81 q 514 242 514 175 l 514 394 l 403 394 l 403 242 q 356 128 403 175 q 242 81 308 81 q 128 128 175 81 q 81 242 81 175 l 81 869 q 128 983 81 936 q 242 1031 175 1031 q 356 983 308 1031 q 403 869 403 936 l 403 717 l 514 717 m 504 1040 m 531 869 l 531 700 l 386 700 l 386 869 q 344 972 386 929 q 242 1014 301 1014 q 140 972 182 1014 q 97 869 97 929 l 97 242 q 140 140 97 182 q 242 97 182 97 q 344 140 301 97 q 386 242 386 182 l 386 411 l 531 411 l 531 242 q 572 140 531 182 q 674 97 614 97 q 776 140 733 97 q 818 242 818 182 l 818 869 q 776 972 818 929 q 674 1014 733 1014 q 572 972 614 1014 q 531 869 531 929 m 611 619 l 611 869 q 629 915 611 896 q 674 933 647 933 q 718 915 700 933 q 736 869 736 896 l 736 242 q 718 197 736 215 q 674 178 700 178 q 629 197 647 178 q 611 242 611 215 l 611 492 l 306 492 l 306 242 q 287 197 306 215 q 242 178 268 178 q 197 197 215 178 q 178 242 178 215 l 178 869 q 197 915 178 896 q 242 933 215 933 q 287 915 268 933 q 306 869 306 896 l 306 619 l 611 619 z "},"i":{"ha":508,"x_min":0,"x_max":483,"o":"m 394 831 q 383 771 394 800 q 394 713 394 743 l 394 242 q 350 133 394 178 q 242 89 306 89 q 133 133 178 89 q 89 242 89 178 l 89 713 q 101 771 89 743 q 89 831 89 799 l 89 869 q 133 978 89 933 q 242 1022 178 1022 q 350 978 306 1022 q 394 869 394 933 l 394 831 m 49 869 l 49 831 q 58 771 49 803 q 49 713 49 740 l 49 242 q 105 105 49 161 q 242 49 161 49 q 378 105 322 49 q 435 242 435 161 l 435 713 q 425 771 435 740 q 435 831 435 803 l 435 869 q 378 1006 435 950 q 242 1063 322 1063 q 105 1006 161 1063 q 49 869 49 950 m 129 242 l 129 713 q 138 756 129 738 l 144 771 l 138 788 q 129 831 129 807 l 129 869 q 163 949 129 915 q 242 982 196 982 q 322 949 289 982 q 354 869 354 917 l 354 831 q 346 788 354 807 l 339 771 l 346 756 q 354 713 354 738 l 354 242 q 322 162 354 194 q 242 129 289 129 q 163 163 196 129 q 129 242 129 196 m 40 869 l 40 831 q 50 771 40 803 q 40 713 40 740 l 40 242 q 99 99 40 158 q 242 40 158 40 q 384 99 325 40 q 443 242 443 158 l 443 713 q 433 771 443 740 q 443 831 443 803 l 443 869 q 384 1012 443 953 q 242 1071 325 1071 q 99 1012 158 1071 q 40 869 40 953 m 138 242 l 138 713 q 146 753 138 731 l 153 771 l 146 790 q 138 831 138 808 l 138 869 q 168 943 138 913 q 242 974 199 974 q 315 943 285 974 q 346 869 346 913 l 346 831 q 338 790 346 808 l 331 771 l 338 753 q 346 713 346 731 l 346 242 q 315 168 346 199 q 242 138 285 138 q 168 168 199 138 q 138 242 138 199 m 71 1040 l 71 1040 q 0 869 0 969 l 0 831 q 8 771 0 804 q 0 713 0 739 l 0 242 q 71 71 0 142 q 242 0 142 0 q 413 71 342 0 q 483 242 483 142 l 483 713 q 475 771 483 739 q 483 831 483 804 l 483 869 q 413 1040 483 969 q 242 1111 342 1111 q 71 1040 142 1111 m 242 1031 q 356 983 308 1031 q 403 869 403 936 l 403 831 q 394 783 403 821 l 392 771 l 394 760 q 403 713 403 726 l 403 242 q 356 128 403 175 q 242 81 308 81 q 128 128 175 81 q 81 242 81 175 l 81 713 q 89 760 81 738 l 93 771 l 89 783 q 81 831 81 808 l 81 869 q 128 983 81 936 q 242 1031 175 1031 m 97 869 l 97 831 q 108 775 97 808 l 110 771 l 108 768 q 97 713 97 746 l 97 242 q 140 140 97 182 q 242 97 182 97 q 344 140 301 97 q 386 242 386 182 l 386 713 q 375 768 386 746 l 374 771 q 380 794 374 772 q 386 831 386 817 l 386 869 q 344 972 386 929 q 242 1014 301 1014 q 140 972 182 1014 q 97 869 97 929 m 197 197 l 197 197 q 178 242 178 215 l 178 713 q 183 738 178 724 l 197 771 l 183 806 q 178 831 178 819 l 178 869 q 197 915 178 896 q 242 933 215 933 q 287 915 268 933 q 306 869 306 896 l 306 831 q 300 806 306 819 l 286 771 l 300 738 q 306 713 306 724 l 306 242 q 287 197 306 215 q 242 178 268 178 q 197 197 215 178 m 140 140 z "},"j":{"ha":1114,"x_min":0,"x_max":1061,"o":"m 819 1022 q 927 978 883 1022 q 971 869 971 933 l 971 556 q 914 325 971 433 q 753 151 854 211 q 506 89 646 89 q 110 303 236 89 q 89 379 89 338 q 164 511 89 467 q 242 532 199 532 q 374 457 329 532 q 506 394 410 394 q 640 461 604 394 q 667 557 667 510 l 667 869 q 711 978 667 933 q 819 1022 756 1022 m 626 869 l 626 557 q 606 481 626 518 q 506 435 581 435 q 408 476 433 435 q 242 572 353 572 q 143 546 189 572 q 49 379 49 490 q 75 282 49 326 q 506 49 214 49 q 953 313 822 49 q 1013 556 1013 432 l 1013 869 q 956 1006 1013 950 q 819 1063 900 1063 q 683 1006 739 1063 q 626 869 626 950 m 819 982 q 899 949 867 982 q 931 869 931 917 l 931 556 q 879 344 931 443 q 732 186 825 240 q 506 129 635 129 q 144 324 260 129 q 129 379 129 349 q 185 476 129 444 q 242 492 211 492 q 339 436 307 492 q 506 354 388 354 q 676 442 628 354 q 708 557 708 499 l 708 869 q 740 949 708 917 q 819 982 772 982 m 618 869 l 618 557 q 599 485 618 521 q 506 443 576 443 q 415 481 438 443 q 242 581 357 581 q 139 553 186 581 q 40 379 40 494 q 68 278 40 325 q 506 40 208 40 q 776 108 657 40 q 960 308 894 176 q 1019 556 1019 429 l 1019 869 q 962 1013 1019 954 q 819 1071 904 1071 q 677 1012 736 1071 q 618 869 618 953 m 819 974 q 894 944 864 974 q 924 869 924 914 l 924 556 q 874 351 924 451 q 506 138 767 138 q 151 326 263 138 q 138 379 138 350 q 189 469 138 439 q 242 483 213 483 q 332 432 301 483 q 506 346 382 346 q 683 438 633 346 q 715 557 715 496 l 715 869 q 746 943 715 913 q 819 974 776 974 m 578 869 l 578 557 q 563 504 578 532 q 506 483 551 483 q 450 501 461 483 q 242 621 381 621 q 119 588 176 621 q 0 379 0 517 q 33 257 0 313 q 506 0 186 0 q 797 74 668 0 q 996 290 925 149 q 1061 556 1061 421 l 1061 869 q 991 1041 1061 971 q 819 1111 921 1111 q 648 1041 718 1111 q 578 869 578 971 m 633 465 q 660 557 660 513 l 660 869 q 706 983 660 936 q 819 1031 753 1031 q 933 983 886 1031 q 979 869 979 936 l 979 556 q 921 321 979 432 q 757 144 861 206 q 506 81 649 81 q 103 299 232 81 q 81 379 81 336 q 160 518 81 472 q 242 540 197 540 q 381 460 333 540 q 506 403 414 403 q 633 465 599 403 m 675 869 l 675 557 q 647 457 675 507 q 506 386 608 386 q 394 422 433 386 q 339 488 367 454 q 242 524 303 524 q 168 504 201 524 q 97 379 97 463 q 117 306 97 339 q 506 97 239 97 q 910 333 793 97 q 964 556 964 442 l 964 869 q 922 972 964 931 q 819 1014 881 1014 q 717 972 758 1014 q 675 869 675 931 m 718 418 q 757 557 757 489 l 757 869 q 775 915 757 896 q 819 933 793 933 q 864 915 846 933 q 882 869 882 896 l 882 556 q 836 368 882 457 q 705 226 788 275 q 506 178 622 178 q 186 347 286 178 q 178 379 178 361 q 196 425 178 407 q 242 443 214 443 q 297 411 279 443 q 506 306 360 306 q 718 418 656 306 z "},"k":{"ha":1125,"x_min":0,"x_max":1071,"o":"m 982 242 q 957 157 982 194 q 829 89 911 89 q 746 115 786 89 l 394 349 l 394 242 q 350 133 394 178 q 242 89 306 89 q 133 133 178 89 q 89 242 89 178 l 89 869 q 133 978 89 933 q 242 1022 178 1022 q 350 978 306 1022 q 394 869 394 933 l 394 774 l 703 994 q 790 1022 742 1022 q 914 958 868 1022 q 943 869 943 917 q 879 746 943 792 l 624 563 l 914 369 q 982 242 982 324 m 679 1028 l 435 853 l 435 869 q 378 1006 435 950 q 242 1063 322 1063 q 105 1006 161 1063 q 49 869 49 950 l 49 242 q 105 105 49 161 q 242 49 161 49 q 378 105 322 49 q 435 242 435 161 l 435 274 l 722 81 q 829 49 769 49 q 990 135 933 49 q 1022 242 1022 183 q 938 403 1022 346 l 696 564 l 903 713 q 983 869 983 771 q 947 982 983 932 q 790 1063 889 1063 q 679 1028 728 1063 m 726 961 q 790 982 756 982 q 882 935 849 982 q 903 869 903 906 q 856 779 903 813 l 553 561 l 892 335 q 942 242 942 301 q 922 179 942 208 q 829 129 889 129 q 768 149 797 129 l 354 425 l 354 242 q 322 162 354 194 q 242 129 289 129 q 163 163 196 129 q 129 242 129 196 l 129 869 q 163 949 129 915 q 242 982 196 982 q 322 949 289 982 q 354 869 354 917 l 354 694 l 726 961 m 674 1033 l 443 868 l 443 869 q 384 1012 443 953 q 242 1071 325 1071 q 99 1012 158 1071 q 40 869 40 953 l 40 242 q 99 99 40 158 q 242 40 158 40 q 384 99 325 40 q 443 242 443 158 l 443 258 l 718 75 q 829 40 769 40 q 997 129 939 40 q 1031 242 1031 179 q 942 410 1031 350 l 710 564 l 908 706 q 992 869 992 765 q 954 986 992 933 q 790 1071 893 1071 q 674 1033 726 1071 m 731 954 q 790 974 758 974 q 875 929 843 974 q 894 869 894 901 q 851 785 894 815 l 539 561 l 888 329 q 933 242 933 299 q 915 183 933 210 q 829 138 885 138 q 772 156 799 138 l 346 440 l 346 242 q 315 168 346 199 q 242 138 285 138 q 168 168 199 138 q 138 242 138 199 l 138 869 q 168 943 138 913 q 242 974 199 974 q 315 943 285 974 q 346 869 346 913 l 346 679 l 731 954 m 651 1067 l 472 939 q 413 1040 456 997 q 242 1111 342 1111 q 71 1040 142 1111 q 0 869 0 969 l 0 242 q 71 71 0 142 q 242 0 142 0 l 242 0 q 413 71 342 0 q 476 188 463 121 l 696 40 q 829 0 756 0 q 1031 107 958 0 q 1071 242 1071 167 q 964 443 1071 372 l 781 565 l 932 674 q 1032 869 1032 746 q 961 1041 1032 971 q 790 1111 890 1111 q 651 1067 714 1111 m 790 1031 q 921 964 874 1031 q 951 869 951 921 q 885 739 951 786 l 639 563 l 919 375 q 990 242 990 328 q 963 151 990 193 q 829 81 915 81 q 740 108 782 81 l 403 333 l 403 242 q 356 128 403 175 q 242 81 308 81 q 128 128 175 81 q 81 242 81 175 l 81 869 q 128 983 81 936 q 242 1031 175 1031 q 356 983 308 1031 q 403 869 403 936 l 403 790 l 467 835 q 697 1000 675 979 q 790 1031 739 1031 m 707 988 l 386 757 l 386 869 q 344 972 386 929 q 242 1014 301 1014 q 140 972 182 1014 q 97 869 97 929 l 97 242 q 140 140 97 182 q 242 97 182 97 q 344 140 301 97 q 386 242 386 182 l 386 364 l 750 121 q 829 97 785 97 q 950 161 907 97 q 974 242 974 197 q 910 363 974 319 l 610 563 l 875 753 q 936 869 936 797 q 893 972 936 929 q 790 1014 850 1014 q 707 988 743 1014 m 754 922 q 790 933 769 933 q 835 915 817 933 q 854 869 854 896 q 828 818 854 838 l 468 560 l 865 294 q 893 242 893 276 q 874 197 893 215 q 829 178 856 178 q 794 189 811 178 l 306 515 l 306 242 q 287 197 306 215 q 242 178 268 178 q 197 197 215 178 q 178 242 178 215 l 178 869 q 197 915 178 896 q 242 933 215 933 q 287 915 268 933 q 306 869 306 896 l 306 600 l 754 922 z "},"l":{"ha":1001,"x_min":0,"x_max":953,"o":"m 242 1022 q 350 978 306 1022 q 394 869 394 933 l 394 394 l 713 394 q 820 350 776 394 q 864 242 864 306 q 820 133 864 178 q 713 89 776 89 l 360 89 q 166 166 243 89 q 89 360 89 243 l 89 869 q 133 978 89 933 q 242 1022 178 1022 m 49 869 l 49 360 q 137 137 49 225 q 360 49 225 49 l 713 49 q 849 105 793 49 q 904 242 904 161 q 849 378 904 322 q 713 435 793 435 l 435 435 l 435 869 q 378 1006 435 950 q 242 1063 322 1063 q 105 1006 161 1063 q 49 869 49 950 m 242 982 q 322 949 289 982 q 354 869 354 917 l 354 354 l 713 354 q 792 322 760 354 q 824 242 824 289 q 792 162 824 194 q 713 129 760 129 l 360 129 q 194 194 260 129 q 129 360 129 260 l 129 869 q 163 949 129 915 q 242 982 196 982 m 40 869 l 40 360 q 131 131 40 222 q 360 40 222 40 l 713 40 q 854 99 796 40 q 913 242 913 158 q 854 384 913 325 q 713 443 796 443 l 443 443 l 443 869 q 384 1012 443 953 q 242 1071 325 1071 q 99 1012 158 1071 q 40 869 40 953 m 242 974 q 315 943 285 974 q 346 869 346 913 l 346 346 l 713 346 q 785 315 756 346 q 815 242 815 285 q 785 168 815 199 q 713 138 756 138 l 360 138 q 200 200 263 138 q 138 360 138 263 l 138 869 q 168 943 138 913 q 242 974 199 974 m 0 869 l 0 360 q 102 102 0 204 q 360 0 204 0 l 713 0 q 883 70 813 0 q 953 242 953 140 q 883 413 953 343 q 713 483 813 483 l 483 483 l 483 869 q 413 1040 483 969 q 242 1111 342 1111 q 71 1040 142 1111 q 0 869 0 969 m 81 360 l 81 869 q 128 983 81 936 q 242 1031 175 1031 q 356 983 308 1031 q 403 869 403 936 l 403 403 l 713 403 q 826 356 779 403 q 872 242 872 308 q 826 128 872 175 q 713 81 779 81 l 360 81 q 160 160 239 81 q 81 360 81 239 m 97 869 l 97 360 q 172 172 97 246 q 360 97 246 97 l 713 97 q 814 140 772 97 q 856 242 856 182 q 814 344 856 301 q 713 386 772 386 l 386 386 l 386 869 q 344 972 386 929 q 242 1014 301 1014 q 140 972 182 1014 q 97 869 97 929 m 178 360 l 178 869 q 197 915 178 896 q 242 933 215 933 q 287 915 268 933 q 306 869 306 896 l 306 306 l 713 306 q 757 287 739 306 q 775 242 775 268 q 757 197 775 215 q 713 178 739 178 l 360 178 q 228 228 279 178 q 178 360 178 279 z "},"m":{"ha":1167,"x_min":0,"x_max":1111,"o":"m 869 1022 q 996 954 951 1022 q 1022 869 1022 914 l 1022 242 q 978 133 1022 178 q 869 89 933 89 q 763 134 807 89 q 718 242 718 179 l 718 500 l 665 447 q 557 403 621 403 q 447 447 492 403 l 394 500 l 394 242 q 350 133 394 178 q 242 89 306 89 q 133 133 178 89 q 89 242 89 178 l 89 869 q 133 978 89 933 q 242 1022 178 1022 q 349 978 304 1022 l 556 771 l 761 978 q 869 1022 806 1022 m 733 1007 l 556 828 l 378 1007 q 242 1063 322 1063 q 81 976 138 1063 q 49 869 49 928 l 49 242 q 105 105 49 161 q 242 49 161 49 q 378 105 322 49 q 435 242 435 161 l 435 406 q 557 363 489 363 q 678 406 624 363 l 678 242 q 733 105 678 161 q 869 49 789 49 q 1006 105 950 49 q 1063 242 1063 161 l 1063 869 q 1006 1006 1063 950 q 869 1063 950 1063 q 733 1007 789 1063 m 790 949 q 869 982 824 982 q 963 932 929 982 q 981 869 981 904 l 981 242 q 949 162 981 194 q 869 129 917 129 q 791 163 824 129 q 758 242 758 196 l 758 600 l 638 475 q 557 443 607 443 q 475 476 507 443 l 354 600 l 354 242 q 322 162 354 194 q 242 129 289 129 q 163 163 196 129 q 129 242 129 196 l 129 869 q 162 949 129 917 q 242 982 194 982 q 321 949 288 982 l 556 714 l 790 949 m 728 1013 l 556 840 l 383 1013 q 242 1071 325 1071 q 74 982 132 1071 q 40 869 40 932 l 40 242 q 99 99 40 158 q 242 40 158 40 q 384 99 325 40 q 443 242 443 158 l 443 389 q 557 354 493 354 q 669 389 619 354 l 669 242 q 728 99 669 158 q 869 40 786 40 q 1012 99 953 40 q 1071 242 1071 158 l 1071 869 q 1012 1012 1071 953 q 869 1071 953 1071 q 728 1013 786 1071 m 796 943 q 869 974 826 974 q 956 928 925 974 q 974 869 974 901 l 974 242 q 943 168 974 199 q 869 138 913 138 q 797 168 826 138 q 767 242 767 199 l 767 619 l 631 481 q 557 451 601 451 q 482 482 513 451 l 346 619 l 346 242 q 315 168 346 199 q 242 138 285 138 q 168 168 199 138 q 138 242 138 199 l 138 869 q 168 943 138 913 q 242 974 199 974 q 315 943 285 974 l 556 703 l 796 943 m 699 1040 l 556 897 l 413 1040 q 242 1111 342 1111 q 40 1004 113 1111 q 0 869 0 944 l 0 242 q 71 71 0 142 q 242 0 142 0 q 413 71 342 0 q 483 242 483 142 l 483 325 q 557 314 518 314 q 629 325 594 314 l 629 242 q 699 70 629 140 q 869 0 769 0 q 1041 70 971 0 q 1111 242 1111 140 l 1111 869 q 1040 1040 1111 969 q 869 1111 969 1111 q 699 1040 769 1111 m 869 1031 q 1003 958 956 1031 q 1029 869 1029 918 l 1029 242 q 983 128 1029 175 q 869 81 936 81 q 756 128 803 81 q 710 242 710 175 l 710 464 l 647 422 q 557 394 606 394 q 465 422 507 394 l 403 464 l 403 242 q 356 128 403 175 q 242 81 308 81 q 128 128 175 81 q 81 242 81 175 l 81 869 q 128 983 81 936 q 242 1031 175 1031 q 354 983 307 1031 l 556 782 l 756 983 q 869 1031 803 1031 m 768 972 l 556 760 l 343 972 q 242 1014 301 1014 q 121 950 164 1014 q 97 869 97 915 l 97 242 q 140 140 97 182 q 242 97 182 97 q 344 140 301 97 q 386 242 386 182 l 386 521 q 461 446 442 461 q 557 411 506 411 q 660 451 619 411 q 726 521 681 474 l 726 242 q 768 140 726 182 q 869 97 810 97 q 972 139 931 97 q 1014 242 1014 181 l 1014 869 q 972 972 1014 929 q 869 1014 929 1014 q 768 972 810 1014 m 825 915 q 869 933 843 933 q 914 915 896 933 q 932 869 932 896 l 932 242 q 914 197 932 215 q 869 178 896 178 q 825 197 843 178 q 807 242 807 215 l 807 718 l 603 510 q 557 492 585 492 q 510 511 529 492 l 306 718 l 306 242 q 287 197 306 215 q 242 178 268 178 q 197 197 215 178 q 178 242 178 215 l 178 869 q 197 915 178 896 q 242 933 215 933 q 286 915 268 933 l 556 644 l 825 915 z "},"n":{"ha":1167,"x_min":0,"x_max":1111,"o":"m 242 1022 q 349 978 304 1022 l 717 610 l 717 869 q 761 978 717 933 q 869 1022 806 1022 q 978 978 933 1022 q 1022 869 1022 933 l 1022 242 q 978 133 1022 178 q 869 89 933 89 q 761 133 806 89 l 394 500 l 394 242 q 350 133 394 178 q 242 89 306 89 q 133 133 178 89 q 89 242 89 178 l 89 869 q 133 978 89 933 q 242 1022 178 1022 m 676 869 l 676 708 l 378 1007 q 242 1063 322 1063 q 81 976 138 1063 q 49 869 49 928 l 49 242 q 105 105 49 161 q 242 49 161 49 q 378 105 322 49 q 435 242 435 161 l 435 403 l 733 104 q 869 49 789 49 q 1029 135 971 49 q 1063 242 1063 185 l 1063 869 q 1006 1006 1063 950 q 869 1063 950 1063 q 733 1006 789 1063 q 676 869 676 950 m 757 869 q 790 949 757 917 q 869 982 822 982 q 948 949 915 982 q 981 869 981 915 l 981 242 q 949 162 981 194 q 869 129 917 129 q 790 163 824 129 l 354 599 l 354 242 q 322 162 354 194 q 242 129 289 129 q 163 163 196 129 q 129 242 129 196 l 129 869 q 162 949 129 917 q 242 982 194 982 q 321 949 288 982 l 757 513 l 757 869 m 668 869 l 668 728 l 383 1013 q 242 1071 325 1071 q 74 982 132 1071 q 40 869 40 932 l 40 242 q 99 99 40 158 q 242 40 158 40 q 384 99 325 40 q 443 242 443 158 l 443 383 l 728 99 q 869 40 786 40 q 1036 129 976 40 q 1071 242 1071 181 l 1071 869 q 1012 1012 1071 953 q 869 1071 953 1071 q 726 1013 785 1071 q 668 869 668 954 m 765 869 q 795 944 765 914 q 869 974 825 974 q 943 943 913 974 q 974 869 974 913 l 974 242 q 943 168 974 199 q 869 138 913 138 q 796 168 826 138 l 346 618 l 346 242 q 315 168 346 199 q 242 138 285 138 q 168 168 199 138 q 138 242 138 199 l 138 869 q 168 943 138 913 q 242 974 199 974 q 315 943 285 974 l 765 493 l 765 869 m 699 1040 l 699 1040 q 628 869 628 969 l 628 825 l 413 1040 q 242 1111 342 1111 q 40 1004 113 1111 q 0 869 0 944 l 0 242 q 71 71 0 142 q 242 0 142 0 l 242 0 q 413 71 342 0 q 483 242 483 142 l 483 286 l 699 71 q 869 0 769 0 q 1069 107 997 0 q 1111 242 1111 169 l 1111 869 q 1040 1040 1111 969 q 869 1111 969 1111 q 699 1040 769 1111 m 869 1031 q 983 983 936 1031 q 1029 869 1029 936 l 1029 242 q 983 128 1029 175 q 869 81 936 81 q 756 128 803 81 l 403 481 l 403 242 q 356 128 403 175 q 242 81 308 81 q 128 128 175 81 q 81 242 81 175 l 81 869 q 128 983 81 936 q 242 1031 175 1031 q 354 983 307 1031 l 708 629 l 708 869 q 756 983 708 936 l 756 983 q 869 1031 803 1031 m 725 869 l 725 590 l 343 972 q 242 1014 301 1014 q 121 950 164 1014 q 97 869 97 915 l 97 242 q 140 140 97 182 q 242 97 182 97 q 344 140 301 97 q 386 242 386 182 l 386 519 l 768 139 q 869 97 810 97 q 989 161 946 97 q 1014 242 1014 199 l 1014 869 q 972 972 1014 929 q 869 1014 929 1014 q 767 972 808 1014 q 725 869 725 931 m 806 869 q 824 915 806 897 q 869 933 842 933 q 914 915 896 933 q 932 869 932 896 l 932 242 q 914 197 932 215 q 869 178 896 178 q 825 196 843 178 l 306 715 l 306 242 q 287 197 306 215 q 242 178 268 178 q 197 197 215 178 q 178 242 178 215 l 178 869 q 197 915 178 896 q 242 933 215 933 q 286 915 268 933 l 806 394 l 806 869 z "},"o":{"ha":1167,"x_min":0,"x_max":1111,"o":"m 556 1022 q 788 963 676 1022 q 960 803 900 904 q 1022 556 1022 696 q 781 144 1022 265 q 556 89 669 89 q 325 146 433 89 q 150 310 211 206 q 89 556 89 415 q 331 967 89 846 q 556 1022 442 1022 m 557 393 q 651 418 607 393 q 718 554 718 456 q 557 717 718 708 q 394 554 394 708 q 461 418 394 456 q 557 393 506 393 m 115 821 q 57 683 69 743 q 49 556 49 644 q 313 108 49 240 q 556 49 432 49 q 810 113 690 49 q 996 290 929 176 q 1063 556 1063 404 q 997 819 1063 704 q 799 1003 928 939 q 556 1063 679 1063 q 301 999 421 1063 q 115 821 182 935 m 185 332 q 136 447 146 397 q 129 556 129 481 q 349 931 129 821 q 556 982 451 982 q 769 928 667 982 q 926 781 871 875 q 981 556 981 686 q 763 181 981 289 q 556 129 660 129 q 342 183 443 129 q 185 332 240 238 m 554 757 q 442 726 496 757 q 354 554 354 676 q 442 383 354 432 q 554 353 496 353 l 558 353 q 671 383 617 353 q 758 554 758 432 q 671 726 758 676 q 558 757 618 757 l 554 757 m 435 554 q 557 676 435 668 q 678 554 678 668 q 557 433 678 442 q 435 554 435 442 m 40 556 q 107 288 40 404 q 308 100 176 165 q 556 40 428 40 q 813 106 692 40 q 1003 288 935 172 q 1071 556 1071 403 q 1003 824 1071 707 q 801 1011 933 946 q 556 1071 682 1071 q 299 1006 421 1071 q 106 820 172 938 q 40 556 40 703 m 350 189 q 247 257 281 224 q 193 335 225 279 q 138 556 138 429 q 353 924 138 817 q 556 974 453 974 q 758 924 658 974 q 974 556 974 817 q 761 189 974 294 q 556 138 658 138 q 350 189 451 138 m 73 843 q 36 780 73 843 q 0 556 0 717 q 74 267 0 394 q 290 64 150 133 q 556 0 418 0 q 833 71 701 0 q 1036 264 964 142 q 1111 556 1111 392 q 1038 844 1111 717 q 821 1047 961 978 q 556 1111 693 1111 q 279 1042 408 1111 q 73 843 146 969 m 556 1031 q 790 972 679 1031 q 967 807 907 911 q 1029 556 1029 699 q 783 136 1029 258 q 556 81 672 81 q 321 140 433 81 q 81 556 81 268 q 143 805 81 694 q 326 975 206 915 q 556 1031 438 1031 m 158 799 q 97 556 97 693 q 156 317 97 424 q 333 151 218 203 q 556 97 454 97 q 784 155 675 97 q 953 315 893 213 q 1014 556 1014 418 q 776 960 1014 842 q 556 1014 668 1014 q 329 957 436 1014 q 158 799 217 897 m 178 556 q 371 888 178 792 q 556 933 463 933 q 742 888 654 933 q 882 757 835 839 q 932 556 932 671 q 740 224 932 319 q 556 178 649 178 q 369 224 461 178 q 178 556 178 319 m 554 765 q 438 733 494 765 q 346 554 346 682 q 438 376 346 428 q 554 344 494 344 l 558 344 q 675 376 618 344 q 767 554 767 428 q 675 733 767 682 q 558 765 618 765 l 554 765 m 443 554 q 557 668 443 661 q 669 554 669 660 q 557 442 669 442 q 443 554 443 442 m 553 806 q 418 768 486 806 q 306 554 306 706 q 418 340 306 403 q 553 304 482 304 l 561 304 q 694 340 631 304 q 807 554 807 404 q 696 768 807 706 q 561 806 629 806 l 553 806 m 557 725 q 726 554 726 717 q 656 411 726 451 q 556 385 611 386 q 457 411 507 383 q 386 554 386 450 q 556 725 386 717 l 556 725 l 557 725 m 554 708 q 403 554 403 708 q 465 425 403 461 q 554 401 507 401 l 558 401 q 710 554 710 401 q 558 708 710 708 l 554 708 m 483 554 l 483 554 q 500 610 483 594 q 557 626 517 625 q 613 610 597 625 q 629 554 629 594 q 613 501 629 515 q 557 482 597 486 q 500 501 517 486 q 483 554 483 515 z "},"p":{"ha":1001,"x_min":0,"x_max":953,"o":"m 478 1022 q 663 982 575 1022 q 808 863 757 939 q 864 674 864 781 q 653 361 864 450 q 478 325 567 325 l 394 325 l 394 242 q 350 133 394 178 q 242 89 306 89 q 133 133 178 89 q 89 242 89 178 l 89 869 q 133 978 89 933 q 242 1022 178 1022 l 478 1022 m 394 717 l 394 629 l 476 629 q 561 674 561 629 q 476 717 561 717 l 394 717 m 242 1063 q 105 1006 161 1063 q 49 869 49 950 l 49 242 q 105 105 49 161 q 242 49 161 49 q 378 105 322 49 q 435 242 435 161 l 435 285 l 478 285 q 682 329 586 285 q 843 461 786 376 q 904 674 904 551 q 842 885 904 793 q 669 1024 781 978 q 478 1063 576 1063 l 242 1063 m 129 242 l 129 869 q 163 949 129 915 q 242 982 196 982 l 478 982 q 638 949 558 982 q 824 674 824 871 q 638 399 824 475 q 478 365 557 365 l 354 365 l 354 242 q 322 162 354 194 q 242 129 289 129 q 163 163 196 129 q 129 242 129 196 m 354 757 l 354 589 l 476 589 q 558 607 525 589 q 601 674 601 629 q 558 739 601 717 q 476 757 524 757 l 354 757 m 476 676 q 503 674 489 676 q 476 669 489 669 l 435 669 l 435 676 l 476 676 m 242 1071 q 99 1012 158 1071 q 40 869 40 953 l 40 242 q 99 99 40 158 q 242 40 158 40 q 384 99 325 40 q 443 242 443 158 l 443 276 l 478 276 q 686 322 588 276 q 849 457 790 371 q 913 674 913 551 q 849 890 913 796 q 672 1031 786 983 q 478 1071 575 1071 l 242 1071 m 138 242 l 138 869 q 168 943 138 913 q 242 974 199 974 l 478 974 q 635 942 558 974 q 815 674 815 865 q 635 406 815 481 q 478 374 557 374 l 346 374 l 346 242 q 315 168 346 199 q 242 138 285 138 q 168 168 199 138 q 138 242 138 199 m 242 1111 q 71 1040 142 1111 q 0 869 0 969 l 0 242 q 71 71 0 142 q 242 0 142 0 q 410 69 340 0 q 483 236 481 138 q 688 278 590 238 q 883 434 813 329 q 953 674 953 539 q 883 913 953 808 q 688 1068 813 1017 q 478 1111 583 1111 l 242 1111 m 81 242 l 81 869 q 128 983 81 936 q 242 1031 175 1031 l 478 1031 q 667 989 578 1031 q 815 867 763 944 q 872 674 872 783 q 815 479 872 564 q 657 353 758 394 q 478 317 571 317 l 403 317 l 403 242 q 356 128 403 175 q 242 81 308 81 q 128 128 175 81 q 81 242 81 175 m 242 1014 q 140 972 182 1014 q 97 869 97 929 l 97 242 q 140 140 97 182 q 242 97 182 97 q 344 140 301 97 q 386 242 386 182 l 386 333 l 478 333 q 650 368 567 333 q 856 674 856 454 q 650 978 856 892 q 478 1014 564 1014 l 242 1014 m 178 242 l 178 869 q 197 915 178 896 q 242 933 215 933 l 478 933 q 622 903 553 933 q 736 811 697 869 q 775 674 775 753 q 619 443 775 508 q 478 414 550 414 l 306 414 l 306 242 q 287 197 306 215 q 242 178 268 178 q 197 197 215 178 q 178 242 178 215 m 140 140 m 346 765 l 346 581 l 476 581 q 564 601 528 581 q 610 674 610 626 q 564 744 610 719 q 476 765 526 765 l 346 765 m 306 806 l 306 540 l 476 540 q 578 563 531 540 q 650 674 650 596 q 579 783 650 750 q 476 806 532 806 l 306 806 m 476 725 q 568 674 568 725 q 476 621 568 621 l 386 621 l 386 725 l 476 725 z "},"q":{"ha":1167,"x_min":0,"x_max":1111,"o":"m 979 347 q 1022 242 1022 303 q 978 133 1022 178 q 869 89 933 89 q 761 133 804 89 l 761 135 q 556 89 657 89 q 325 146 433 89 q 150 310 211 206 q 89 556 89 415 q 331 967 89 844 q 556 1022 440 1022 q 789 963 679 1022 q 960 800 899 904 q 1022 556 1022 696 q 979 347 1022 440 m 526 399 q 522 438 522 418 q 566 546 522 501 q 674 590 610 590 q 715 585 694 590 q 556 717 701 710 q 394 556 394 708 q 526 399 394 422 m 115 821 q 57 683 69 743 q 49 556 49 644 q 313 108 49 240 q 556 49 432 49 q 753 89 651 49 q 869 49 804 49 q 1006 105 950 49 q 1063 242 1063 161 q 1025 354 1063 304 q 1063 556 1063 447 q 996 821 1063 704 q 799 1003 929 938 q 556 1063 679 1063 q 301 999 421 1063 q 115 821 182 935 m 185 332 q 136 447 146 397 q 129 556 129 481 q 349 931 129 819 q 556 982 450 982 q 769 928 668 982 q 925 780 869 875 q 981 556 981 685 q 943 364 981 449 l 932 339 l 950 319 q 981 242 981 286 q 948 163 981 196 q 869 129 915 129 q 790 163 824 129 l 771 182 l 744 172 q 556 129 628 129 q 342 183 443 129 q 185 332 240 238 m 554 757 q 442 726 497 757 q 354 556 354 678 q 519 358 354 390 l 578 347 l 565 406 q 563 438 563 418 q 595 517 563 483 q 674 550 628 550 q 704 546 689 550 l 763 529 l 756 589 q 690 713 746 669 q 557 757 633 757 l 554 757 m 435 556 q 556 675 435 671 q 658 629 629 671 q 538 574 588 624 q 483 454 489 525 q 435 556 435 479 m 110 825 q 40 556 40 706 q 107 288 40 404 q 308 100 176 165 q 556 40 428 40 q 751 79 650 40 q 869 40 803 40 l 869 40 q 1012 99 953 40 q 1071 242 1071 158 q 1035 356 1071 304 q 1071 556 1071 449 q 1002 825 1071 706 q 803 1011 933 944 q 556 1071 685 1071 q 300 1007 419 1071 q 110 825 175 940 m 351 188 q 138 556 138 294 q 353 924 138 817 q 556 974 453 974 q 758 924 658 974 q 974 556 974 817 q 935 367 974 457 l 922 338 l 944 314 q 974 242 974 283 q 943 168 974 199 q 869 138 913 138 q 796 168 826 138 l 772 192 l 742 179 q 556 138 640 138 q 351 188 451 138 m 75 847 q 0 556 0 717 q 74 267 0 394 q 290 64 150 133 q 556 0 418 0 q 746 35 647 0 q 869 0 803 0 q 1040 71 969 0 q 1111 242 1111 142 q 1079 360 1111 304 q 1111 556 1111 454 q 1037 847 1111 717 q 821 1047 963 976 q 556 1111 694 1111 q 279 1042 408 1111 q 75 847 144 969 m 556 1031 q 790 971 681 1031 q 967 804 906 910 q 1029 556 1029 699 q 997 369 1029 444 l 989 350 l 1001 332 q 1029 242 1029 292 q 983 128 1029 175 q 869 81 936 81 q 775 111 811 81 l 758 125 l 738 117 q 556 81 647 81 q 321 140 433 81 q 81 556 81 268 q 142 801 81 694 q 326 975 206 914 q 556 1031 438 1031 m 158 796 q 104 671 117 725 q 97 556 97 636 q 328 154 97 276 q 556 97 436 97 q 757 142 653 97 q 763 144 760 143 l 768 139 q 869 97 810 97 l 869 97 q 972 140 929 97 q 1014 242 1014 182 q 974 342 1014 301 l 969 346 l 972 350 q 1014 556 1014 442 q 954 794 1014 688 q 782 957 894 900 q 556 1014 669 1014 q 328 957 433 1014 q 158 796 218 899 m 178 556 q 371 888 178 792 q 556 933 463 933 q 742 888 654 933 q 882 757 835 839 q 932 556 932 671 q 899 383 932 456 l 874 329 l 915 286 q 932 242 932 269 q 914 197 932 215 q 869 178 896 178 q 825 196 843 178 l 782 239 l 726 217 q 556 178 629 178 q 369 224 461 178 q 178 556 178 319 m 553 765 q 438 733 494 765 q 346 556 346 682 q 517 350 346 379 l 589 338 l 574 408 q 571 438 571 421 q 601 511 571 481 q 674 542 631 542 q 701 538 686 542 l 771 518 l 764 590 q 697 717 757 669 q 557 765 638 765 l 553 765 m 443 556 q 556 668 443 660 q 642 636 613 664 q 532 579 578 626 q 476 468 486 532 q 443 556 443 492 m 551 806 q 418 768 485 806 q 306 556 306 704 q 510 311 306 350 l 640 286 l 614 415 l 611 438 q 629 483 611 464 q 674 501 647 501 q 692 499 682 501 l 818 463 l 804 594 q 693 768 792 714 q 560 806 625 806 l 551 806 m 556 725 l 556 725 q 724 585 707 718 l 725 574 l 713 576 q 674 582 688 582 q 572 540 614 582 q 531 438 531 497 l 536 388 l 525 390 q 386 556 386 425 q 457 697 386 658 q 556 725 503 722 m 553 708 q 403 556 403 708 q 453 435 403 471 l 507 396 l 517 463 q 560 551 524 514 q 649 596 597 589 l 743 610 l 646 683 q 558 708 601 708 l 553 708 m 513 617 q 489 590 500 604 q 513 617 494 608 z "},"r":{"ha":1001,"x_min":0,"x_max":953,"o":"m 819 349 q 864 243 864 304 q 822 133 865 178 q 713 89 778 89 q 604 133 649 89 l 414 325 l 394 325 l 394 242 q 350 133 394 178 q 242 89 306 89 q 133 133 178 89 q 89 242 89 178 l 89 869 q 133 978 89 933 q 242 1022 178 1022 l 478 1022 q 663 982 575 1022 q 808 863 757 939 q 864 674 864 781 q 750 419 864 515 l 819 349 m 394 629 l 476 629 q 561 674 561 629 q 476 717 561 717 l 394 717 l 394 629 m 242 1063 q 105 1006 161 1063 q 49 869 49 950 l 49 242 q 105 105 49 161 q 242 49 161 49 q 378 105 322 49 q 435 242 435 161 l 435 246 l 575 104 q 713 49 631 49 q 850 105 794 49 q 904 243 906 161 q 849 378 903 324 l 849 378 l 808 418 q 904 674 904 521 q 842 885 904 793 q 669 1024 781 978 q 478 1063 576 1063 l 242 1063 m 129 242 l 129 869 q 163 949 129 915 q 242 982 196 982 l 478 982 q 638 949 558 982 q 824 674 824 871 q 724 450 824 533 l 690 422 l 792 319 q 824 243 824 288 q 792 163 824 196 q 713 129 760 129 q 633 163 667 129 l 432 365 l 354 365 l 354 242 q 322 162 354 194 q 242 129 289 129 q 163 163 196 129 q 129 242 129 196 m 354 757 l 354 589 l 476 589 q 558 607 525 589 q 601 674 601 629 q 558 739 601 717 q 476 757 524 757 l 354 757 m 476 676 q 503 674 489 676 q 476 669 489 669 l 435 669 l 435 676 l 476 676 m 242 1071 q 99 1012 158 1071 q 40 869 40 953 l 40 242 q 99 99 40 158 q 242 40 158 40 q 380 94 322 40 q 442 228 438 147 l 569 99 q 713 40 628 40 q 856 99 799 40 q 913 244 914 158 q 854 383 913 328 l 854 383 l 819 419 q 913 674 913 522 q 849 890 913 796 q 672 1031 786 983 q 478 1071 575 1071 l 242 1071 m 138 242 l 138 869 q 168 943 138 913 q 242 974 199 974 l 478 974 q 635 942 558 974 q 815 674 815 865 q 718 456 815 536 l 678 422 l 786 314 q 815 243 815 285 q 787 168 817 199 q 713 138 757 138 q 639 168 669 138 l 435 374 l 346 374 l 346 242 q 315 168 346 199 q 242 138 285 138 q 168 168 199 138 q 138 242 138 199 m 242 1111 q 71 1040 142 1111 q 0 869 0 969 l 0 242 q 71 71 0 142 q 242 0 142 0 q 413 71 342 0 q 464 149 446 104 l 542 71 q 713 0 613 0 q 885 71 815 0 q 953 244 954 142 q 882 413 953 342 l 872 422 q 953 674 953 532 q 883 913 953 808 q 688 1068 813 1017 q 478 1111 583 1111 l 242 1111 m 81 242 l 81 869 q 128 983 81 936 q 242 1031 175 1031 l 478 1031 q 667 989 578 1031 q 815 867 763 944 q 872 674 872 783 q 789 446 872 533 l 763 418 l 826 354 q 872 244 872 308 q 828 128 874 175 q 713 81 782 81 q 599 128 646 81 l 407 321 l 401 231 q 351 124 397 167 q 242 81 306 81 q 128 128 175 81 q 81 242 81 175 m 242 1014 q 140 972 182 1014 q 97 869 97 929 l 97 242 q 140 140 97 182 q 242 97 182 97 q 344 140 301 97 q 386 242 386 182 l 386 333 l 418 333 q 610 139 429 319 q 713 97 651 97 l 713 97 q 814 139 772 97 q 856 240 856 181 l 856 243 q 814 343 856 301 l 738 419 l 744 425 q 856 674 856 514 q 650 978 856 892 q 478 1014 564 1014 l 242 1014 m 178 242 l 178 869 q 197 915 178 896 q 242 933 215 933 l 478 933 q 622 903 553 933 q 736 811 697 869 q 775 674 775 753 q 693 488 775 556 l 618 425 l 757 286 q 775 243 775 268 q 758 197 775 215 q 713 178 740 178 q 668 196 686 178 l 451 414 l 306 414 l 306 242 q 287 197 306 215 q 242 178 268 178 q 197 197 215 178 q 178 242 178 215 m 140 140 m 346 765 l 346 581 l 476 581 q 564 601 528 581 q 610 674 610 626 q 564 744 610 719 q 476 765 526 765 l 346 765 m 306 806 l 306 540 l 476 540 q 578 563 531 540 q 650 674 650 596 q 579 783 650 750 q 476 806 532 806 l 306 806 m 476 725 q 568 674 568 725 q 476 621 568 621 l 386 621 l 386 725 l 476 725 z "},"s":{"ha":1043,"x_min":0,"x_max":993,"o":"m 751 1022 q 859 978 814 1022 q 904 871 904 933 q 860 763 904 807 q 751 718 815 718 l 439 718 q 433 714 433 718 q 439 708 433 708 l 556 708 q 722 674 644 708 q 853 568 806 636 q 904 399 904 494 q 710 119 904 197 q 556 89 633 89 l 242 89 q 133 133 178 89 q 89 242 89 178 q 133 350 89 306 q 242 394 178 394 l 554 394 q 583 399 565 394 q 554 403 565 403 l 438 403 q 140 543 238 403 q 89 713 89 617 q 140 883 89 810 q 282 992 192 956 q 438 1022 358 1022 l 751 1022 m 438 1063 q 253 1024 340 1063 q 107 906 160 981 q 49 713 49 822 q 201 431 49 529 q 92 363 135 417 q 49 242 49 310 q 105 105 49 161 q 242 49 161 49 l 556 49 q 886 207 776 49 q 944 399 944 290 q 790 682 944 583 q 901 748 858 694 q 944 871 944 801 q 888 1006 944 950 q 751 1063 831 1063 l 438 1063 m 297 471 q 129 713 129 538 q 297 954 129 888 q 438 982 367 982 l 751 982 q 831 949 797 982 q 864 871 864 917 q 831 791 864 824 q 751 758 799 758 l 439 758 q 393 714 393 758 q 439 668 393 668 l 556 668 q 696 640 626 668 q 864 399 864 574 q 696 157 864 224 q 556 129 626 129 l 242 129 q 163 163 196 129 q 129 242 129 196 q 162 322 129 289 q 242 354 194 354 l 554 354 l 592 358 l 593 438 q 554 443 571 443 l 438 443 q 297 471 367 443 m 438 1071 q 249 1031 338 1071 q 100 910 156 988 q 40 713 40 825 q 182 433 40 535 q 100 385 135 419 q 40 242 40 325 q 99 99 40 158 q 242 40 158 40 l 556 40 q 747 82 656 40 q 893 201 838 124 q 953 399 953 286 q 808 679 953 578 q 893 729 856 693 q 953 871 953 788 q 894 1013 953 954 q 751 1071 835 1071 l 438 1071 m 394 668 q 439 660 419 660 l 556 660 q 693 632 624 660 q 856 399 856 567 q 692 164 856 229 q 556 138 625 138 l 242 138 q 168 168 199 138 q 138 242 138 199 q 168 315 138 285 q 242 346 199 346 l 554 346 l 593 350 l 596 444 q 554 451 572 451 l 438 451 q 300 478 367 451 q 138 713 138 543 q 301 947 138 882 q 438 974 368 974 l 751 974 q 825 944 794 974 q 856 871 856 914 q 825 797 856 828 q 751 767 794 767 l 439 767 q 397 761 421 767 q 381 711 381 738 q 394 668 381 688 m 438 1111 q 231 1067 326 1111 q 67 933 128 1019 q 0 713 0 838 q 108 443 0 550 q 0 242 0 371 q 71 71 0 142 q 242 0 142 0 l 556 0 q 763 44 667 0 q 926 179 865 92 q 993 399 993 274 q 882 669 993 561 q 993 871 993 740 q 923 1041 993 971 q 751 1111 853 1111 l 438 1111 m 81 242 q 194 394 81 358 l 272 419 l 206 467 q 81 713 81 556 q 281 1000 81 921 q 438 1031 357 1031 l 751 1031 q 865 984 818 1031 q 913 871 913 938 q 881 775 913 817 q 797 718 850 733 l 717 694 l 785 646 q 913 399 913 554 q 713 111 913 190 q 556 81 636 81 l 242 81 q 128 128 175 81 q 81 242 81 175 m 438 1014 q 146 876 242 1014 q 97 713 97 807 q 285 440 97 515 q 438 411 358 411 l 554 411 l 553 386 l 242 386 q 140 344 182 386 q 97 242 97 301 q 140 140 97 182 q 242 97 182 97 l 556 97 q 849 238 750 97 q 896 399 896 306 q 708 669 896 594 q 556 700 632 700 l 439 700 q 424 701 432 700 q 421 713 421 710 q 424 725 421 719 q 439 726 432 726 l 751 726 q 854 768 813 726 q 896 871 896 810 q 853 972 896 931 q 751 1014 811 1014 l 438 1014 m 213 594 q 178 713 178 644 q 317 910 178 854 q 438 933 375 933 l 751 933 q 797 915 778 933 q 815 871 815 897 q 797 826 815 844 q 751 807 778 807 l 439 807 q 388 800 419 807 l 375 797 l 365 786 q 340 714 340 757 q 360 646 340 672 l 368 635 l 381 629 q 439 619 413 619 l 556 619 q 781 517 708 619 q 815 399 815 467 q 676 201 815 257 q 556 178 618 178 l 242 178 q 197 197 215 178 q 178 242 178 215 q 197 287 178 268 q 242 306 215 306 l 557 306 l 632 314 l 638 476 l 606 485 q 554 492 579 492 l 438 492 q 213 594 285 492 z "},"t":{"ha":1085,"x_min":0,"x_max":1032,"o":"m 943 869 q 899 761 943 806 q 790 717 854 717 l 668 717 l 668 242 q 624 133 668 178 q 515 89 579 89 q 408 133 451 89 q 364 242 364 178 l 364 717 l 242 717 q 133 761 178 717 q 89 869 89 806 q 133 978 89 933 q 242 1022 178 1022 l 790 1022 q 899 978 854 1022 q 943 869 943 933 m 242 1063 q 105 1006 161 1063 q 49 869 49 950 q 105 733 49 789 q 242 676 161 676 l 324 676 l 324 242 q 379 105 324 161 q 515 49 435 49 q 652 105 596 49 q 708 242 708 161 l 708 676 l 790 676 q 927 733 871 676 q 983 869 983 789 q 927 1006 983 950 q 790 1063 871 1063 l 242 1063 m 129 869 q 163 949 129 915 q 242 982 196 982 l 790 982 q 870 949 838 982 q 903 869 903 917 q 870 790 903 822 q 790 757 838 757 l 628 757 l 628 242 q 595 162 628 194 q 515 129 563 129 q 437 163 469 129 q 404 242 404 196 l 404 757 l 242 757 q 162 790 194 757 q 129 869 129 822 m 242 1071 q 99 1012 158 1071 q 40 869 40 953 q 99 727 40 786 q 242 668 158 668 l 315 668 l 315 242 q 374 99 315 158 q 515 40 432 40 q 658 99 600 40 q 717 242 717 157 l 717 668 l 790 668 q 933 726 875 668 q 992 869 992 785 q 933 1013 992 954 q 790 1071 875 1071 l 242 1071 m 138 869 q 168 943 138 913 q 242 974 199 974 l 790 974 q 865 944 835 974 q 894 869 894 914 q 865 795 894 825 q 790 765 835 765 l 619 765 l 619 242 q 590 167 619 197 q 515 138 560 138 q 442 168 472 138 q 413 242 413 199 l 413 765 l 242 765 q 168 796 199 765 q 138 869 138 826 m 242 1111 q 71 1040 142 1111 q 0 869 0 969 q 70 698 0 768 q 242 628 140 628 l 275 628 l 275 242 q 345 70 275 140 q 515 0 415 0 q 687 70 617 0 q 757 242 757 140 l 757 628 l 790 628 q 962 698 892 628 q 1032 869 1032 768 q 962 1041 1032 971 q 790 1111 892 1111 l 242 1111 m 81 869 q 128 983 81 936 q 242 1031 175 1031 l 790 1031 q 905 984 858 1031 q 951 869 951 938 q 905 755 951 801 q 790 708 858 708 l 676 708 l 676 242 q 630 127 676 174 q 515 81 583 81 q 402 128 449 81 q 356 242 356 175 l 356 708 l 242 708 q 128 756 175 708 q 81 869 81 803 m 242 1014 q 140 972 182 1014 q 97 869 97 929 l 97 869 q 139 767 97 808 q 242 725 181 725 l 372 725 l 372 242 q 414 140 372 182 q 515 97 456 97 q 618 139 576 97 q 660 242 660 181 l 660 725 l 790 725 q 894 767 851 725 q 936 869 936 808 q 894 972 936 931 q 790 1014 851 1014 l 242 1014 m 178 869 q 197 915 178 896 q 242 933 215 933 l 790 933 q 836 915 818 933 q 854 869 854 897 q 836 824 854 842 q 790 806 818 806 l 579 806 l 579 242 q 561 196 579 214 q 515 178 543 178 q 471 197 489 178 q 453 242 453 215 l 453 806 l 242 806 q 197 824 215 806 q 178 869 178 843 m 140 767 z "},"u":{"ha":1085,"x_min":0,"x_max":1032,"o":"m 790 1022 q 899 978 854 1022 q 943 869 943 933 l 943 556 q 893 329 943 435 q 744 154 840 215 q 515 89 643 89 q 286 153 385 89 q 136 338 188 218 q 89 556 89 446 l 89 869 q 133 978 89 933 q 242 1022 178 1022 q 350 978 306 1022 q 394 869 394 933 l 394 557 q 421 447 394 492 q 515 394 454 394 q 610 447 578 394 q 638 557 638 490 l 638 869 q 682 978 638 933 q 790 1022 726 1022 m 597 869 l 597 557 q 515 435 597 435 q 451 476 472 435 q 435 557 435 510 l 435 869 q 378 1006 435 950 q 242 1063 322 1063 q 105 1006 161 1063 q 49 869 49 950 l 49 556 q 103 308 49 422 q 267 118 161 188 q 515 49 374 49 q 767 120 657 49 q 933 321 876 192 q 983 556 983 436 l 983 869 q 927 1006 983 950 q 790 1063 871 1063 q 653 1006 710 1063 q 597 869 597 950 m 790 982 q 870 949 838 982 q 903 869 903 917 l 903 556 q 857 349 903 446 q 721 187 808 244 q 515 129 633 129 q 172 354 271 129 q 129 556 129 453 l 129 869 q 163 949 129 915 q 242 982 196 982 q 322 949 289 982 q 354 869 354 917 l 354 557 q 381 438 354 493 q 515 354 421 354 q 650 436 611 354 q 678 557 678 494 l 678 869 q 711 949 678 915 q 790 982 744 982 m 589 869 l 589 557 q 569 474 589 515 q 515 443 556 443 q 443 557 443 443 l 443 869 q 384 1012 443 953 q 242 1071 325 1071 q 99 1012 158 1071 q 40 869 40 953 l 40 556 q 96 306 40 424 q 261 113 156 182 q 515 40 372 40 q 771 113 660 40 q 940 318 882 185 q 992 556 992 435 l 992 869 q 933 1012 992 953 q 790 1071 874 1071 q 648 1012 707 1071 q 589 869 589 953 m 790 974 q 864 943 833 974 q 894 869 894 913 l 894 556 q 851 357 894 456 q 515 138 756 138 q 181 357 276 138 q 138 556 138 456 l 138 869 q 168 943 138 913 q 242 974 199 974 q 315 943 285 974 q 346 869 346 913 l 346 557 q 374 433 346 492 q 515 346 415 346 q 658 432 617 346 q 686 557 686 490 l 686 869 q 717 943 686 913 q 790 974 747 974 m 549 869 l 549 557 q 533 490 549 525 q 515 483 531 483 q 499 493 503 483 q 483 557 483 525 l 483 869 q 413 1040 483 969 q 242 1111 342 1111 q 71 1040 142 1111 q 0 869 0 969 l 0 556 q 61 288 0 414 q 239 79 125 154 q 515 0 360 0 q 794 79 672 0 q 978 303 915 158 q 1032 556 1032 426 l 1032 869 q 962 1041 1032 971 q 790 1111 892 1111 q 619 1040 690 1111 q 549 869 549 969 m 629 557 l 629 869 q 676 983 629 936 l 676 983 q 790 1031 724 1031 q 904 983 857 1031 q 951 869 951 936 l 951 556 q 900 325 951 435 q 749 147 844 210 q 515 81 646 81 q 282 147 383 81 q 128 335 181 214 q 81 556 81 442 l 81 869 q 128 983 81 936 q 242 1031 175 1031 q 356 983 308 1031 q 403 869 403 936 l 403 557 q 428 453 403 494 q 515 403 457 403 q 604 453 574 403 q 629 557 629 494 m 646 869 l 646 557 q 617 440 646 488 q 515 386 581 386 q 415 442 450 386 q 386 557 386 488 l 386 869 q 344 972 386 929 q 242 1014 301 1014 q 140 972 182 1014 q 97 869 97 929 l 97 556 q 146 333 97 438 q 292 161 199 221 q 515 97 388 97 q 889 342 782 97 q 936 556 936 449 l 936 869 q 894 972 936 931 q 790 1014 851 1014 q 688 972 731 1014 q 646 869 646 929 m 515 306 q 694 415 642 306 q 726 557 726 482 l 726 869 q 745 915 726 896 q 790 933 764 933 q 835 915 817 933 q 854 869 854 896 l 854 556 q 814 374 854 467 q 515 178 729 178 q 217 374 303 178 q 178 556 178 463 l 178 869 q 197 915 178 896 q 242 933 215 933 q 287 915 268 933 q 306 869 306 896 l 306 557 q 336 417 306 481 q 515 306 389 306 z "},"v":{"ha":1167,"x_min":0,"x_max":1111,"o":"m 869 1022 q 938 1006 904 1022 q 1022 869 1022 963 q 1006 801 1022 835 l 692 174 q 556 89 650 89 q 419 174 461 89 l 106 801 q 89 869 89 835 q 174 1006 89 964 q 242 1022 207 1022 q 378 938 336 1022 l 556 582 l 732 938 q 869 1022 774 1022 m 696 956 l 556 674 l 414 956 q 242 1063 360 1063 q 156 1042 197 1063 q 49 869 49 989 q 69 783 49 825 l 383 156 q 556 49 436 49 q 728 156 675 49 l 1042 783 q 1063 869 1063 825 q 956 1042 1063 988 q 869 1063 914 1063 q 696 956 749 1063 m 769 919 q 869 982 800 982 q 919 969 894 982 q 981 869 981 939 q 969 821 981 843 l 656 192 q 556 129 625 129 q 456 192 488 129 l 142 819 q 129 869 129 844 q 192 969 129 939 q 242 982 217 982 q 342 919 311 982 l 556 492 l 769 919 m 689 960 l 556 692 l 422 960 q 242 1071 367 1071 q 151 1049 196 1071 q 40 869 40 993 q 63 779 40 824 l 375 151 q 556 40 431 40 q 735 151 679 40 l 1049 781 q 1071 869 1071 825 q 960 1049 1071 993 q 869 1071 915 1071 q 689 960 744 1071 m 776 917 q 869 974 804 974 q 917 963 894 974 q 974 869 974 935 q 963 824 974 846 l 649 194 q 556 138 621 138 q 463 194 490 138 l 149 824 q 138 869 138 846 q 194 963 138 933 q 242 974 217 974 q 335 917 307 974 l 556 474 l 776 917 m 653 978 l 556 782 l 458 978 q 242 1111 392 1111 q 133 1085 186 1111 q 0 869 0 1018 q 26 761 0 814 l 339 133 q 556 0 406 0 q 771 133 704 0 l 1085 763 q 1111 869 1111 815 q 978 1085 1111 1018 q 869 1111 925 1111 q 653 978 719 1111 m 869 1031 q 942 1013 907 1031 q 1029 869 1029 968 q 1013 799 1029 832 l 699 169 q 556 81 654 81 q 411 169 456 81 l 99 797 q 81 869 81 833 q 169 1013 81 968 q 242 1031 206 1031 q 386 942 342 1031 l 556 600 l 725 942 q 869 1031 769 1031 m 740 935 l 556 564 l 371 935 q 242 1014 332 1014 q 176 999 207 1014 q 97 869 97 958 q 113 804 97 835 l 426 176 q 556 97 465 97 q 685 176 646 97 l 999 806 q 1014 869 1014 836 q 935 999 1014 960 q 869 1014 904 1014 q 740 935 779 1014 m 813 899 q 869 933 829 933 q 914 915 896 933 q 932 869 932 896 q 926 843 932 854 l 613 213 q 556 178 596 178 q 499 213 515 178 l 185 842 q 178 869 178 856 q 196 915 178 897 q 242 933 214 933 q 299 899 282 933 l 556 382 l 813 899 z "},"w":{"ha":1167,"x_min":0,"x_max":1111,"o":"m 869 1022 q 978 978 933 1022 q 1022 869 1022 933 l 1022 242 q 978 133 1022 178 q 869 89 933 89 q 750 146 796 89 l 556 390 l 361 146 q 242 89 315 89 q 133 133 178 89 q 89 242 89 178 l 89 869 q 133 978 89 933 q 242 1022 178 1022 q 350 978 306 1022 q 394 869 394 933 l 394 676 l 436 729 q 557 786 481 786 q 676 729 632 786 l 718 676 l 718 869 q 763 977 718 932 q 869 1022 807 1022 m 735 1006 l 735 1006 q 678 869 678 949 l 678 785 q 557 826 626 826 q 435 785 486 826 l 435 869 q 378 1006 435 950 q 242 1063 322 1063 q 105 1006 161 1063 q 49 869 49 950 l 49 242 q 105 104 49 160 q 242 49 161 49 q 392 121 333 49 l 556 325 l 718 121 q 869 49 775 49 q 1026 129 969 49 q 1063 242 1063 181 l 1063 869 q 1006 1006 1063 950 q 869 1063 950 1063 q 735 1006 790 1063 m 758 869 q 792 949 758 915 l 792 949 q 869 982 825 982 q 949 949 917 982 q 981 869 981 917 l 981 242 q 949 162 981 194 q 869 129 917 129 q 782 171 815 129 l 556 454 l 329 171 q 242 129 296 129 q 162 162 194 129 q 129 242 129 194 l 129 869 q 163 949 129 915 q 242 982 196 982 q 322 949 289 982 q 354 869 354 917 l 354 563 l 468 704 q 557 746 501 746 q 644 704 611 746 l 758 563 l 758 869 m 669 869 l 669 800 q 557 835 619 835 q 443 800 494 835 l 443 869 q 384 1012 443 953 q 242 1071 325 1071 q 99 1012 158 1071 q 40 869 40 953 l 40 242 q 99 99 40 157 q 242 40 157 40 q 399 115 339 40 l 556 313 l 713 115 q 869 40 772 40 q 1033 125 974 40 q 1071 242 1071 178 l 1071 869 q 1012 1012 1071 953 q 869 1071 953 1071 q 728 1012 786 1071 q 669 869 669 953 m 767 869 q 797 943 767 913 l 797 943 q 869 974 828 974 q 943 943 913 974 q 974 869 974 913 l 974 242 q 944 167 974 197 q 869 138 914 138 q 788 176 818 138 l 556 468 l 322 176 q 242 138 292 138 q 167 167 197 138 q 138 242 138 197 l 138 869 q 168 943 138 913 q 242 974 199 974 q 315 943 285 974 q 346 869 346 913 l 346 539 l 475 699 q 557 738 507 738 q 639 699 608 738 l 767 539 l 767 869 m 729 1011 m 700 1040 l 700 1040 q 629 869 629 969 l 629 864 q 557 875 594 875 q 483 864 519 875 l 483 869 q 413 1040 483 969 q 242 1111 342 1111 q 71 1040 142 1111 q 0 869 0 969 l 0 242 q 71 70 0 140 q 242 0 142 0 q 431 90 358 0 l 556 247 l 681 90 q 869 0 753 0 q 1067 101 994 0 q 1111 242 1111 164 l 1111 869 q 1041 1041 1111 971 q 869 1111 971 1111 q 700 1040 771 1111 m 869 1031 q 983 983 936 1031 q 1029 869 1029 936 l 1029 242 q 983 127 1029 174 q 869 81 938 81 q 744 142 792 81 q 556 376 717 175 l 367 142 q 242 81 318 81 q 127 127 174 81 q 81 242 81 174 l 81 869 q 128 983 81 936 q 242 1031 175 1031 q 356 983 308 1031 q 403 869 403 936 l 403 722 l 467 767 q 557 794 507 794 q 647 767 608 794 l 710 722 l 710 869 q 756 983 710 936 q 869 1031 803 1031 m 726 869 l 726 654 l 669 724 q 557 778 625 778 q 443 725 483 778 l 431 708 q 386 654 410 681 l 386 869 q 344 972 386 929 q 242 1014 301 1014 q 140 972 182 1014 q 97 869 97 929 l 97 242 q 139 139 97 181 q 242 97 181 97 q 354 151 311 97 l 556 403 l 757 151 q 869 97 800 97 q 972 140 929 97 q 1014 242 1014 182 l 1014 869 q 972 972 1014 931 q 869 1014 931 1014 q 768 972 810 1014 q 726 869 726 929 m 807 869 q 825 915 807 896 q 869 933 843 933 q 914 915 896 933 q 932 869 932 896 l 932 242 q 914 197 932 215 q 869 178 896 178 q 819 201 839 178 l 556 532 l 292 201 q 242 178 272 178 q 197 197 215 178 q 178 242 178 215 l 178 869 q 197 915 178 896 q 242 933 215 933 q 287 915 268 933 q 306 869 306 896 l 306 425 l 507 675 q 557 697 525 697 q 607 674 588 697 l 807 424 l 807 869 z "},"x":{"ha":1167,"x_min":0,"x_max":1111,"o":"m 978 349 q 1022 242 1022 304 q 978 133 1022 178 q 869 89 933 89 q 761 133 806 89 l 556 340 l 349 133 q 242 89 304 89 q 133 133 178 89 q 89 242 89 178 q 133 349 89 304 l 340 556 l 133 763 q 89 869 89 807 q 134 978 89 933 q 243 1022 179 1024 q 349 978 306 1021 l 556 771 l 761 978 q 869 1022 806 1022 q 977 977 932 1022 q 1022 869 1022 932 q 978 763 1022 807 l 771 556 l 978 349 m 49 869 q 104 733 49 789 l 282 556 l 104 378 q 49 242 49 322 q 105 105 49 161 q 242 49 161 49 q 378 104 322 49 l 556 282 l 733 104 q 869 49 789 49 q 1006 105 950 49 q 1063 242 1063 161 q 1006 378 1063 321 l 828 556 l 1006 733 q 1063 869 1063 790 q 1006 1006 1063 950 q 869 1063 950 1063 q 733 1007 789 1063 l 556 828 l 378 1007 q 243 1063 324 1061 q 106 1007 163 1064 q 49 869 49 950 m 129 242 q 163 321 129 288 l 397 556 l 163 790 q 129 869 129 824 q 163 949 129 917 q 242 982 196 982 q 321 949 288 981 l 556 714 l 790 949 q 869 982 824 982 q 948 949 915 982 q 981 869 981 915 q 949 790 981 822 l 714 556 l 949 321 q 981 242 981 289 q 948 163 981 196 q 869 129 915 129 q 790 163 824 129 l 556 397 l 321 163 q 242 129 288 129 q 163 163 196 129 q 129 242 129 196 m 1006 378 m 40 869 q 99 728 40 786 l 271 556 l 99 383 q 40 242 40 325 q 99 99 40 158 q 242 40 158 40 q 383 99 325 40 l 556 271 l 728 99 q 869 40 786 40 q 1012 99 953 40 q 1071 242 1071 158 q 1011 383 1071 325 l 1011 383 l 840 556 l 1011 728 q 1071 869 1071 788 q 1012 1012 1071 953 q 869 1071 953 1071 q 728 1013 786 1071 l 556 840 l 383 1013 q 244 1071 326 1069 q 100 1013 160 1072 q 40 869 40 954 m 138 242 q 168 315 138 285 l 408 556 l 168 796 q 138 869 138 826 q 168 943 138 913 q 242 974 199 974 q 315 943 286 972 l 556 703 l 796 943 q 869 974 826 974 q 943 943 913 974 q 974 869 974 913 q 943 796 974 826 l 703 556 l 943 315 q 974 242 974 285 q 943 168 974 199 q 869 138 913 138 q 796 168 826 138 l 556 408 l 315 168 q 242 138 285 138 q 168 168 199 138 q 138 242 138 199 m 0 869 q 71 699 0 769 l 214 556 l 71 413 q 0 242 0 342 q 71 71 0 142 q 242 0 142 0 q 413 71 342 0 l 556 214 l 699 71 q 869 0 769 0 q 1040 71 969 0 q 1111 242 1111 142 q 1040 413 1111 342 l 1040 410 q 979 474 1018 435 l 897 556 l 1040 699 q 1111 869 1111 769 q 1040 1040 1111 969 q 869 1111 969 1111 q 699 1040 769 1111 l 556 897 l 413 1040 q 244 1111 343 1110 q 72 1042 143 1113 q 0 869 0 972 m 81 242 q 128 354 81 307 l 328 556 l 128 756 q 81 869 81 803 q 128 983 81 936 l 128 983 q 243 1031 175 1032 q 354 983 308 1029 l 556 782 l 756 983 q 869 1031 803 1031 q 983 983 936 1031 q 1029 869 1029 936 q 983 756 1029 801 l 782 556 l 983 354 q 1029 242 1029 308 q 983 128 1029 175 q 869 81 936 81 q 756 128 803 81 l 556 328 l 354 128 q 242 81 307 81 q 128 128 175 81 q 81 242 81 175 m 71 1040 m 97 869 q 139 768 97 810 l 351 556 l 139 343 q 97 242 97 301 q 140 140 97 182 q 242 97 182 97 q 343 139 301 97 l 556 351 l 768 139 q 869 97 810 97 q 972 140 929 97 q 1014 242 1014 182 q 972 343 1014 301 l 760 556 l 972 768 q 1014 869 1014 810 q 972 972 1014 929 q 869 1014 929 1014 q 768 972 810 1014 l 556 760 l 343 972 q 243 1014 303 1013 q 140 973 182 1015 q 97 869 97 931 m 178 242 q 196 286 178 268 l 465 556 l 196 825 q 178 869 178 843 q 197 915 178 896 q 242 933 215 933 q 286 915 269 932 l 556 644 l 825 915 q 869 933 843 933 q 914 915 896 933 q 932 869 932 896 q 914 825 932 843 l 644 556 l 914 286 q 932 242 932 268 q 914 197 932 215 q 869 178 896 178 q 825 196 843 178 l 556 465 l 286 196 q 242 178 268 178 q 197 197 215 178 q 178 242 178 215 m 140 140 z "},"y":{"ha":1167,"x_min":0,"x_max":1111,"o":"m 1022 869 q 978 763 1022 807 l 708 493 l 708 242 q 664 133 708 178 q 556 89 619 89 q 447 133 492 89 q 403 242 403 178 l 403 493 l 133 763 q 89 869 89 807 q 133 978 89 933 q 242 1022 178 1022 q 349 978 304 1022 l 556 771 l 761 978 q 869 1022 806 1022 q 977 977 932 1022 q 1022 869 1022 932 m 733 1007 l 556 828 l 378 1007 q 242 1063 322 1063 q 105 1006 161 1063 q 49 869 49 950 q 104 733 49 789 l 363 476 l 363 242 q 419 105 363 161 q 556 49 475 49 q 692 105 636 49 q 749 242 749 161 l 749 476 l 1006 733 q 1063 869 1063 790 q 1006 1006 1063 950 q 869 1063 950 1063 q 733 1007 789 1063 m 790 949 q 869 982 824 982 q 948 949 915 982 q 981 869 981 915 q 949 790 981 822 l 668 510 l 668 242 q 635 163 668 196 q 556 129 601 129 q 476 162 508 129 q 443 242 443 194 l 443 510 l 163 790 q 129 869 129 824 q 163 949 129 915 q 242 982 196 982 q 321 949 288 982 l 556 714 l 790 949 m 728 1013 l 556 840 l 383 1013 q 242 1071 325 1071 q 99 1012 158 1071 q 40 869 40 953 q 99 728 40 786 l 354 472 l 354 242 q 413 99 354 158 q 556 40 472 40 q 698 99 639 40 q 757 242 757 158 l 757 472 l 1011 728 q 1071 869 1071 788 q 1012 1012 1071 953 q 869 1071 953 1071 q 728 1013 786 1071 m 796 943 q 869 974 826 974 q 943 943 913 974 q 974 869 974 913 q 943 796 974 826 l 660 513 l 660 242 q 629 168 660 199 q 556 138 599 138 q 482 168 513 138 q 451 242 451 199 l 451 513 l 168 796 q 138 869 138 826 q 168 943 138 913 q 242 974 199 974 q 315 943 285 974 l 556 703 l 796 943 m 699 1040 l 556 897 l 413 1040 q 242 1111 342 1111 q 71 1040 142 1111 q 0 869 0 969 l 0 869 q 71 699 0 769 l 314 456 l 314 242 q 385 71 314 142 q 556 0 456 0 q 726 71 656 0 q 797 242 797 142 l 797 456 l 1040 699 q 1111 869 1111 769 q 1040 1040 1111 969 q 869 1111 969 1111 q 699 1040 769 1111 m 869 1031 q 983 983 936 1031 q 1029 869 1029 936 q 983 757 1029 803 l 717 489 l 717 242 q 669 128 717 175 q 556 81 622 81 q 442 128 489 81 q 394 242 394 175 l 394 489 l 128 757 q 81 869 81 804 q 128 983 81 936 q 242 1031 175 1031 q 354 983 307 1031 l 556 782 l 756 983 q 869 1031 803 1031 m 768 972 l 556 760 l 343 972 q 242 1014 301 1014 q 140 972 182 1014 q 97 869 97 929 l 97 869 q 139 768 97 810 l 411 496 l 411 242 q 453 140 411 182 q 556 97 496 97 q 658 140 615 97 q 700 242 700 182 l 700 496 l 972 768 q 1014 869 1014 810 q 972 972 1014 929 q 869 1014 929 1014 q 768 972 810 1014 m 825 915 q 869 933 843 933 q 914 915 896 933 q 932 869 932 896 q 914 825 932 843 l 619 529 l 619 242 q 601 197 619 215 q 556 178 582 178 q 510 197 529 178 q 492 242 492 215 l 492 529 l 196 825 q 178 869 178 843 q 197 915 178 896 q 242 933 215 933 q 286 915 268 933 l 556 644 l 825 915 z "},"z":{"ha":1167,"x_min":0,"x_max":1111,"o":"m 869 1022 q 978 978 933 1022 q 1022 869 1022 933 q 978 763 1022 807 l 610 394 l 869 394 q 978 350 933 394 q 1022 242 1022 306 q 978 133 1022 178 q 869 89 933 89 l 242 89 q 133 133 178 89 q 89 242 89 178 q 133 349 89 304 l 500 717 l 242 717 q 133 761 178 717 q 89 869 89 806 q 133 978 89 933 q 242 1022 178 1022 l 869 1022 m 242 1063 q 105 1006 161 1063 q 49 869 49 950 q 105 733 49 789 q 242 676 161 676 l 403 676 l 104 378 q 49 242 49 322 q 135 81 49 138 q 242 49 183 49 l 869 49 q 1006 105 950 49 q 1063 242 1063 161 q 1006 378 1063 322 q 869 435 950 435 l 708 435 l 1006 733 q 1063 869 1063 790 q 976 1031 1063 972 q 869 1063 929 1063 l 242 1063 m 129 869 q 163 949 129 915 q 242 982 196 982 l 869 982 q 948 949 915 982 q 981 869 981 915 q 949 790 981 822 l 513 354 l 869 354 q 949 322 917 354 q 981 242 981 289 q 948 163 981 196 q 869 129 915 129 l 242 129 q 162 162 194 129 q 129 242 129 194 q 163 321 129 288 l 599 757 l 242 757 q 162 790 194 757 q 129 869 129 822 m 242 1071 q 99 1012 158 1071 q 40 869 40 953 q 99 727 40 786 q 242 668 158 668 l 383 668 l 99 383 q 40 242 40 325 q 129 74 40 132 q 242 40 179 40 l 869 40 q 1012 99 953 40 q 1071 242 1071 158 q 1012 384 1071 325 q 869 443 953 443 l 728 443 l 1011 728 q 1071 869 1071 788 q 981 1036 1071 976 q 869 1071 928 1071 l 242 1071 m 138 869 q 168 943 138 913 q 242 974 199 974 l 869 974 q 943 943 913 974 q 974 869 974 913 q 943 796 974 826 l 493 346 l 869 346 q 943 315 913 346 q 974 242 974 285 q 943 168 974 199 q 869 138 913 138 l 242 138 q 168 168 199 138 q 138 242 138 199 q 168 315 138 285 l 618 765 l 242 765 q 168 796 199 765 q 138 869 138 826 m 242 1111 q 71 1040 142 1111 q 0 869 0 969 q 70 698 0 768 q 242 628 140 628 l 286 628 l 71 413 q 0 242 0 342 q 107 40 0 113 q 242 0 167 0 l 869 0 q 1040 71 969 0 q 1111 242 1111 142 q 1040 413 1111 342 q 869 483 969 483 l 825 483 l 1040 699 q 1111 869 1111 769 q 1003 1071 1111 999 q 869 1111 943 1111 l 242 1111 m 81 869 q 128 983 81 936 q 242 1031 175 1031 l 869 1031 q 983 983 936 1031 q 1029 869 1029 936 q 983 756 1029 801 l 629 403 l 869 403 q 983 356 936 403 q 1029 242 1029 308 q 983 128 1029 175 q 869 81 936 81 l 242 81 q 128 128 175 81 q 81 242 81 175 q 128 354 81 307 l 481 708 l 242 708 q 128 756 175 708 q 81 869 81 803 m 242 1014 q 140 972 182 1014 q 97 869 97 929 l 97 869 q 139 767 97 808 q 242 725 181 725 l 519 725 l 139 343 q 97 242 97 301 l 97 242 q 161 121 97 164 q 242 97 196 97 l 869 97 q 972 140 929 97 q 1014 242 1014 182 q 972 344 1014 301 q 869 386 929 386 l 590 386 l 972 768 q 1014 869 1014 810 q 950 990 1014 949 q 869 1014 914 1014 l 242 1014 m 178 869 q 197 915 178 896 q 242 933 215 933 l 869 933 q 914 915 896 933 q 932 869 932 896 q 914 825 932 843 l 396 306 l 869 306 q 914 287 896 306 q 932 242 932 268 q 914 197 932 215 q 869 178 896 178 l 242 178 q 197 197 215 178 q 178 242 178 215 q 196 286 178 268 l 715 806 l 242 806 q 197 824 215 806 q 178 869 178 843 m 140 767 z "}}}
